<?xml version="1.0" encoding="UTF-8"?>
<svg id="_レイヤー_1" data-name="レイヤー_1" xmlns="http://www.w3.org/2000/svg" xmlns:xlink="http://www.w3.org/1999/xlink" version="1.1" viewBox="0 0 800 393">
  <!-- Generator: Adobe Illustrator 29.7.1, SVG Export Plug-In . SVG Version: 2.1.1 Build 8)  -->
  <defs>
    <style>
      .st0 {
        fill: none;
      }

      .st1 {
        fill: #4da3a8;
      }

      .st2 {
        clip-path: url(#clippath);
      }
    </style>
    <clipPath id="clippath">
      <rect class="st0" width="799.6" height="393"/>
    </clipPath>
  </defs>
  <g class="st2">
    <g>
      <path class="st1" d="M215.5,30.7c-1.8-4.4-5.6-5.8-9.9-7.9-5.6-2.3-12.9-5.3-15.8-15.5l5.6-1.8c2.3,7.6,7,9.3,12.6,11.7,5,2,10.5,4.4,13.2,11.1l-5.3,2.3h-.3Z"/>
      <path class="st1" d="M64.9,125.8c-1.8,0-3.5,0-5.6-.6l1.5-5.5c7.6,1.8,11.7-1.2,16.4-4.7,4.1-3.2,9.1-6.7,16.1-5.8l-.9,5.8c-4.7-.6-7.9,1.8-12,4.7-3.8,2.9-8.8,6.4-15.5,6.4v-.3Z"/>
      <path class="st1" d="M719.2,71c-1.8-4.4-5.6-5.8-9.9-7.9-5.6-2.3-12.9-5.3-15.8-15.5l5.6-1.8c2.3,7.6,7,9.3,12.6,11.7,5,2,10.5,4.4,13.2,11.1l-5.3,2.3h-.3Z"/>
      <path class="st1" d="M301.6,55.7l-33.2,7.2,1.2,5.7,33.2-7.2-1.2-5.7Z"/>
      <path class="st1" d="M378,87.9l-1.1,5.7,34.7,6.7,1.1-5.7-34.7-6.7Z"/>
      <path class="st1" d="M534.3,27.3l-25.8,21.5,3.8,4.5,25.8-21.5-3.8-4.5Z"/>
      <path class="st1" d="M784.2,313.6l-25.8,21.5,3.8,4.5,25.8-21.5-3.8-4.5Z"/>
      <path class="st1" d="M571.8,109.5c-9.1,0-19.6-4.7-21.1-5.5l2.6-5.3c6.4,2.9,18.7,6.7,23.7,3.8.9-.6,2.3-1.8,2.6-4.7.9-10.2-1.5-14.9-3.5-17.2-1.5-1.8-3.5-2.6-5.8-2.6s-3.8.9-4.7,2.3c-1.8,2.6-1.2,6.7.9,10.8l-5.3,2.6c-3.2-6.1-3.5-12.3-.9-16.6,2-3.5,5.9-5.3,9.9-5.3s7.3,1.8,9.9,4.7c4.1,4.7,5.6,12,5,21.6-.6,5.3-3.2,7.9-5.6,9.1-2.3,1.2-5,1.8-7.9,1.8v.6Z"/>
      <path class="st1" d="M515,315.9c-9.1,0-19.6-4.7-21.1-5.5l2.6-5.3c6.4,2.9,18.7,6.7,23.7,3.8.9-.6,2.3-1.8,2.6-4.7.9-10.2-1.5-14.9-3.5-17.2-1.5-1.8-3.5-2.6-5.8-2.6s-3.8.9-4.7,2.3c-1.8,2.6-1.2,6.7.9,10.8l-5.3,2.6c-3.2-6.1-3.5-12.3-.9-16.6,2-3.5,5.8-5.3,9.9-5.3s7.3,1.8,9.9,4.7c4.1,4.7,5.6,12,5,21.6-.6,5.3-3.2,7.9-5.6,9.1-2.3,1.2-5,1.8-7.9,1.8v.6Z"/>
      <path class="st1" d="M440.1,43.5h-1.8c-10.5-2-19-19.6-19.9-21.6l5.3-2.3c2.9,6.4,9.9,17.2,15.5,18.1,1.2,0,2.6,0,5-2,7.3-7.3,8.8-12.3,8.5-15.5,0-2.3-.9-4.1-2.6-5.8-1.5-1.5-3.2-1.8-5.3-1.2-2.9.9-5.3,4.4-6.1,8.8l-5.8-1.2c1.5-6.7,5.3-11.7,10.2-13.1,3.8-1.2,7.9-.3,10.8,2.3,2.9,2.6,4.7,6.1,4.7,9.9,0,6.1-3.2,12.6-10.2,19.6-2.9,2.9-5.8,3.8-8.2,3.8v.3Z"/>
      <path class="st1" d="M746.9,134c-2.6,0-5-.6-7.3-2-5.3-3.2-8.8-9.9-10.5-19.6-.9-5.3.9-8.5,2.6-10.2,7.6-7.6,26.9-4.7,29-4.4l-.9,5.8c-7-1.2-19.9-1.5-23.7,2.6-.9.9-1.8,2-1.2,5.3,2,9.9,5.6,14,7.9,15.8,2,1.2,4.1,1.5,6.1.9,2-.6,3.2-1.8,3.8-3.5.9-2.9-.6-6.7-3.8-10.2l4.1-4.1c4.7,5,6.7,10.8,5.3,15.8-1.2,3.8-4.1,6.7-7.9,7.6-1.2.3-2.3.6-3.5.6v-.3Z"/>
      <path class="st1" d="M39.8,82h-2.9c-5.8-1.2-11.7-6.1-17-14.3-2.9-4.4-2-8.2-1.2-10.5,4.1-9.9,23.4-14,25.4-14.6l1.2,5.8c-7,1.5-19,5.8-21.3,11.1-.3.9-.9,2.6.9,5.3,5.3,8.8,10.2,11.1,13.2,11.7,2.3.6,4.4,0,6.1-1.5,1.8-1.2,2.3-2.9,2.3-4.7,0-2.9-2.9-6.1-7.3-8.2l2.3-5.3c6.1,2.9,10.2,7.6,10.5,12.8.3,4.1-1.5,7.6-4.7,9.9-2.3,1.8-5.3,2.6-7.9,2.6l.3-.3Z"/>
      <path class="st1" d="M669.1,39.7l-12-18.4-14,9.1-17.5-27.2,5-3.2,14.3,22.2,14-9.1,15.2,23.4-5,3.2Z"/>
      <path class="st1" d="M403.6,347.7l-11.7-18.4-14.3,9.3-17.5-27.4,5-2.9,14.3,22.2,14.3-9.1,14.9,23.4-5,2.9Z"/>
      <path class="st1" d="M83.6,59l-1.8-5.5,21.1-6.1-4.7-16.1,31-9.3,1.5,5.8-25.4,7.3,5,16.1-26.6,7.9Z"/>
      <path class="st1" d="M204.7,104.5l-17.5-10.8,2.9-5,12.6,7.9,6.4-10.2,20.2,12.6-2.9,5-15.5-9.6-6.1,10.2Z"/>
      <path class="st1" d="M368.2,74.5l-18.7-8.8,2.6-5.3,13.5,6.4,5-10.8,21.6,10.2-2.3,5.3-16.4-7.9-5.3,10.8Z"/>
      <path class="st1" d="M474.1,110.4l-4.1-4.1,12.6-12.8-8.5-8.5,14.6-14.6,4.1,4.1-10.5,10.5,8.8,8.5-17,16.9Z"/>
      <path class="st1" d="M692,325.3l-21.1-11.4,2.6-5.3,16.1,8.8,5.6-10.8,18.4,9.9-2.9,5.3-13.2-7-5.6,10.5Z"/>
      <path class="st1" d="M780.3,85.5l-4.4-4.1,12.9-12.8-8.8-8.5,14.6-14.6,4.1,4.1-10.2,10.5,8.5,8.5-16.7,16.9Z"/>
      <path class="st1" d="M130.1,79.4c2.4,0,4.4-2,4.4-4.4s-2-4.4-4.4-4.4-4.4,2-4.4,4.4,2,4.4,4.4,4.4Z"/>
      <path class="st1" d="M318.2,116.2c2.4,0,4.4-2,4.4-4.4s-2-4.4-4.4-4.4-4.4,2-4.4,4.4,2,4.4,4.4,4.4Z"/>
      <path class="st1" d="M318.2,287.6c2.4,0,4.4-2,4.4-4.4s-2-4.4-4.4-4.4-4.4,2-4.4,4.4,2,4.4,4.4,4.4Z"/>
      <path class="st1" d="M634.3,83.8c2.4,0,4.4-2,4.4-4.4s-2-4.4-4.4-4.4-4.4,2-4.4,4.4,2,4.4,4.4,4.4Z"/>
      <path class="st1" d="M622.6,263.4c-2.3-7.6-7-9.3-12.6-11.7-5-2-10.5-4.4-13.2-11.1l5.3-2.3c1.8,4.4,5.6,5.8,9.9,7.9,5.6,2.3,12.9,5.3,15.8,15.5l-5.6,1.8h.3Z"/>
      <path class="st1" d="M495.1,381.6c-2.3-7.6-7-9.3-12.6-11.7-5-2-10.5-4.4-13.2-11.1l5.3-2.3c1.8,4.4,5.6,5.8,9.9,7.9,5.6,2.3,12.9,5.3,15.8,15.5l-5.6,1.8h.3Z"/>
      <path class="st1" d="M640.8,137.2h-2.3l.9-5.8c4.7.6,7.9-1.8,12-4.7,5-3.8,11.1-8.2,21.3-5.8l-1.5,5.5c-7.6-1.8-11.7,1.2-16.4,4.7-3.8,2.9-7.9,5.8-13.7,5.8l-.3.3Z"/>
      <path class="st1" d="M115.7,222.1c-2.3-7.6-7-9.3-12.6-11.7-5-2-10.5-4.4-13.2-11.1l5.3-2.3c1.8,4.4,5.6,5.8,9.9,7.9,5.6,2.3,12.9,5.3,15.8,15.5l-5.6,1.8h.3Z"/>
      <path class="st1" d="M266.1,370.2c-2.3-7.6-7-9.3-12.6-11.7-5-2-10.5-4.4-13.2-11.1l5.3-2.3c1.8,4.4,5.6,5.8,9.9,7.9,5.6,2.3,12.9,5.3,15.8,15.5l-5.6,1.8h.3Z"/>
      <path class="st1" d="M548.2,201.3l-33.2,7.2,1.2,5.7,33.2-7.2-1.2-5.7Z"/>
      <path class="st1" d="M258.9,281.9l-4.9,3.2,18.7,28.3,4.9-3.2-18.7-28.3Z"/>
      <path class="st1" d="M389,146.9l-1.1,5.7,34.7,6.7,1.1-5.7-34.7-6.7Z"/>
      <path class="st1" d="M305.3,215.9l-25.8,21.5,3.8,4.5,25.8-21.5-3.8-4.5Z"/>
      <path class="st1" d="M247.7,197.1h-.3c-3.8,0-7.3-1.8-9.9-4.7-4.1-4.7-5.6-12-5-21.6.6-5.3,3.2-7.9,5.6-9.1,9.4-5.3,26.9,2.6,29,3.8l-2.6,5.3c-6.4-2.9-18.7-6.7-23.7-3.8-.9.6-2.3,1.8-2.6,4.7-.9,10.2,1.5,14.9,3.5,17.2,1.5,1.8,3.5,2.6,5.8,2.6s3.8-.9,4.7-2.3c1.8-2.6,1.2-6.7-.9-10.8l5.3-2.6c3.2,6.1,3.5,12.3.9,16.6-2,3.2-5.6,5.3-9.4,5.3l-.3-.6Z"/>
      <path class="st1" d="M371.4,261.9c-2.6,0-5.3-.9-7.6-2.9-2.9-2.6-4.7-6.1-4.7-9.9,0-6.1,3.2-12.6,10.2-19.6,3.8-3.8,7.6-4.1,9.9-3.5,10.5,2,19,19.6,19.9,21.6l-5.3,2.3c-2.9-6.4-9.9-17.2-15.5-18.1-1.2,0-2.6,0-5,2-7.3,7.3-8.8,12.3-8.5,15.5,0,2.3.9,4.1,2.6,5.8,1.5,1.5,3.2,1.8,5.3,1.2,2.9-.9,5.3-4.4,6.1-8.8l5.8,1.2c-1.5,6.7-5.3,11.7-10.2,13.1-1.2.3-2.3.6-3.5.6l.3-.6Z"/>
      <path class="st1" d="M142.1,165.3c-5.3,0-9.7-.6-10.5-.9l.9-5.8c7,1.2,19.9,1.5,23.7-2.6.9-.9,1.8-2,1.2-5-2-9.9-5.6-14-7.9-15.8-2-1.2-4.1-1.5-6.1-.9s-3.2,1.8-3.8,3.5c-.9,2.9.6,6.7,3.8,10.2l-4.1,4.1c-4.7-5-6.7-10.8-5.3-15.8,1.2-3.8,4.1-6.7,7.9-7.6,3.8-.9,7.6-.3,10.8,1.8,5.3,3.2,8.8,9.9,10.5,19.6.9,5.3-.9,8.5-2.6,10.2-4.1,4.4-12,5.3-18.4,5.3v-.3Z"/>
      <path class="st1" d="M773.3,227.2l-1.2-5.8c7-1.5,19-5.8,21.3-11.1.3-.9.9-2.6-.9-5.3-5.3-8.8-10.2-11.1-13.2-11.7-2.3-.6-4.4,0-6.1,1.5-1.8,1.2-2.3,2.9-2.3,4.7,0,2.9,2.9,6.1,7.3,8.2l-2.3,5.3c-6.1-2.9-10.2-7.6-10.5-12.8-.3-4.1,1.5-7.6,4.7-9.9,3.2-2.3,7-2.9,10.8-2.3,5.8,1.2,11.7,6.1,17,14.3,2.9,4.4,2,8.2,1.2,10.5-4.1,9.9-23.4,14-25.4,14.6h-.3Z"/>
      <path class="st1" d="M668.8,389.2l-1.2-5.8c7-1.5,19-5.8,21.3-11.1.3-.9.9-2.6-.9-5.3-5.3-8.8-10.2-11.1-13.2-11.7-2.3-.6-4.4,0-6.1,1.5-1.8,1.2-2.3,2.9-2.3,4.7,0,2.9,2.9,6.1,7.3,8.2l-2.3,5.3c-6.1-2.9-10.2-7.6-10.5-12.8-.3-4.1,1.5-7.6,4.7-9.9,3.2-2.3,7-2.9,10.8-2.3,5.8,1.2,11.7,6.1,17,14.3,2.9,4.4,2,8.2,1.2,10.5-4.1,9.9-23.4,14-25.4,14.6h-.3Z"/>
      <path class="st1" d="M688.7,247.3l-1.8-5.5,25.4-7.6-5-16.1,26.9-7.9,1.5,5.5-21.1,6.1,5,16.4-31,9.1Z"/>
      <path class="st1" d="M608.6,183.1l-20.2-12.8,2.9-5,15.5,9.6,6.4-10.2,17.5,10.8-3.2,5-12.6-7.6-6.4,10.2Z"/>
      <path class="st1" d="M439.6,223.4l-4.1-4.1,10.2-10.5-8.5-8.5,16.7-16.9,4.4,4.1-12.9,12.8,8.8,8.5-14.6,14.6Z"/>
      <path class="st1" d="M329.3,199.1l-4.4-4.1,10.5-10.8-8.5-8.2,16.7-17.2,4.1,4.1-12.6,12.8,8.5,8.5-14.3,14.9Z"/>
      <path class="st1" d="M12.1,186.3l-4.1-4.1,10.2-10.8-8.5-8.2,16.7-17.2,4.4,4.1-12.9,12.8,8.8,8.5-14.6,14.9Z"/>
      <path class="st1" d="M582.9,346.9l-4.4-4.1,10.5-10.8-8.8-8.2,17-17.2,4.1,4.1-12.6,12.8,8.5,8.5-14.3,14.9Z"/>
      <path class="st1" d="M687.9,198.5c2.4,0,4.4-2,4.4-4.4s-2-4.4-4.4-4.4-4.4,2-4.4,4.4,2,4.4,4.4,4.4Z"/>
      <path class="st1" d="M750.3,365.3c.4-2.4-1.2-4.6-3.6-5-2.4-.4-4.6,1.2-5,3.6-.4,2.4,1.2,4.6,3.6,5,2.4.4,4.6-1.2,5-3.6Z"/>
      <path class="st1" d="M499.8,162c2.4,0,4.4-2,4.4-4.4s-2-4.4-4.4-4.4-4.4,2-4.4,4.4,2,4.4,4.4,4.4Z"/>
      <path class="st1" d="M440.1,292c2.4,0,4.4-2,4.4-4.4s-2-4.4-4.4-4.4-4.4,2-4.4,4.4,2,4.4,4.4,4.4Z"/>
      <path class="st1" d="M322.6,373.7c2.4,0,4.4-2,4.4-4.4s-2-4.4-4.4-4.4-4.4,2-4.4,4.4,2,4.4,4.4,4.4Z"/>
      <path class="st1" d="M184.4,221.8c2.4,0,4.4-2,4.4-4.4s-2-4.4-4.4-4.4-4.4,2-4.4,4.4,2,4.4,4.4,4.4Z"/>
    </g>
  </g>
</svg>