<svg width="800" height="393" viewBox="0 0 800 393" fill="none" xmlns="http://www.w3.org/2000/svg">
<g clip-path="url(#clip0_12818_12248)">
<path d="M215.541 30.6576C213.786 26.2779 209.984 24.818 205.597 22.7742C200.041 20.4384 192.729 17.5186 189.805 7.29946L195.361 5.54761C197.701 13.139 202.38 14.8908 207.937 17.2267C212.909 19.2705 218.465 21.6063 221.098 28.3217L215.833 30.6576H215.541Z" fill="#FBBE3D"/>
<path d="M64.9249 125.842C63.1701 125.842 61.4154 125.842 59.3682 125.258L60.8305 119.71C68.4343 121.462 72.5287 118.542 77.2081 115.039C81.3025 111.827 86.2742 108.323 93.2932 109.199L92.4158 115.039C87.7365 114.455 84.5195 116.79 80.4251 119.71C76.6231 122.63 71.6514 126.134 64.9249 126.134V125.842Z" fill="#FBBE3D"/>
<path d="M719.152 70.9502C717.397 66.5705 713.596 65.1106 709.209 63.0668C703.652 60.731 696.341 57.8112 693.416 47.5921L698.973 45.8402C701.312 53.4316 705.992 55.1834 711.548 57.5193C716.52 59.5631 722.077 61.8989 724.709 68.6143L719.445 70.9502H719.152Z" fill="#FBBE3D"/>
<path d="M301.614 55.6848L268.455 62.8422L269.691 68.5498L302.85 61.3924L301.614 55.6848Z" fill="#FBBE3D"/>
<path d="M377.984 87.9079L376.878 93.6421L411.627 100.323L412.733 94.5885L377.984 87.9079Z" fill="#FBBE3D"/>
<path d="M534.336 27.2822L508.534 48.8203L512.286 53.3002L538.088 31.7621L534.336 27.2822Z" fill="#FBBE3D"/>
<path d="M784.218 313.65L758.416 335.188L762.168 339.668L787.97 318.13L784.218 313.65Z" fill="#FBBE3D"/>
<path d="M571.753 109.491C562.687 109.491 552.159 104.819 550.696 103.944L553.328 98.688C559.762 101.608 572.046 105.403 577.017 102.484C577.895 101.9 579.357 100.732 579.65 97.812C580.527 87.5929 578.187 82.9213 576.14 80.5855C574.678 78.8336 572.631 77.9577 570.291 77.9577C568.244 77.9577 566.489 78.8336 565.612 80.2935C563.857 82.9213 564.442 87.0089 566.489 91.0966L561.225 93.7244C558.008 87.5929 557.715 81.4614 560.347 77.0817C562.395 73.578 566.197 71.8262 570.291 71.8262C574.093 71.8262 577.602 73.578 580.234 76.4978C584.329 81.1694 585.791 88.4688 585.206 98.104C584.621 103.36 581.989 105.987 579.65 107.155C577.31 108.323 574.678 108.907 571.753 108.907V109.491Z" fill="#FBBE3D"/>
<path d="M515.017 315.918C505.951 315.918 495.422 311.246 493.96 310.371L496.592 305.115C503.026 308.035 515.309 311.83 520.281 308.911C521.158 308.327 522.621 307.159 522.913 304.239C523.791 294.02 521.451 289.348 519.404 287.012C517.941 285.261 515.894 284.385 513.555 284.385C511.507 284.385 509.753 285.261 508.875 286.72C507.121 289.348 507.705 293.436 509.753 297.524L504.488 300.151C501.271 294.02 500.979 287.888 503.611 283.509C505.658 280.005 509.46 278.253 513.555 278.253C517.357 278.253 520.866 280.005 523.498 282.925C527.593 287.596 529.055 294.896 528.47 304.531C527.885 309.787 525.253 312.414 522.913 313.582C520.574 314.75 517.941 315.334 515.017 315.334V315.918Z" fill="#FBBE3D"/>
<path d="M440.148 43.5045C439.563 43.5045 438.978 43.5045 438.393 43.5045C427.864 41.4607 419.383 23.9421 418.506 21.8983L423.77 19.5624C426.695 25.9859 433.714 36.789 439.27 37.665C440.44 37.665 441.902 37.665 444.242 35.6211C451.553 28.3217 453.016 23.3581 452.723 20.1464C452.723 17.8106 451.846 16.0587 450.091 14.3069C448.629 12.847 446.874 12.555 444.827 13.139C441.902 14.0149 439.563 17.5186 438.685 21.8983L432.836 20.7303C434.299 14.0149 438.1 9.0513 443.072 7.59142C446.874 6.42352 450.969 7.29944 453.893 9.92723C456.818 12.555 458.572 16.0587 458.572 19.8544C458.572 25.9859 455.355 32.4094 448.336 39.4168C445.412 42.3366 442.487 43.2125 440.148 43.2125V43.5045Z" fill="#FBBE3D"/>
<path d="M746.936 134.017C744.303 134.017 741.964 133.433 739.624 131.973C734.36 128.762 730.85 122.046 729.096 112.411C728.218 107.155 729.973 103.944 731.728 102.192C739.332 94.6003 758.634 97.5201 760.681 97.8121L759.804 103.652C752.785 102.484 739.917 102.192 736.115 106.279C735.237 107.155 734.36 108.323 734.945 111.535C736.992 121.462 740.501 125.55 742.841 127.302C744.888 128.47 746.936 128.762 748.983 128.178C751.03 127.594 752.2 126.426 752.785 124.674C753.662 121.754 752.2 117.958 748.983 114.455L753.077 110.367C757.756 115.331 759.804 121.17 758.341 126.134C757.172 129.929 754.247 132.849 750.445 133.725C749.275 134.017 748.105 134.309 746.936 134.309V134.017Z" fill="#FBBE3D"/>
<path d="M39.7739 82.0453C38.8965 82.0453 38.0191 82.0453 36.8493 82.0453C31.0002 80.8774 25.151 75.9138 19.8868 67.7385C16.9622 63.3589 17.8396 59.5632 18.717 57.2274C22.8114 47.3002 42.1135 43.2125 44.1607 42.6285L45.3306 48.4681C38.3116 49.9279 26.3209 54.3076 23.9812 59.5632C23.6887 60.4391 23.1038 62.191 24.8586 64.8187C30.1228 73.578 35.0946 75.9138 38.0191 76.4978C40.3588 77.0817 42.406 76.4978 44.1607 75.0379C45.9155 73.87 46.5004 72.1181 46.5004 70.3663C46.5004 67.4465 43.5758 64.2348 39.189 62.1909L41.5286 56.9354C47.6702 59.8551 51.7646 64.5268 52.0571 69.7823C52.3495 73.87 50.5948 77.3737 47.3778 79.7095C45.0381 81.4614 42.1135 82.3373 39.4814 82.3373L39.7739 82.0453Z" fill="#FBBE3D"/>
<path d="M669.142 39.7088L657.151 21.3143L643.113 30.3655L625.565 3.21174L630.537 0L644.868 22.1902L658.906 13.1389L674.113 36.497L669.142 39.7088Z" fill="#FBBE3D"/>
<path d="M403.591 347.744L391.892 329.349L377.562 338.692L360.015 311.247L364.986 308.327L379.317 330.517L393.647 321.466L408.563 344.824L403.591 347.744Z" fill="#FBBE3D"/>
<path d="M83.6424 58.9792L81.8877 53.4316L102.945 47.3001L98.2653 31.2414L129.266 21.8982L130.728 27.7377L105.284 35.0371L110.256 51.0958L83.6424 58.9792Z" fill="#FBBE3D"/>
<path d="M204.719 104.527L187.172 93.7243L190.096 88.7607L202.672 96.6441L209.106 86.4249L229.286 98.9799L226.361 103.943L210.861 94.3083L204.719 104.527Z" fill="#FBBE3D"/>
<path d="M368.204 74.454L349.486 65.6947L352.118 60.4391L365.571 66.8626L370.543 56.0594L392.185 66.2786L389.845 71.5342L373.468 63.6508L368.204 74.454Z" fill="#FBBE3D"/>
<path d="M474.073 110.367L469.979 106.279L482.554 93.4323L474.073 84.965L488.696 70.3662L492.79 74.4539L482.262 84.965L491.035 93.4323L474.073 110.367Z" fill="#FBBE3D"/>
<path d="M691.953 325.261L670.896 313.874L673.529 308.619L689.614 317.378L695.17 306.575L713.595 316.502L710.671 321.758L697.51 314.75L691.953 325.261Z" fill="#FBBE3D"/>
<path d="M780.276 85.5491L775.889 81.4614L788.757 68.6145L779.983 60.1472L794.606 45.5483L798.7 49.636L788.464 60.1472L796.946 68.6145L780.276 85.5491Z" fill="#FBBE3D"/>
<path d="M130.143 79.4175C132.566 79.4175 134.53 77.4567 134.53 75.0378C134.53 72.619 132.566 70.6582 130.143 70.6582C127.72 70.6582 125.756 72.619 125.756 75.0378C125.756 77.4567 127.72 79.4175 130.143 79.4175Z" fill="#FBBE3D"/>
<path d="M318.193 116.207C320.616 116.207 322.58 114.246 322.58 111.827C322.58 109.408 320.616 107.447 318.193 107.447C315.771 107.447 313.807 109.408 313.807 111.827C313.807 114.246 315.771 116.207 318.193 116.207Z" fill="#FBBE3D"/>
<path d="M318.193 287.597C320.616 287.597 322.58 285.636 322.58 283.217C322.58 280.798 320.616 278.837 318.193 278.837C315.771 278.837 313.807 280.798 313.807 283.217C313.807 285.636 315.771 287.597 318.193 287.597Z" fill="#FBBE3D"/>
<path d="M634.339 83.7971C636.762 83.7971 638.726 81.8363 638.726 79.4175C638.726 76.9987 636.762 75.0378 634.339 75.0378C631.916 75.0378 629.952 76.9987 629.952 79.4175C629.952 81.8363 631.916 83.7971 634.339 83.7971Z" fill="#FBBE3D"/>
<path d="M622.641 263.363C620.302 255.771 615.623 254.019 610.066 251.684C605.094 249.64 599.537 247.304 596.905 240.589L602.169 238.253C603.924 242.632 607.726 244.092 612.113 246.136C617.67 248.472 624.981 251.392 627.906 261.611L622.349 263.363H622.641Z" fill="#FBBE3D"/>
<path d="M495.13 381.613C492.79 374.021 488.111 372.27 482.554 369.934C477.582 367.89 472.026 365.554 469.394 358.839L474.658 356.503C476.413 360.883 480.214 362.342 484.601 364.386C490.158 366.722 497.469 369.642 500.394 379.861L494.837 381.613H495.13Z" fill="#FBBE3D"/>
<path d="M640.773 137.229C639.896 137.229 639.311 137.229 638.434 137.229L639.311 131.389C643.99 131.973 647.207 129.637 651.302 126.718C656.273 122.922 662.415 118.542 672.651 120.878L671.189 126.426C663.585 124.674 659.49 127.594 654.811 131.097C651.009 134.017 646.915 136.937 641.066 136.937L640.773 137.229Z" fill="#FBBE3D"/>
<path d="M115.736 222.11C113.397 214.519 108.717 212.767 103.161 210.431C98.1888 208.387 92.6321 206.051 90 199.336L95.2642 197C97.019 201.38 100.821 202.84 105.208 204.883C110.764 207.219 118.076 210.139 121 220.358L115.444 222.11H115.736Z" fill="#FBBE3D"/>
<path d="M266.136 370.226C263.796 362.635 259.117 360.883 253.56 358.547C248.588 356.503 243.032 354.167 240.399 347.452L245.664 345.116C247.418 349.496 251.22 350.956 255.607 352.999C261.164 355.335 268.475 358.255 271.4 368.474L265.843 370.226H266.136Z" fill="#FBBE3D"/>
<path d="M548.215 201.266L515.056 208.423L516.292 214.131L549.451 206.974L548.215 201.266Z" fill="#FBBE3D"/>
<path d="M258.894 281.873L254.011 285.087L272.686 313.363L277.569 310.149L258.894 281.873Z" fill="#FBBE3D"/>
<path d="M389.018 146.858L387.912 152.592L422.661 159.273L423.767 153.539L389.018 146.858Z" fill="#FBBE3D"/>
<path d="M305.251 215.853L279.449 237.391L283.201 241.871L309.003 220.333L305.251 215.853Z" fill="#FBBE3D"/>
<path d="M247.71 197.084C247.71 197.084 247.71 197.084 247.418 197.084C243.616 197.084 240.106 195.332 237.474 192.412C233.38 187.741 231.918 180.441 232.503 170.806C233.088 165.551 235.72 162.923 238.059 161.755C247.418 156.499 264.965 164.383 267.013 165.551L264.38 170.806C257.946 167.886 245.663 164.091 240.691 167.01C239.814 167.594 238.352 168.762 238.059 171.682C237.182 181.901 239.522 186.573 241.569 188.909C243.031 190.661 245.078 191.536 247.418 191.536C249.465 191.536 251.22 190.661 252.097 189.201C253.852 186.573 253.267 182.485 251.22 178.398L256.484 175.77C259.701 181.901 259.994 188.033 257.361 192.412C255.314 195.624 251.805 197.668 248.003 197.668L247.71 197.084Z" fill="#FBBE3D"/>
<path d="M371.42 261.903C368.788 261.903 366.156 261.027 363.816 258.983C360.891 256.355 359.137 252.851 359.137 249.056C359.137 242.924 362.354 236.501 369.373 229.493C373.175 225.698 376.977 225.406 379.316 225.99C389.845 228.033 398.326 245.552 399.203 247.596L393.939 249.932C391.015 243.508 383.996 232.705 378.439 231.829C377.269 231.829 375.807 231.829 373.467 233.873C366.156 241.172 364.693 246.136 364.986 249.348C364.986 251.683 365.863 253.435 367.618 255.187C369.08 256.647 370.835 256.939 372.882 256.355C375.807 255.479 378.146 251.975 379.024 247.596L384.873 248.764C383.411 255.479 379.609 260.443 374.637 261.903C373.467 262.195 372.297 262.487 371.127 262.487L371.42 261.903Z" fill="#FBBE3D"/>
<path d="M142.134 165.259C136.87 165.259 132.483 164.675 131.605 164.383L132.483 158.543C139.502 159.711 152.37 160.003 156.172 155.915C157.049 155.039 157.927 153.871 157.342 150.952C155.294 141.024 151.785 136.937 149.445 135.185C147.398 134.017 145.351 133.725 143.304 134.309C141.257 134.893 140.087 136.061 139.502 137.813C138.624 140.733 140.087 144.528 143.304 148.032L139.209 152.12C134.53 147.156 132.483 141.316 133.945 136.353C135.115 132.557 138.04 129.637 141.841 128.761C145.643 127.886 149.445 128.47 152.662 130.513C157.927 133.725 161.436 140.441 163.191 150.076C164.068 155.331 162.313 158.543 160.559 160.295C156.464 164.675 148.568 165.55 142.134 165.55V165.259Z" fill="#FBBE3D"/>
<path d="M773.256 227.157L772.086 221.318C779.105 219.858 791.096 215.478 793.436 210.223C793.728 209.347 794.313 207.595 792.558 204.967C787.294 196.208 782.322 193.872 779.398 193.288C777.058 192.704 775.011 193.288 773.256 194.748C771.501 195.916 770.916 197.668 770.916 199.42C770.916 202.339 773.841 205.551 778.228 207.595L775.888 212.851C769.746 209.931 765.652 205.259 765.36 200.004C765.067 195.916 766.822 192.412 770.039 190.076C773.256 187.741 777.058 187.157 780.86 187.741C786.709 188.909 792.558 193.872 797.822 202.047C800.747 206.427 799.87 210.223 798.992 212.559C794.898 222.486 775.596 226.573 773.548 227.157H773.256Z" fill="#FBBE3D"/>
<path d="M668.849 389.204L667.679 383.365C674.698 381.905 686.689 377.525 689.028 372.27C689.321 371.394 689.906 369.642 688.151 367.014C682.887 358.255 677.915 355.919 674.99 355.335C672.651 354.751 670.604 355.335 668.849 356.795C667.094 357.963 666.509 359.715 666.509 361.467C666.509 364.386 669.434 367.598 673.821 369.642L671.481 374.897C665.339 371.978 661.245 367.306 660.952 362.051C660.66 357.963 662.415 354.459 665.632 352.123C668.849 349.788 672.651 349.204 676.453 349.788C682.302 350.955 688.151 355.919 693.415 364.094C696.34 368.474 695.462 372.27 694.585 374.606C690.491 384.533 671.188 388.62 669.141 389.204H668.849Z" fill="#FBBE3D"/>
<path d="M688.736 247.304L686.981 241.756L712.425 234.165L707.453 218.106L734.36 210.223L735.822 215.77L714.765 221.902L719.737 238.253L688.736 247.304Z" fill="#FBBE3D"/>
<path d="M608.603 183.069L588.424 170.222L591.348 165.259L606.849 174.894L613.283 164.675L630.83 175.478L627.613 180.441L615.037 172.85L608.603 183.069Z" fill="#FBBE3D"/>
<path d="M439.563 223.362L435.469 219.274L445.705 208.763L437.224 200.296L453.894 183.361L458.28 187.449L445.412 200.296L454.186 208.763L439.563 223.362Z" fill="#FBBE3D"/>
<path d="M329.307 199.128L324.92 195.04L335.448 184.237L326.967 176.062L343.637 158.835L347.732 162.923L335.156 175.77L343.637 184.237L329.307 199.128Z" fill="#FBBE3D"/>
<path d="M12.0944 186.293L8 182.205L18.236 171.402L9.75474 163.227L26.4248 146L30.8117 150.088L17.9435 162.935L26.7173 171.402L12.0944 186.293Z" fill="#FBBE3D"/>
<path d="M582.866 346.868L578.479 342.78L589.008 331.977L580.234 323.802L597.197 306.575L601.291 310.663L588.715 323.51L597.197 331.977L582.866 346.868Z" fill="#FBBE3D"/>
<path d="M687.859 198.544C690.281 198.544 692.245 196.583 692.245 194.164C692.245 191.745 690.281 189.785 687.859 189.785C685.436 189.785 683.472 191.745 683.472 194.164C683.472 196.583 685.436 198.544 687.859 198.544Z" fill="#FBBE3D"/>
<path d="M750.323 365.281C750.711 362.893 749.086 360.644 746.694 360.258C744.302 359.871 742.05 361.493 741.662 363.881C741.275 366.268 742.9 368.517 745.291 368.904C747.683 369.291 749.936 367.669 750.323 365.281Z" fill="#FBBE3D"/>
<path d="M499.809 162.047C502.232 162.047 504.196 160.086 504.196 157.667C504.196 155.248 502.232 153.287 499.809 153.287C497.386 153.287 495.422 155.248 495.422 157.667C495.422 160.086 497.386 162.047 499.809 162.047Z" fill="#FBBE3D"/>
<path d="M440.148 291.976C442.57 291.976 444.534 290.015 444.534 287.597C444.534 285.178 442.57 283.217 440.148 283.217C437.725 283.217 435.761 285.178 435.761 287.597C435.761 290.015 437.725 291.976 440.148 291.976Z" fill="#FBBE3D"/>
<path d="M322.58 373.729C325.003 373.729 326.967 371.769 326.967 369.35C326.967 366.931 325.003 364.97 322.58 364.97C320.157 364.97 318.193 366.931 318.193 369.35C318.193 371.769 320.157 373.729 322.58 373.729Z" fill="#FBBE3D"/>
<path d="M184.387 221.759C186.81 221.759 188.774 219.798 188.774 217.38C188.774 214.961 186.81 213 184.387 213C181.964 213 180 214.961 180 217.38C180 219.798 181.964 221.759 184.387 221.759Z" fill="#FBBE3D"/>
</g>
<defs>
<clipPath id="clip0_12818_12248">
<rect width="799.578" height="393" fill="white"/>
</clipPath>
</defs>
</svg>
