<svg width="400" height="274" viewBox="0 0 400 274" fill="none" xmlns="http://www.w3.org/2000/svg">
<path d="M185.129 39.4503L161.906 11.7625L153.036 19.2092L176.262 46.9009C178.711 43.8902 181.72 41.355 185.129 39.4503Z" fill="#FF66B2"/>
<path d="M223.738 46.9009L246.964 19.2092L238.094 11.7625L214.872 39.4503C218.28 41.355 221.289 43.8902 223.738 46.9009Z" fill="#A685E2"/>
<path d="M205.789 36.1355V0H194.21V36.1355C196.086 35.7747 198.02 35.5788 200 35.5788C201.979 35.5788 203.913 35.7747 205.789 36.1355Z" fill="#FBBE3D"/>
<path d="M200 43.853C192.589 43.853 186.013 47.4867 181.949 53.0637L190.354 61.4723C192.106 57.9045 195.766 55.4368 200 55.4368C204.234 55.4368 207.894 57.9045 209.646 61.4723L218.051 53.0637C213.987 47.4867 207.411 43.853 200 43.853Z" fill="#FBBE3D"/>
<path d="M261.086 95.9133C267.969 84.878 271.954 71.8553 271.954 57.9173V23.1667H260.375V57.9173C260.375 66.3131 258.65 74.3121 255.542 81.5843L261.086 95.9133Z" fill="#4DA3A8"/>
<path d="M237.941 104.855C227.565 113.266 214.364 118.319 200 118.319C185.637 118.319 172.436 113.266 162.06 104.856L157.704 116.114C169.585 124.78 184.205 129.902 200 129.902C215.796 129.902 230.416 124.78 242.297 116.113L237.941 104.855Z" fill="#4DA3A8"/>
<path d="M144.458 81.5839C141.351 74.3121 139.626 66.3131 139.626 57.9173V23.1667H128.047V57.9173C128.047 71.8553 132.031 84.8778 138.914 95.9131L144.458 81.5839Z" fill="#4DA3A8"/>
<path d="M129.907 169.619L169.109 68.3012L195.906 95.1113C198.168 97.3722 201.833 97.3722 204.094 95.1113L230.892 68.3012L270.094 169.619H282.51L238.481 55.8277C237.775 54.0016 236.193 52.6562 234.278 52.2522C232.364 51.8466 230.373 52.4381 228.988 53.823L200 82.8245L171.012 53.823C169.627 52.4389 167.639 51.8458 165.723 52.2522C163.807 52.6562 162.226 54.0016 161.519 55.8277L117.49 169.619H129.907Z" fill="#1C0083"/>
<path d="M78.8841 226.479V212.39C79.5291 212.405 80.1676 212.422 80.794 212.444C82.9663 212.519 85.0264 212.632 86.9744 212.781L87.2895 207.52C85.0713 207.37 82.8093 207.258 80.5019 207.183C78.1945 207.108 75.7071 207.07 73.0407 207.07V223.196C72.7395 223.082 72.4388 222.971 72.1419 222.876C70.6734 222.412 69.22 222.18 67.7817 222.18C64.276 222.18 61.5564 222.967 59.6236 224.54C57.6908 226.114 56.7246 228.311 56.7246 231.128C56.7246 233.916 57.6752 236.105 59.5787 237.693C61.4813 239.282 64.1252 240.077 67.512 240.077C71.2879 240.077 74.1264 239.215 76.0295 237.491C77.2774 236.361 78.1081 234.872 78.5377 233.038C79.9916 234.393 81.7226 236.062 83.7384 238.053L87.3792 234.051C85.341 231.983 83.4462 230.199 81.6934 228.7C80.7287 227.875 79.7941 227.14 78.8841 226.479ZM73.0407 230.454C73.0407 231.953 72.576 233.1 71.6473 233.893C70.7182 234.688 69.3395 235.085 67.512 235.085C65.8337 235.085 64.5681 234.741 63.7141 234.051C62.8601 233.362 62.4329 232.328 62.4329 230.948C62.4329 229.599 62.8601 228.603 63.7141 227.958C64.5681 227.314 65.9235 226.991 67.7817 226.991C68.8 226.991 69.7516 227.126 70.6358 227.396C71.3561 227.615 72.1609 228.009 73.0408 228.557L73.0407 230.454Z" fill="#212121"/>
<path d="M58.9855 212.332H69.13V207.07H60.2573C60.6999 205.154 61.1256 203.22 61.5338 201.269L55.8255 200.73C55.3685 202.881 54.89 204.992 54.3946 207.07H46.3862V212.332H53.0782C52.1879 215.736 51.2411 219.096 50.2295 222.405C49.1653 225.883 47.9889 229.39 46.7008 232.927L52.2296 234.546C53.5479 230.948 54.7535 227.336 55.848 223.708C56.9414 220.082 57.9603 216.401 58.904 212.669C58.9322 212.557 58.9575 212.443 58.9855 212.332Z" fill="#212121"/>
<path d="M172.601 233.917C171.163 234.067 169.74 234.141 168.331 234.141C166.863 234.141 165.574 233.999 164.466 233.714C163.357 233.43 162.503 233.047 161.904 232.567C161.304 232.088 161.005 231.533 161.005 230.904C161.005 230.364 161.274 229.779 161.814 229.15C162.353 228.52 163.162 227.876 164.241 227.216L159.432 224.383C157.813 225.613 156.622 226.804 155.858 227.958C155.094 229.112 154.712 230.289 154.712 231.488C154.712 233.137 155.266 234.561 156.375 235.76C157.483 236.959 159.056 237.888 161.095 238.548C163.132 239.207 165.545 239.538 168.331 239.538C169.949 239.538 171.515 239.462 173.028 239.313C174.541 239.162 176.137 238.937 177.815 238.638L177.141 233.242C175.553 233.542 174.04 233.767 172.601 233.917Z" fill="#212121"/>
<path d="M171.477 206.531H153.651C153.892 204.788 154.116 203.048 154.307 201.315L148.329 201.045C148.095 202.889 147.838 204.715 147.567 206.531H139.564V211.792H146.723C146.579 212.626 146.435 213.46 146.284 214.288C145.489 218.62 144.59 222.862 143.587 227.014C142.582 231.166 141.467 235.265 140.238 239.313L146.216 240.392C147.475 236.195 148.621 231.923 149.655 227.576C150.689 223.229 151.602 218.852 152.397 214.445C152.556 213.559 152.705 212.676 152.852 211.792H171.477V206.531Z" fill="#212121"/>
<path d="M156.555 216.379L156.869 221.685C160.345 221.325 163.776 221.063 167.162 220.898C170.548 220.733 173.919 220.651 177.275 220.651V215.39C173.859 215.39 170.436 215.479 167.005 215.659C163.573 215.839 160.09 216.08 156.555 216.379Z" fill="#212121"/>
<path d="M255.332 211.253L259.332 209.229C258.553 207.61 257.774 206.111 256.995 204.732C256.215 203.353 255.332 202.034 254.343 200.775L250.433 203.024C251.391 204.313 252.253 205.602 253.017 206.89C253.781 208.18 254.552 209.634 255.332 211.253Z" fill="#212121"/>
<path d="M261.31 198.976L257.445 201.045C258.344 202.334 259.153 203.638 259.872 204.957C260.591 206.277 261.31 207.76 262.029 209.409L266.03 207.565C265.311 205.946 264.584 204.44 263.85 203.046C263.115 201.652 262.269 200.296 261.31 198.976Z" fill="#212121"/>
<path d="M339.523 221.257C338.731 219.282 338.183 217.175 337.873 214.94H353.973V209.678H337.567V200.865H331.454V209.678H315.048V214.94H331.149C330.838 217.175 330.291 219.282 329.499 221.257C328.196 224.511 326.263 227.411 323.701 229.959C321.139 232.507 317.984 234.696 314.239 236.524L317.521 241.156C320.397 239.867 323.056 238.158 325.499 236.03C327.941 233.901 330.068 231.481 331.881 228.767C332.997 227.097 333.956 225.349 334.76 223.526C335.538 225.349 336.466 227.097 337.545 228.767C339.298 231.481 341.365 233.901 343.748 236.03C346.13 238.158 348.715 239.867 351.501 241.156L354.782 236.524C351.036 234.696 347.883 232.507 345.321 229.959C342.759 227.411 340.826 224.511 339.523 221.257Z" fill="#212121"/>
<path d="M384.397 225.013C385.45 224.258 386.459 223.501 387.414 222.742C389.092 221.408 390.71 219.992 392.269 218.492V213.591H366.648V218.492H384.874C384.636 218.68 384.399 218.867 384.156 219.054C382.921 220.005 381.674 220.911 380.415 221.775H377.211V225.013H358.917V230.094H377.211V234.861C377.211 235.37 377.189 235.723 377.144 235.917C377.099 236.113 376.956 236.24 376.717 236.299C376.477 236.36 376.072 236.389 375.503 236.389C374.964 236.389 374.117 236.367 372.964 236.322C371.81 236.277 370.409 236.225 368.761 236.165L369.031 241.201C370.858 241.261 372.357 241.306 373.526 241.336C374.694 241.365 375.638 241.381 376.357 241.381C377.976 241.381 379.256 241.328 380.201 241.224C381.144 241.118 381.841 240.886 382.29 240.526C382.74 240.167 383.032 239.612 383.167 238.863C383.302 238.113 383.369 237.094 383.369 235.805V230.094H400V225.013H384.397Z" fill="#212121"/>
<path d="M366.019 210.893H392.898V217.638H398.652V206.261H392.901C393.041 206.013 393.189 205.767 393.325 205.519C394.059 204.185 394.726 202.874 395.325 201.584L389.976 200.325C389.377 201.614 388.71 202.919 387.976 204.237C387.599 204.916 387.21 205.59 386.813 206.261H382.903C382.519 205.437 382.123 204.618 381.706 203.81C381.017 202.477 380.313 201.21 379.593 200.01L374.38 201.899C375.099 203.099 375.802 204.365 376.492 205.699C376.588 205.885 376.676 206.074 376.771 206.261H372.18C371.846 205.568 371.501 204.878 371.143 204.193C370.454 202.874 369.75 201.629 369.031 200.46L363.817 202.349C364.536 203.518 365.24 204.762 365.93 206.081C365.961 206.141 365.989 206.201 366.02 206.261H360.266V217.638H366.019V210.893Z" fill="#212121"/>
<path d="M26.0251 205.946H16.8106V201.135H10.9672V205.946H0.76416V211.028H26.0251V205.946Z" fill="#212121"/>
<path d="M30.8794 205.047L27.9131 209.723C29.7703 210.593 31.6729 211.657 33.6213 212.916C35.5688 214.175 37.3968 215.495 39.1048 216.873L42.1164 212.287C40.3782 210.878 38.5278 209.536 36.5652 208.262C34.6026 206.988 32.7069 205.917 30.8794 205.047Z" fill="#212121"/>
<path d="M38.2059 227.98C38.0264 226.961 37.786 225.747 37.487 224.338C37.1871 222.929 36.7974 221.235 36.318 219.256L30.7897 220.381C31.1491 222 31.4559 223.387 31.711 224.54C31.9651 225.695 32.1753 226.684 32.3401 227.508C32.5045 228.333 32.6172 229.037 32.6776 229.622C32.7371 230.206 32.7674 230.709 32.7674 231.128C32.7674 231.818 32.6172 232.403 32.3177 232.882C32.0178 233.362 31.5159 233.729 30.8121 233.984C30.1078 234.238 29.1412 234.426 27.9131 234.546C26.6841 234.666 25.1263 234.725 23.2383 234.725C21.0202 234.725 19.3278 234.68 18.1592 234.591C16.9907 234.501 16.1962 234.321 15.7767 234.051C15.3568 233.781 15.1476 233.407 15.1476 232.927C15.1476 232.657 15.1998 232.305 15.3051 231.87C15.4095 231.436 15.5368 230.948 15.687 230.409C16.0464 229.27 16.3235 228.115 16.5185 226.946C16.7131 225.777 16.8107 224.368 16.8107 222.719V212.526H10.9673V213.857C10.8026 213.781 10.6382 213.702 10.4728 213.635C9.4237 213.216 8.36047 213.006 7.28164 213.006C4.94449 213.006 3.14627 213.801 1.88796 215.39C0.629156 216.979 0 219.272 0 222.269C0 225.208 0.629158 227.493 1.88796 229.127C3.14627 230.761 4.88402 231.578 7.10167 231.578C8.12405 231.578 9.00917 231.404 9.76123 231.062C9.61178 231.672 9.40373 232.335 9.12473 233.061C8.88428 233.722 8.72724 234.261 8.65262 234.68C8.57751 235.101 8.54044 235.52 8.54044 235.94C8.54044 236.749 8.76479 237.43 9.21447 237.986C9.66414 238.54 10.4352 238.967 11.5292 239.268C12.6226 239.567 14.1209 239.784 16.024 239.919C17.9266 240.054 20.3315 240.122 23.2383 240.122C26.2646 240.122 28.7817 240.001 30.7897 239.762C32.7966 239.522 34.3778 239.125 35.5318 238.57C36.6847 238.015 37.5095 237.251 38.0035 236.277C38.4981 235.303 38.7453 234.081 38.7453 232.612C38.7453 232.013 38.7005 231.346 38.6107 230.611C38.5205 229.877 38.3859 229 38.2059 227.98ZM10.6976 225.754C10.2182 226.49 9.45394 226.856 8.40534 226.856C7.26603 226.856 6.41984 226.474 5.86579 225.709C5.31077 224.945 5.03423 223.783 5.03423 222.225C5.03423 220.636 5.31077 219.459 5.86579 218.694C6.41984 217.93 7.26603 217.548 8.40534 217.548C9.45394 217.548 10.2182 217.923 10.6976 218.672C11.1766 219.422 11.417 220.606 11.417 222.225C11.417 223.843 11.1766 225.02 10.6976 225.754Z" fill="#212121"/>
<path d="M207.322 216.632C209.041 215.498 210.687 214.343 212.243 213.164C214.596 211.38 216.88 209.453 219.098 207.385V202.259H188.668V207.385H211.565C210.735 208.076 209.9 208.755 209.052 209.408C207.091 210.923 204.983 212.39 202.747 213.815H201.164V218.987H182.825V224.203H201.164V233.466C201.164 234.126 201.134 234.606 201.074 234.905C201.014 235.205 200.842 235.386 200.557 235.445C200.272 235.506 199.8 235.535 199.141 235.535C198.541 235.535 197.695 235.52 196.601 235.49C195.507 235.461 194.167 235.415 192.579 235.355L192.848 240.437C194.556 240.496 196.017 240.549 197.231 240.594C198.444 240.639 199.456 240.662 200.265 240.662C201.883 240.662 203.164 240.586 204.108 240.437C205.052 240.286 205.748 239.979 206.198 239.514C206.647 239.049 206.947 238.315 207.097 237.311C207.247 236.307 207.322 234.966 207.322 233.286V224.203H224.177V218.987H207.322V216.632Z" fill="#212121"/>
<path d="M107.133 214.55H101.123C100.979 215.162 100.833 215.765 100.684 216.356C100.115 218.62 99.4932 220.853 98.8187 223.056C98.1446 225.26 97.3804 227.576 96.5264 230.004C95.6724 232.432 94.6906 235.085 93.5825 237.963L99.1108 239.717C100.249 236.809 101.268 234.081 102.167 231.533C103.066 228.985 103.875 226.527 104.595 224.158C105.314 221.79 105.966 219.414 106.55 217.03C106.749 216.217 106.943 215.387 107.133 214.55Z" fill="#212121"/>
<path d="M133.204 216.536C132.679 214.483 132.118 212.482 131.519 210.533C130.919 208.584 130.29 206.771 129.631 205.092L123.967 206.62C124.596 208.21 125.21 209.964 125.81 211.882C126.409 213.801 126.978 215.794 127.518 217.862C128.057 219.931 128.536 221.977 128.956 224.001C129.376 226.024 129.705 227.921 129.945 229.689L135.698 228.475C135.429 226.647 135.077 224.713 134.642 222.674C134.207 220.636 133.728 218.59 133.204 216.536Z" fill="#212121"/>
<path d="M122.416 211.342C121.982 210.353 121.338 209.604 120.484 209.094C119.63 208.585 118.491 208.247 117.068 208.082C115.644 207.918 113.854 207.835 111.696 207.835H108.522C108.915 205.739 109.299 203.523 109.674 201.18L103.83 200.505C103.401 203.154 102.973 205.59 102.544 207.835H93.1328V213.051H112.281C113.449 213.051 114.378 213.141 115.067 213.321C115.757 213.501 116.273 213.861 116.618 214.4C116.962 214.94 117.195 215.72 117.315 216.738C117.434 217.758 117.495 219.107 117.495 220.786C117.495 223.724 117.36 226.1 117.09 227.913C116.82 229.727 116.4 231.038 115.832 231.848C115.262 232.657 114.512 233.062 113.584 233.062C113.164 233.062 112.565 232.988 111.786 232.837C111.007 232.687 110.153 232.485 109.224 232.23C108.295 231.976 107.351 231.698 106.392 231.398L105.044 236.48C106.212 236.87 107.433 237.229 108.707 237.558C109.981 237.888 111.202 238.15 112.37 238.346C113.539 238.54 114.512 238.638 115.292 238.638C117.21 238.638 118.776 238.031 119.99 236.817C121.203 235.603 122.094 233.737 122.664 231.218C123.232 228.7 123.518 225.462 123.518 221.505C123.518 219.047 123.443 216.986 123.293 215.322C123.143 213.658 122.85 212.332 122.416 211.342Z" fill="#212121"/>
<path d="M254.41 234.411C252.658 234.621 251.099 234.778 249.736 234.883C248.372 234.988 247.061 235.041 245.803 235.041C242.027 235.041 239.196 234.658 237.308 233.893C235.42 233.129 234.476 231.818 234.476 229.959C234.476 228.371 235.375 226.841 237.172 225.372C238.971 223.904 241.735 222.487 245.466 221.123C249.196 219.759 253.953 218.387 259.737 217.008L258.343 211.612C251.331 213.321 245.608 215.112 241.173 216.986C236.738 218.86 233.464 220.914 231.352 223.146C229.239 225.38 228.183 227.846 228.183 230.544C228.183 233.992 229.644 236.502 232.565 238.076C235.487 239.65 239.78 240.437 245.443 240.437C247.78 240.437 250.275 240.309 252.927 240.054C255.579 239.799 258.358 239.432 261.265 238.952L260.546 233.556C258.208 233.916 256.163 234.201 254.41 234.411Z" fill="#212121"/>
<path d="M235.891 217.895C237.295 217.099 238.863 216.335 240.591 215.605C240.93 215.461 241.28 215.319 241.635 215.176C241.236 213.668 240.871 212.158 240.544 210.645C239.944 207.872 239.465 205.092 239.105 202.304L232.947 203.248C233.307 206.007 233.786 208.809 234.386 211.657C234.817 213.705 235.32 215.785 235.891 217.895Z" fill="#212121"/>
<path d="M308.89 224.653L303.047 225.957C303.197 226.437 303.331 227.059 303.451 227.823C303.571 228.588 303.631 229.24 303.631 229.779C303.631 230.889 303.369 231.773 302.845 232.432C302.32 233.092 301.414 233.564 300.126 233.849C298.837 234.134 297.084 234.276 294.867 234.276C293.159 234.276 291.772 234.194 290.709 234.029C289.645 233.864 288.836 233.542 288.281 233.062C287.727 232.582 287.352 231.893 287.158 230.993C286.963 230.094 286.866 228.925 286.866 227.486C286.866 226.647 286.881 225.5 286.911 224.046C286.917 223.763 286.923 223.466 286.93 223.169H305.609V218.087H287.078C287.129 216.524 287.186 214.892 287.248 213.186C287.25 213.116 287.254 213.047 287.256 212.976H281.312C281.298 213.375 281.283 213.778 281.269 214.175C281.223 215.534 281.18 216.833 281.139 218.087H269.786V223.169H280.985C280.964 223.943 280.946 224.666 280.932 225.327C280.902 226.737 280.888 227.786 280.888 228.475C280.888 230.694 281.105 232.522 281.539 233.961C281.973 235.4 282.708 236.54 283.742 237.379C284.776 238.218 286.206 238.81 288.035 239.155C289.862 239.499 292.139 239.672 294.867 239.672C298.252 239.672 301.039 239.335 303.227 238.66C305.414 237.986 307.032 236.929 308.081 235.49C309.13 234.051 309.655 232.193 309.655 229.914C309.655 229.135 309.594 228.355 309.475 227.576C309.355 226.797 309.16 225.822 308.89 224.653Z" fill="#212121"/>
<path d="M289.765 211.477H304.71V206.396H287.523C287.604 204.593 287.684 202.881 287.765 201.269L281.787 201.135C281.712 202.821 281.638 204.577 281.564 206.396H270.685V211.477H289.765Z" fill="#212121"/>
<path d="M56.7005 261.563H56.652L52.1357 251.167H47.8623V268.899H51.2618V256.51H51.3102L55.0979 265.134H58.2542L62.0419 256.51H62.0907V268.899H65.4899V251.167H61.2164L56.7005 261.563Z" fill="#1C0083"/>
<path d="M77.0227 263.7C77.0227 264.219 76.9011 264.68 76.6583 265.085C76.4157 265.49 76.0794 265.81 75.6509 266.045C75.2217 266.279 74.7241 266.396 74.1574 266.396C73.4129 266.396 72.8746 266.158 72.543 265.68C72.2111 265.202 72.0451 264.437 72.0451 263.384V256.267H68.7188V264.04C68.7188 265.789 69.0666 267.077 69.7627 267.902C70.4585 268.728 71.5512 269.141 73.0406 269.141C73.9149 269.141 74.6834 269 75.3474 268.716C76.0109 268.433 76.5936 268 77.0956 267.417H77.144L77.1924 268.899H80.3731V256.267H77.0227V263.7Z" fill="#1C0083"/>
<path d="M91.1782 256.024C90.2714 256.024 89.4744 256.166 88.7865 256.449C88.0985 256.733 87.4956 257.166 86.9776 257.749H86.9292L86.9048 256.267H83.7241V268.899H87.0748V261.466C87.0748 260.931 87.1998 260.466 87.4512 260.069C87.7018 259.672 88.0538 259.356 88.5073 259.121C88.9602 258.887 89.4785 258.769 90.0611 258.769C90.8381 258.769 91.4045 259.008 91.7608 259.486C92.1169 259.964 92.295 260.729 92.295 261.781V268.899H95.6214V261.125C95.6214 259.36 95.261 258.069 94.5408 257.251C93.8203 256.434 92.6995 256.024 91.1782 256.024Z" fill="#1C0083"/>
<path d="M107.106 256.486C106.361 256.178 105.341 256.024 104.046 256.024C103.026 256.024 102.002 256.109 100.975 256.279C99.9468 256.449 99.0118 256.689 98.1704 256.996L98.5833 259.571C99.3604 259.263 100.186 259.024 101.06 258.854C101.934 258.684 102.775 258.599 103.585 258.599C104.2 258.599 104.673 258.66 105.005 258.781C105.337 258.903 105.572 259.118 105.71 259.425C105.847 259.733 105.916 260.17 105.916 260.737H104.241C102.136 260.737 100.513 261.134 99.3722 261.927C98.2314 262.721 97.6606 263.846 97.6606 265.303C97.6606 266.469 98.0207 267.401 98.7412 268.097C99.4613 268.793 100.445 269.141 101.691 269.141C102.517 269.141 103.326 268.987 104.119 268.68C104.912 268.373 105.535 267.959 105.989 267.441H106.013L106.062 268.899H109.242V260.931C109.242 259.716 109.072 258.749 108.732 258.028C108.393 257.308 107.85 256.794 107.106 256.486ZM105.916 264.356C105.916 264.777 105.782 265.162 105.515 265.51C105.248 265.858 104.888 266.129 104.435 266.324C103.981 266.518 103.472 266.615 102.905 266.615C102.241 266.615 101.727 266.469 101.363 266.178C100.999 265.887 100.817 265.482 100.817 264.963C100.817 264.267 101.141 263.753 101.788 263.421C102.435 263.089 103.415 262.923 104.726 262.923H105.916V264.356Z" fill="#1C0083"/>
<path d="M124.538 256.267H120.459L115.676 261.32H115.628V251.167H112.277V268.899H115.628V263.36H115.676L120.678 268.899H124.757L118.493 262.34L124.538 256.267Z" fill="#1C0083"/>
<path d="M135.343 256.486C134.598 256.178 133.578 256.024 132.284 256.024C131.264 256.024 130.24 256.109 129.212 256.279C128.184 256.449 127.249 256.689 126.408 256.996L126.821 259.571C127.598 259.263 128.423 259.024 129.297 258.854C130.171 258.684 131.013 258.599 131.822 258.599C132.437 258.599 132.911 258.66 133.243 258.781C133.574 258.903 133.809 259.118 133.947 259.425C134.084 259.733 134.153 260.17 134.153 260.737H132.478C130.374 260.737 128.751 261.134 127.61 261.927C126.469 262.721 125.898 263.846 125.898 265.303C125.898 266.469 126.258 267.401 126.979 268.097C127.699 268.793 128.682 269.141 129.929 269.141C130.754 269.141 131.563 268.987 132.357 268.68C133.15 268.373 133.773 267.959 134.226 267.441H134.25L134.299 268.899H137.479V260.931C137.479 259.716 137.31 258.749 136.97 258.028C136.63 257.308 136.087 256.794 135.343 256.486ZM134.153 264.356C134.153 264.777 134.02 265.162 133.753 265.51C133.486 265.858 133.125 266.129 132.672 266.324C132.219 266.518 131.709 266.615 131.143 266.615C130.479 266.615 129.965 266.469 129.601 266.178C129.237 265.887 129.054 265.482 129.054 264.963C129.054 264.267 129.378 263.753 130.026 263.421C130.673 263.089 131.652 262.923 132.964 262.923H134.153V264.356Z" fill="#1C0083"/>
<path d="M145.322 252.138H141.972V256.267H139.228V258.867H141.972V265.182C141.972 266.591 142.307 267.603 142.979 268.219C143.651 268.834 144.748 269.142 146.269 269.142C146.803 269.142 147.321 269.105 147.823 269.032C148.325 268.96 148.851 268.842 149.401 268.68L149.134 266.033C148.81 266.146 148.458 266.235 148.078 266.3C147.698 266.365 147.338 266.397 146.997 266.397C146.366 266.397 145.929 266.247 145.687 265.948C145.444 265.648 145.322 265.118 145.322 264.357V258.867H149.426V256.267H145.322L145.322 252.138Z" fill="#1C0083"/>
<path d="M160.716 256.486C159.971 256.178 158.951 256.024 157.656 256.024C156.636 256.024 155.612 256.109 154.585 256.279C153.557 256.449 152.622 256.689 151.78 256.996L152.193 259.571C152.97 259.263 153.796 259.024 154.67 258.854C155.544 258.684 156.385 258.599 157.195 258.599C157.81 258.599 158.283 258.66 158.615 258.781C158.947 258.903 159.182 259.118 159.319 259.425C159.457 259.733 159.526 260.17 159.526 260.737H157.85C155.746 260.737 154.123 261.134 152.982 261.927C151.841 262.721 151.271 263.846 151.271 265.303C151.271 266.469 151.631 267.401 152.351 268.097C153.071 268.793 154.055 269.141 155.301 269.141C156.127 269.141 156.936 268.987 157.729 268.68C158.522 268.373 159.145 267.959 159.599 267.441H159.623L159.671 268.899H162.852V260.931C162.852 259.716 162.682 258.749 162.342 258.028C162.002 257.308 161.46 256.794 160.716 256.486ZM159.526 264.356C159.526 264.777 159.392 265.162 159.125 265.51C158.858 265.858 158.498 266.129 158.045 266.324C157.591 266.518 157.081 266.615 156.515 266.615C155.851 266.615 155.337 266.469 154.973 266.178C154.609 265.887 154.427 265.482 154.427 264.963C154.427 264.267 154.751 263.753 155.398 263.421C156.045 263.089 157.025 262.923 158.336 262.923H159.526V264.356Z" fill="#1C0083"/>
<path d="M187.52 251.167H183.393L176.157 258.842H176.109V251.167H172.709V268.899H176.109V260.494H176.157L183.636 268.899H187.763L179.557 259.668L187.52 251.167Z" fill="#1C0083"/>
<path d="M193.445 256.438H190.046V268.899H193.445V256.438Z" fill="#1C0083"/>
<path d="M193.445 251.167H190.046V254.251H193.445V251.167Z" fill="#1C0083"/>
<path d="M205.463 257.749H205.415C204.913 257.166 204.334 256.733 203.679 256.45C203.023 256.166 202.283 256.025 201.457 256.025C199.773 256.025 198.47 256.599 197.548 257.749C196.625 258.899 196.164 260.51 196.164 262.583C196.164 264.656 196.625 266.267 197.548 267.417C198.47 268.567 199.773 269.142 201.457 269.142C202.283 269.142 203.043 268.996 203.739 268.705C204.435 268.413 205.034 267.984 205.536 267.417H205.585L205.633 268.899H208.79V251.167H205.463V257.749ZM205.463 263.7C205.463 264.235 205.33 264.708 205.063 265.122C204.796 265.534 204.435 265.862 203.982 266.105C203.529 266.348 203.011 266.47 202.428 266.47C201.473 266.47 200.737 266.134 200.219 265.461C199.7 264.79 199.442 263.83 199.442 262.583C199.442 261.336 199.7 260.377 200.219 259.704C200.737 259.033 201.473 258.696 202.428 258.696C203.011 258.696 203.529 258.818 203.982 259.061C204.435 259.304 204.796 259.632 205.063 260.045C205.33 260.457 205.463 260.931 205.463 261.466V263.7Z" fill="#1C0083"/>
<path d="M220.59 262.668C220.153 262.336 219.627 262.048 219.012 261.805C218.396 261.563 217.709 261.352 216.948 261.174C216.365 261.045 215.912 260.915 215.588 260.785C215.264 260.656 215.038 260.51 214.909 260.348C214.779 260.187 214.714 259.992 214.714 259.765C214.714 259.376 214.909 259.089 215.297 258.903C215.686 258.717 216.284 258.623 217.094 258.623C217.725 258.623 218.372 258.68 219.036 258.793C219.7 258.907 220.388 259.085 221.1 259.328L221.513 256.777C220.768 256.535 219.971 256.348 219.121 256.219C218.271 256.089 217.45 256.024 216.657 256.024C214.924 256.024 213.605 256.332 212.699 256.947C211.792 257.563 211.339 258.47 211.339 259.668C211.339 260.413 211.533 261.045 211.922 261.563C212.31 262.081 212.873 262.514 213.61 262.862C214.346 263.211 215.232 263.514 216.268 263.773C216.867 263.903 217.332 264.037 217.664 264.174C217.996 264.312 218.226 264.462 218.356 264.623C218.486 264.786 218.551 264.996 218.551 265.255C218.551 265.692 218.364 266.016 217.992 266.227C217.619 266.437 217.029 266.542 216.219 266.542C215.507 266.542 214.791 266.469 214.071 266.324C213.35 266.178 212.602 265.968 211.825 265.692L211.412 268.243C211.849 268.421 212.359 268.579 212.942 268.716C213.525 268.854 214.135 268.959 214.775 269.032C215.414 269.105 216.017 269.141 216.584 269.141C217.684 269.141 218.636 268.987 219.437 268.68C220.238 268.373 220.857 267.931 221.294 267.356C221.731 266.782 221.95 266.105 221.95 265.328C221.95 264.761 221.832 264.259 221.598 263.822C221.363 263.385 221.027 263 220.59 262.668Z" fill="#1C0083"/>
<path d="M242.126 262.097C242.126 263.539 241.831 264.575 241.24 265.207C240.649 265.838 239.674 266.154 238.314 266.154C236.955 266.154 235.979 265.838 235.388 265.207C234.797 264.575 234.502 263.539 234.502 262.097V251.167H231.103V262.753C231.103 264.842 231.714 266.429 232.936 267.514C234.158 268.599 235.951 269.142 238.314 269.142C240.694 269.142 242.49 268.599 243.704 267.514C244.919 266.429 245.526 264.842 245.526 262.753V251.167H242.126V262.097Z" fill="#1C0083"/>
<path d="M256.33 256.024C255.423 256.024 254.626 256.166 253.938 256.449C253.25 256.733 252.647 257.166 252.129 257.749H252.081L252.057 256.267H248.876V268.899H252.227V261.466C252.227 260.931 252.352 260.466 252.603 260.069C252.854 259.672 253.206 259.356 253.659 259.121C254.112 258.887 254.63 258.769 255.213 258.769C255.99 258.769 256.556 259.008 256.913 259.486C257.269 259.964 257.447 260.729 257.447 261.781V268.899H260.773V261.125C260.773 259.36 260.413 258.069 259.693 257.251C258.972 256.434 257.851 256.024 256.33 256.024Z" fill="#1C0083"/>
<path d="M267.377 251.167H263.978V254.251H267.377V251.167Z" fill="#1C0083"/>
<path d="M267.377 256.438H263.978V268.899H267.377V256.438Z" fill="#1C0083"/>
<path d="M275.972 266.664H275.924L272.962 256.267H269.417L273.593 268.899H278.279L282.455 256.267H278.911L275.972 266.664Z" fill="#1C0083"/>
<path d="M289.763 256.024C287.804 256.024 286.267 256.607 285.15 257.773C284.033 258.939 283.475 260.542 283.475 262.583C283.475 264.688 284.085 266.308 285.308 267.441C286.53 268.575 288.274 269.141 290.54 269.141C291.349 269.141 292.155 269.072 292.956 268.935C293.757 268.797 294.457 268.607 295.056 268.364L294.668 265.814C294.069 266.04 293.381 266.219 292.604 266.348C291.827 266.478 291.09 266.542 290.395 266.542C289.164 266.542 288.249 266.275 287.651 265.741C287.155 265.299 286.868 264.649 286.783 263.797H295.639C295.655 263.652 295.667 263.433 295.675 263.142C295.684 262.85 295.688 262.591 295.688 262.364C295.688 260.34 295.173 258.778 294.146 257.676C293.118 256.575 291.657 256.024 289.763 256.024ZM289.763 258.454C290.718 258.454 291.426 258.761 291.888 259.376C292.258 259.871 292.477 260.578 292.55 261.49H286.79C286.876 260.608 287.112 259.914 287.505 259.413C288.007 258.773 288.759 258.454 289.763 258.454Z" fill="#1C0083"/>
<path d="M302.983 257.202C302.409 257.583 301.911 258.057 301.49 258.623H301.417L301.393 256.267H298.188V268.899H301.563V263.069C301.563 262.291 301.806 261.583 302.291 260.943C302.777 260.304 303.433 259.798 304.258 259.425C305.084 259.053 305.998 258.866 307.002 258.866V256.024C306.273 256.024 305.565 256.126 304.877 256.328C304.189 256.531 303.558 256.822 302.983 257.202Z" fill="#1C0083"/>
<path d="M317.564 262.668C317.127 262.336 316.6 262.048 315.986 261.805C315.37 261.563 314.682 261.352 313.922 261.174C313.339 261.045 312.886 260.915 312.562 260.785C312.238 260.656 312.012 260.51 311.882 260.348C311.753 260.187 311.688 259.992 311.688 259.765C311.688 259.376 311.882 259.089 312.271 258.903C312.659 258.717 313.258 258.623 314.067 258.623C314.699 258.623 315.346 258.68 316.01 258.793C316.673 258.907 317.361 259.085 318.074 259.328L318.486 256.777C317.742 256.535 316.945 256.348 316.095 256.219C315.245 256.089 314.423 256.024 313.63 256.024C311.898 256.024 310.579 256.332 309.673 256.947C308.766 257.563 308.313 258.47 308.313 259.668C308.313 260.413 308.507 261.045 308.896 261.563C309.284 262.081 309.846 262.514 310.583 262.862C311.32 263.211 312.206 263.514 313.242 263.773C313.84 263.903 314.306 264.037 314.638 264.174C314.969 264.312 315.2 264.462 315.33 264.623C315.459 264.786 315.524 264.996 315.524 265.255C315.524 265.692 315.338 266.016 314.966 266.227C314.593 266.437 314.002 266.542 313.193 266.542C312.481 266.542 311.765 266.469 311.045 266.324C310.324 266.178 309.575 265.968 308.798 265.692L308.386 268.243C308.823 268.421 309.333 268.579 309.916 268.716C310.498 268.854 311.109 268.959 311.749 269.032C312.388 269.105 312.991 269.141 313.558 269.141C314.658 269.141 315.609 268.987 316.41 268.68C317.212 268.373 317.831 267.931 318.268 267.356C318.705 266.782 318.923 266.105 318.923 265.328C318.923 264.761 318.806 264.259 318.572 263.822C318.336 263.385 318.001 263 317.564 262.668Z" fill="#1C0083"/>
<path d="M325.017 251.167H321.618V254.251H325.017V251.167Z" fill="#1C0083"/>
<path d="M325.017 256.438H321.618V268.899H325.017V256.438Z" fill="#1C0083"/>
<path d="M333.37 252.138H330.019V256.267H327.275V258.867H330.019V265.182C330.019 266.591 330.355 267.603 331.026 268.219C331.698 268.834 332.795 269.142 334.317 269.142C334.851 269.142 335.369 269.105 335.871 269.032C336.372 268.96 336.898 268.842 337.449 268.68L337.182 266.033C336.858 266.146 336.505 266.235 336.125 266.3C335.745 266.365 335.385 266.397 335.045 266.397C334.414 266.397 333.977 266.247 333.734 265.948C333.491 265.648 333.37 265.118 333.37 264.357V258.867H337.473V256.267H333.37V252.138Z" fill="#1C0083"/>
<path d="M348.545 256.267L345.461 265.619H345.413L342.353 256.267L338.784 256.291L343.761 268.826L341.674 274H345.194L352.138 256.267H348.545Z" fill="#1C0083"/>
</svg>
