<svg width="312" height="54" viewBox="0 0 312 54" fill="none" xmlns="http://www.w3.org/2000/svg">
<path d="M21.5361 12.5594L14.1419 3.74466L11.3177 6.1154L18.7129 14.9313C19.4928 13.9729 20.4508 13.1658 21.5361 12.5594Z" fill="#FF66B2"/>
<path d="M33.8295 14.9313L41.2247 6.1154L38.4005 3.74466L31.0063 12.5594C32.0916 13.1658 33.0496 13.9729 33.8295 14.9313Z" fill="#A685E2"/>
<path d="M28.1146 11.5041V0H24.4279V11.5041C25.0252 11.3893 25.6409 11.3269 26.2713 11.3269C26.9016 11.3269 27.5173 11.3893 28.1146 11.5041Z" fill="#FBBE3D"/>
<path d="M26.2712 13.961C23.9115 13.961 21.8179 15.1178 20.5239 16.8933L23.2 19.5703C23.7578 18.4345 24.9231 17.6489 26.2712 17.6489C27.6194 17.6489 28.7846 18.4345 29.3425 19.5703L32.0186 16.8933C30.7246 15.1178 28.631 13.961 26.2712 13.961Z" fill="#FBBE3D"/>
<path d="M45.7211 30.535C47.9126 27.0218 49.1813 22.8759 49.1813 18.4386V7.3754H45.4946V18.4386C45.4946 21.1115 44.9453 23.658 43.9558 25.9732L45.7211 30.535Z" fill="#4DA3A8"/>
<path d="M38.3516 33.3819C35.0479 36.0594 30.8446 37.668 26.2713 37.668C21.6979 37.668 17.4947 36.0595 14.191 33.3819L12.8041 36.966C16.5869 39.725 21.2419 41.3558 26.2713 41.3558C31.3006 41.3558 35.9557 39.7249 39.7385 36.966L38.3516 33.3819Z" fill="#4DA3A8"/>
<path d="M8.58667 25.9731C7.59714 23.6581 7.04788 21.1115 7.04788 18.4386V7.3754H3.36121V18.4386C3.36121 22.8759 4.62985 27.0217 6.82138 30.535L8.58667 25.9731Z" fill="#4DA3A8"/>
<path d="M3.95344 54L16.4353 21.7444L24.9677 30.2797C25.6877 30.9995 26.8547 30.9995 27.5748 30.2797L36.1071 21.7444L48.589 54H52.5424L38.5237 17.7734C38.2987 17.192 37.7952 16.7637 37.1852 16.6351C36.576 16.5059 35.942 16.6942 35.501 17.1351L26.2712 26.3681L17.0414 17.1351C16.6004 16.6945 15.9675 16.5057 15.3573 16.6351C14.7473 16.7637 14.2438 17.192 14.0188 17.7734L0 54H3.95344Z" fill="#1C0083"/>
<path d="M115.378 22.3196V13.6934C115.773 13.7028 116.164 13.7135 116.547 13.7267C117.877 13.7727 119.139 13.8417 120.332 13.9331L120.524 10.7122C119.166 10.6205 117.781 10.5515 116.368 10.5055C114.956 10.4601 113.432 10.4368 111.8 10.4368V20.3096C111.615 20.2397 111.431 20.1714 111.249 20.1138C110.35 19.8294 109.46 19.6872 108.58 19.6872C106.433 19.6872 104.768 20.169 103.584 21.1324C102.401 22.0961 101.809 23.4407 101.809 25.1659C101.809 26.8728 102.391 28.2126 103.557 29.1853C104.722 30.1579 106.341 30.6442 108.415 30.6442C110.727 30.6442 112.465 30.1167 113.63 29.0613C114.394 28.3693 114.903 27.4576 115.166 26.3349C116.056 27.1648 117.116 28.1866 118.35 29.4054L120.579 26.9552C119.331 25.6889 118.171 24.5971 117.098 23.6791C116.507 23.1743 115.935 22.7244 115.378 22.3196ZM111.8 24.7527C111.8 25.6707 111.515 26.3727 110.947 26.8588C110.378 27.3454 109.534 27.5886 108.415 27.5886C107.387 27.5886 106.612 27.3776 106.089 26.9552C105.566 26.5331 105.305 25.9001 105.305 25.0556C105.305 24.2297 105.566 23.6197 106.089 23.2247C106.612 22.8304 107.442 22.633 108.58 22.633C109.203 22.633 109.786 22.7154 110.327 22.8806C110.768 23.0152 111.261 23.256 111.8 23.5919V24.7527Z" fill="#212121"/>
<path d="M103.194 13.658H109.405V10.4368H103.973C104.244 9.26341 104.504 8.0797 104.754 6.88523L101.259 6.55484C100.979 7.87163 100.686 9.16408 100.383 10.4368H95.4792V13.658H99.5767C99.0316 15.7419 98.4519 17.7991 97.8324 19.8249C97.1808 21.9543 96.4605 24.1015 95.6718 26.267L99.0571 27.2582C99.8643 25.0557 100.603 22.8442 101.273 20.6231C101.942 18.4027 102.566 16.1494 103.144 13.8644C103.161 13.7962 103.177 13.7263 103.194 13.658Z" fill="#212121"/>
<path d="M172.762 26.8728C171.881 26.9648 171.009 27.0102 170.147 27.0102C169.248 27.0102 168.459 26.9233 167.78 26.7488C167.101 26.5747 166.578 26.3405 166.211 26.0468C165.844 25.7535 165.661 25.4135 165.661 25.0282C165.661 24.6978 165.826 24.3399 166.156 23.9545C166.486 23.5689 166.982 23.1745 167.642 22.7707L164.698 21.0363C163.707 21.789 162.977 22.5185 162.51 23.2247C162.042 23.9315 161.808 24.6521 161.808 25.386C161.808 26.3957 162.147 27.2674 162.826 28.0014C163.505 28.7357 164.468 29.3044 165.716 29.7083C166.963 30.1119 168.441 30.3141 170.147 30.3141C171.138 30.3141 172.096 30.2678 173.023 30.1764C173.949 30.0844 174.926 29.9467 175.954 29.7633L175.541 26.4597C174.569 26.6434 173.642 26.7811 172.762 26.8728Z" fill="#212121"/>
<path d="M172.074 10.1064H161.158C161.306 9.03934 161.443 7.97423 161.56 6.913L157.899 6.7478C157.757 7.87654 157.599 8.99468 157.433 10.1064H152.533V13.3276H156.916C156.828 13.8383 156.74 14.3486 156.647 14.8556C156.161 17.508 155.61 20.1048 154.996 22.6467C154.381 25.1889 153.698 27.6985 152.946 30.1764L156.606 30.8372C157.377 28.2676 158.078 25.6522 158.711 22.9908C159.345 20.3298 159.904 17.6499 160.39 14.9518C160.488 14.4094 160.579 13.8684 160.669 13.3276H172.074V10.1064Z" fill="#212121"/>
<path d="M162.936 16.1356L163.129 19.3843C165.257 19.1641 167.358 19.0037 169.431 18.9024C171.505 18.8018 173.569 18.751 175.624 18.751V15.5301C173.532 15.5301 171.436 15.5851 169.335 15.6953C167.234 15.8052 165.101 15.9525 162.936 16.1356Z" fill="#212121"/>
<path d="M223.418 12.9972L225.868 11.7584C225.391 10.7672 224.914 9.8495 224.437 9.00529C223.959 8.16109 223.418 7.35333 222.813 6.58261L220.419 7.95915C221.005 8.74839 221.533 9.53763 222.001 10.3266C222.469 11.1161 222.941 12.006 223.418 12.9972Z" fill="#212121"/>
<path d="M227.079 5.4812L224.712 6.74781C225.262 7.53705 225.758 8.33555 226.198 9.14271C226.639 9.95077 227.079 10.8592 227.519 11.8683L229.969 10.7397C229.528 9.74853 229.083 8.82636 228.634 7.97289C228.184 7.11943 227.666 6.28926 227.079 5.4812Z" fill="#212121"/>
<path d="M274.969 19.1226C274.484 17.9134 274.149 16.6232 273.959 15.2547H283.817V12.0335H273.772V6.63757H270.029V12.0335H259.983V15.2547H269.842C269.652 16.6231 269.316 17.9134 268.831 19.1226C268.034 21.1145 266.85 22.8902 265.281 24.4498C263.712 26.0101 261.781 27.3502 259.488 28.4695L261.497 31.305C263.258 30.5158 264.887 29.4696 266.382 28.1666C267.877 26.8635 269.18 25.3815 270.29 23.7203C270.974 22.6978 271.56 21.6279 272.053 20.5114C272.529 21.6279 273.097 22.6978 273.758 23.7203C274.831 25.3815 276.097 26.8635 277.556 28.1666C279.015 29.4696 280.597 30.5158 282.303 31.305L284.313 28.4695C282.019 27.3502 280.088 26.0101 278.519 24.4498C276.95 22.8902 275.767 21.1145 274.969 19.1226Z" fill="#212121"/>
<path d="M302.446 21.4216C303.091 20.9596 303.709 20.4963 304.294 20.0314C305.321 19.2149 306.312 18.3477 307.266 17.4297V14.4287H291.578V17.4297H302.738C302.592 17.5444 302.448 17.659 302.299 17.7739C301.542 18.3559 300.779 18.9107 300.008 19.4393H298.046V21.4216H286.845V24.5326H298.046V27.4509C298.046 27.763 298.033 27.9787 298.005 28.0979C297.978 28.2174 297.89 28.2954 297.743 28.3318C297.597 28.3688 297.349 28.3868 297 28.3868C296.67 28.3868 296.151 28.373 295.445 28.3455C294.739 28.3181 293.881 28.2861 292.872 28.2494L293.037 31.3325C294.156 31.3693 295.074 31.3968 295.789 31.4153C296.505 31.4332 297.083 31.4428 297.523 31.4428C298.514 31.4428 299.298 31.4105 299.877 31.3466C300.454 31.282 300.881 31.1398 301.156 30.9197C301.432 30.6995 301.61 30.3596 301.693 29.901C301.776 29.4422 301.817 28.8184 301.817 28.0289V24.5326H312V21.4216H302.446Z" fill="#212121"/>
<path d="M291.193 12.777H307.652V16.9066H311.174V9.94121H307.653C307.739 9.7896 307.829 9.63875 307.913 9.48684C308.362 8.67042 308.771 7.86744 309.138 7.0779L305.862 6.30718C305.495 7.09642 305.087 7.89492 304.638 8.70238C304.406 9.11791 304.169 9.5306 303.925 9.94121H301.531C301.296 9.43666 301.054 8.93524 300.799 8.4407C300.376 7.62427 299.945 6.84878 299.505 6.1145L296.312 7.27088C296.753 8.00515 297.184 8.78065 297.606 9.59707C297.665 9.71089 297.719 9.82694 297.776 9.94121H294.965C294.761 9.51671 294.55 9.09446 294.331 8.6749C293.908 7.86744 293.477 7.10568 293.037 6.38963L289.845 7.54601C290.285 8.26176 290.716 9.02382 291.138 9.83098C291.157 9.86772 291.175 9.90446 291.194 9.94121H287.671V16.9066H291.193V12.777Z" fill="#212121"/>
<path d="M83.0118 9.74852H77.3697V6.80276H73.7917V9.74852H67.5443V12.8595H83.0118V9.74852Z" fill="#212121"/>
<path d="M85.9841 9.19797L84.1678 12.061C85.305 12.5936 86.47 13.2448 87.663 14.0159C88.8555 14.7866 89.9747 15.5946 91.0206 16.4385L92.8646 13.6305C91.8003 12.7678 90.6673 11.9466 89.4656 11.1663C88.2639 10.3866 87.1031 9.7306 85.9841 9.19797Z" fill="#212121"/>
<path d="M90.4702 23.2385C90.3603 22.6147 90.2131 21.8715 90.03 21.0085C89.8463 20.146 89.6077 19.1089 89.3142 17.8975L85.9292 18.5858C86.1492 19.577 86.3371 20.4262 86.4933 21.1324C86.6489 21.8392 86.7776 22.445 86.8785 22.9496C86.9792 23.4544 87.0481 23.8855 87.0852 24.2434C87.1216 24.6013 87.1401 24.909 87.1401 25.1659C87.1401 25.5883 87.0481 25.9461 86.8648 26.2395C86.6811 26.5331 86.3738 26.7581 85.9429 26.914C85.5117 27.07 84.9198 27.185 84.1678 27.2581C83.4152 27.3316 82.4614 27.3681 81.3054 27.3681C79.9472 27.3681 78.9109 27.3406 78.1954 27.2856C77.4799 27.2307 76.9934 27.1204 76.7366 26.9552C76.4795 26.79 76.3514 26.5609 76.3514 26.267C76.3514 26.1018 76.3833 25.8864 76.4478 25.6199C76.5117 25.3541 76.5897 25.0556 76.6816 24.7252C76.9017 24.028 77.0714 23.3212 77.1908 22.6055C77.31 21.8897 77.3697 21.027 77.3697 20.0176V13.7772H73.7918V14.5919C73.6909 14.5455 73.5902 14.4968 73.4889 14.4562C72.8466 14.1996 72.1956 14.0708 71.535 14.0708C70.1039 14.0708 69.0028 14.5574 68.2324 15.5301C67.4616 16.5031 67.0764 17.9071 67.0764 19.7422C67.0764 21.5411 67.4616 22.9403 68.2324 23.9405C69.0028 24.9412 70.0669 25.441 71.4248 25.441C72.0508 25.441 72.5928 25.3346 73.0532 25.1251C72.9617 25.4986 72.8343 25.9045 72.6635 26.3494C72.5163 26.7536 72.4201 27.084 72.3744 27.3406C72.3284 27.5978 72.3057 27.8547 72.3057 28.1116C72.3057 28.6072 72.4431 29.0242 72.7185 29.3642C72.9938 29.7035 73.4659 29.9652 74.1358 30.1489C74.8053 30.3321 75.7227 30.4653 76.888 30.548C78.053 30.6305 79.5255 30.672 81.3054 30.672C83.1584 30.672 84.6997 30.5982 85.9292 30.4516C87.158 30.3046 88.1262 30.0614 88.8328 29.7221C89.5387 29.3821 90.0437 28.9146 90.3463 28.318C90.6491 27.7218 90.8005 26.9738 90.8005 26.0743C90.8005 25.7075 90.773 25.2991 90.7181 24.8492C90.6628 24.3996 90.5804 23.8628 90.4702 23.2385ZM73.6266 21.8757C73.3331 22.3259 72.8651 22.5502 72.223 22.5502C71.5254 22.5502 71.0073 22.3163 70.668 21.8482C70.3282 21.3804 70.1589 20.6691 70.1589 19.7147C70.1589 18.742 70.3282 18.0215 70.668 17.5534C71.0073 17.0856 71.5254 16.8514 72.223 16.8514C72.8651 16.8514 73.3331 17.0811 73.6266 17.5396C73.9199 17.9988 74.0671 18.7235 74.0671 19.7147C74.0671 20.7059 73.9199 21.4264 73.6266 21.8757Z" fill="#212121"/>
<path d="M194.021 16.2907C195.074 15.5966 196.082 14.8896 197.035 14.1673C198.475 13.0754 199.874 11.8958 201.232 10.6295V7.49103H182.599V10.6295H196.619C196.111 11.0525 195.6 11.468 195.081 11.8683C193.88 12.7952 192.589 13.6935 191.22 14.5664H190.251V17.7323H179.022V20.926H190.251V26.5974C190.251 27.0012 190.232 27.2952 190.196 27.4783C190.159 27.662 190.053 27.7723 189.879 27.8087C189.705 27.8457 189.416 27.8637 189.012 27.8637C188.645 27.8637 188.127 27.8547 187.457 27.8362C186.787 27.8183 185.966 27.7905 184.994 27.7537L185.159 30.8647C186.205 30.9011 187.099 30.9334 187.843 30.9609C188.586 30.9884 189.205 31.0024 189.7 31.0024C190.691 31.0024 191.475 30.9561 192.053 30.8647C192.632 30.7727 193.058 30.5845 193.333 30.3001C193.608 30.0154 193.792 29.5658 193.884 28.9513C193.975 28.3366 194.021 27.5154 194.021 26.4871V20.926H204.342V17.7323H194.021V16.2907Z" fill="#212121"/>
<path d="M132.675 15.016H128.995C128.907 15.3909 128.817 15.7601 128.726 16.1219C128.377 17.508 127.997 18.875 127.584 20.224C127.171 21.5731 126.703 22.9908 126.18 24.4776C125.657 25.9641 125.056 27.5885 124.378 29.3504L127.763 30.4241C128.46 28.644 129.084 26.9738 129.634 25.4135C130.185 23.8539 130.68 22.3486 131.121 20.8985C131.561 19.4488 131.96 17.994 132.318 16.5347C132.44 16.0369 132.558 15.5288 132.675 15.016Z" fill="#212121"/>
<path d="M148.639 16.2321C148.317 14.9751 147.973 13.75 147.606 12.5566C147.239 11.3638 146.854 10.2537 146.45 9.22546L142.983 10.1614C143.368 11.1346 143.744 12.2083 144.111 13.3826C144.478 14.5575 144.826 15.7778 145.157 17.0441C145.487 18.3107 145.78 19.5632 146.037 20.8021C146.294 22.0409 146.496 23.202 146.643 24.2846L150.166 23.5414C150.001 22.4221 149.785 21.2382 149.519 19.9901C149.253 18.742 148.959 17.4895 148.639 16.2321Z" fill="#212121"/>
<path d="M142.033 13.0522C141.767 12.4466 141.372 11.9881 140.85 11.6756C140.327 11.3638 139.629 11.1573 138.758 11.0564C137.886 10.9557 136.79 10.9049 135.469 10.9049H133.525C133.766 9.62172 134.001 8.2652 134.231 6.83026L130.653 6.41742C130.39 8.03921 130.128 9.53016 129.865 10.9049H124.102V14.0983H135.827C136.542 14.0983 137.111 14.1536 137.533 14.2635C137.955 14.3737 138.271 14.5939 138.483 14.9243C138.693 15.2547 138.836 15.7321 138.909 16.3558C138.982 16.9801 139.02 17.8061 139.02 18.8337C139.02 20.6327 138.937 22.0872 138.772 23.1973C138.606 24.3079 138.349 25.1106 138.001 25.6062C137.652 26.1018 137.193 26.3494 136.625 26.3494C136.368 26.3494 136.001 26.304 135.524 26.212C135.047 26.1203 134.524 25.9963 133.955 25.8404C133.386 25.6845 132.809 25.5145 132.221 25.3311L131.396 28.442C132.111 28.6807 132.859 28.9009 133.639 29.1025C134.418 29.3044 135.166 29.4649 135.882 29.5844C136.598 29.7035 137.193 29.7633 137.671 29.7633C138.845 29.7633 139.804 29.3917 140.547 28.6484C141.29 27.9052 141.836 26.7626 142.184 25.2208C142.533 23.6791 142.707 21.6967 142.707 19.2741C142.707 17.7694 142.661 16.5072 142.57 15.4886C142.478 14.4699 142.299 13.658 142.033 13.0522Z" fill="#212121"/>
<path d="M222.854 27.1754C221.781 27.3042 220.827 27.4003 219.992 27.4646C219.157 27.5291 218.354 27.5611 217.584 27.5611C215.272 27.5611 213.538 27.3269 212.382 26.8588C211.226 26.3909 210.648 25.5883 210.648 24.4498C210.648 23.4775 211.199 22.5412 212.299 21.6418C213.4 20.7429 215.093 19.8754 217.377 19.0401C219.662 18.2052 222.574 17.3655 226.116 16.521L225.262 13.2173C220.969 14.2635 217.464 15.3604 214.749 16.5072C212.033 17.6546 210.029 18.912 208.735 20.279C207.442 21.6465 206.795 23.156 206.795 24.808C206.795 26.9188 207.689 28.4557 209.478 29.4191C211.267 30.3828 213.896 30.8647 217.364 30.8647C218.795 30.8647 220.322 30.7864 221.946 30.6305C223.57 30.4746 225.271 30.2496 227.051 29.956L226.611 26.6523C225.18 26.8728 223.928 27.0473 222.854 27.1754Z" fill="#212121"/>
<path d="M211.514 17.0638C212.374 16.5767 213.334 16.1087 214.392 15.6618C214.6 15.574 214.814 15.4866 215.032 15.3993C214.788 14.476 214.564 13.5515 214.364 12.6256C213.997 10.9279 213.703 9.22545 213.483 7.51852L209.712 8.09656C209.933 9.78557 210.226 11.5015 210.593 13.2448C210.857 14.4989 211.165 15.7722 211.514 17.0638Z" fill="#212121"/>
<path d="M256.213 21.2014L252.635 21.9996C252.726 22.2936 252.809 22.6742 252.882 23.1423C252.955 23.6104 252.992 24.0095 252.992 24.3399C252.992 25.0192 252.832 25.5608 252.511 25.9641C252.19 26.3679 251.635 26.6571 250.846 26.8313C250.057 27.006 248.983 27.0929 247.626 27.0929C246.58 27.0929 245.731 27.0425 245.08 26.9415C244.428 26.8408 243.933 26.6434 243.594 26.3494C243.254 26.0561 243.025 25.6337 242.906 25.0831C242.786 24.5325 242.727 23.8168 242.727 22.9359C242.727 22.422 242.736 21.72 242.754 20.8295C242.758 20.6566 242.762 20.4749 242.766 20.2927H254.203V17.1818H242.857C242.888 16.2243 242.923 15.2257 242.961 14.181C242.962 14.1379 242.964 14.0957 242.966 14.0526H239.326C239.318 14.2969 239.308 14.5432 239.3 14.7866C239.272 15.6182 239.245 16.414 239.22 17.1818H232.268V20.2927H239.126C239.113 20.7666 239.102 21.2092 239.094 21.6143C239.075 22.4773 239.066 23.1196 239.066 23.5414C239.066 24.9 239.199 26.0193 239.465 26.9003C239.731 27.7812 240.181 28.4787 240.814 28.9926C241.447 29.5061 242.323 29.8687 243.442 30.0799C244.561 30.2908 245.956 30.3966 247.626 30.3966C249.699 30.3966 251.405 30.1902 252.745 29.777C254.084 29.3642 255.075 28.7171 255.717 27.8362C256.359 26.9552 256.681 25.8174 256.681 24.4223C256.681 23.9452 256.644 23.4682 256.57 22.9908C256.497 22.5137 256.378 21.9172 256.213 21.2014Z" fill="#212121"/>
<path d="M244.502 13.1349H253.653V10.0239H243.129C243.179 8.92 243.228 7.87161 243.277 6.88521L239.617 6.80276C239.571 7.83517 239.526 8.91029 239.48 10.0239H232.819V13.1349H244.502Z" fill="#212121"/>
<path d="M73.3406 43.8203H73.312L70.6414 37.6735H68.1145V48.1575H70.1247V40.8329H70.1533L72.393 45.9315H74.2594L76.4991 40.8329H76.528V48.1575H78.5379V37.6735H76.011L73.3406 43.8203Z" fill="#1C0083"/>
<path d="M85.3577 45.084C85.3577 45.3906 85.2857 45.6634 85.1421 45.9026C84.9987 46.142 84.7998 46.3313 84.5465 46.4701C84.2927 46.6089 83.9984 46.6782 83.6633 46.6782C83.2231 46.6782 82.9048 46.5369 82.7087 46.2545C82.5124 45.9722 82.4143 45.52 82.4143 44.8974V40.6893H80.4474V45.2851C80.4474 46.3192 80.6531 47.0803 81.0647 47.5686C81.4761 48.0569 82.1223 48.3011 83.003 48.3011C83.5199 48.3011 83.9744 48.2172 84.367 48.0497C84.7594 47.8824 85.1039 47.6261 85.4007 47.2815H85.4294L85.458 48.1575H87.3388V40.6893H85.3576L85.3577 45.084Z" fill="#1C0083"/>
<path d="M93.7279 40.5458C93.1917 40.5458 92.7204 40.6296 92.3136 40.7971C91.9068 40.9647 91.5502 41.2209 91.244 41.5655H91.2153L91.2009 40.6893H89.3201V48.1575H91.3015V43.7628C91.3015 43.4468 91.3754 43.1718 91.524 42.9369C91.6722 42.7025 91.8803 42.5157 92.1485 42.3769C92.4163 42.2383 92.7228 42.1685 93.0673 42.1685C93.5268 42.1685 93.8617 42.31 94.0724 42.5923C94.2829 42.8748 94.3882 43.3272 94.3882 43.9495V48.1575H96.3552V43.5617C96.3552 42.5182 96.142 41.7546 95.7162 41.2709C95.2902 40.7877 94.6274 40.5458 93.7279 40.5458Z" fill="#1C0083"/>
<path d="M103.146 40.8187C102.706 40.6368 102.102 40.5458 101.337 40.5458C100.734 40.5458 100.128 40.5959 99.5206 40.6965C98.9127 40.7971 98.3599 40.9386 97.8623 41.1203L98.1065 42.6426C98.566 42.4609 99.0541 42.3194 99.5709 42.2188C100.088 42.1184 100.585 42.0682 101.064 42.0682C101.428 42.0682 101.708 42.104 101.904 42.1758C102.1 42.2477 102.239 42.3748 102.32 42.5564C102.401 42.7383 102.442 42.9968 102.442 43.332H101.452C100.207 43.332 99.2478 43.5667 98.573 44.0357C97.8984 44.5049 97.5609 45.1703 97.5609 46.0319C97.5609 46.7213 97.7738 47.2719 98.1999 47.6836C98.6257 48.0953 99.2072 48.3011 99.9442 48.3011C100.432 48.3011 100.911 48.21 101.38 48.0283C101.849 47.8466 102.217 47.6023 102.485 47.2957H102.5L102.528 48.1575H104.409V43.4468C104.409 42.7287 104.309 42.1567 104.108 41.7306C103.907 41.3046 103.586 41.0006 103.146 40.8187ZM102.442 45.4719C102.442 45.721 102.363 45.9483 102.206 46.1541C102.048 46.3601 101.834 46.5201 101.567 46.6351C101.298 46.75 100.997 46.8075 100.662 46.8075C100.27 46.8075 99.9657 46.7213 99.7504 46.549C99.535 46.3767 99.4273 46.1375 99.4273 45.8309C99.4273 45.4194 99.6188 45.1152 100.002 44.9189C100.384 44.7228 100.964 44.6245 101.739 44.6245H102.442V45.4719Z" fill="#1C0083"/>
<path d="M113.454 40.6893H111.042L108.214 43.6767H108.185V37.6735H106.204V48.1575H108.185V44.883H108.214L111.171 48.1575H113.583L109.879 44.2797L113.454 40.6893Z" fill="#1C0083"/>
<path d="M119.843 40.8187C119.403 40.6368 118.8 40.5458 118.034 40.5458C117.431 40.5458 116.826 40.5959 116.218 40.6965C115.61 40.7971 115.057 40.9386 114.56 41.1203L114.804 42.6426C115.263 42.4609 115.751 42.3194 116.268 42.2188C116.785 42.1184 117.283 42.0682 117.761 42.0682C118.125 42.0682 118.405 42.104 118.601 42.1758C118.797 42.2477 118.936 42.3748 119.018 42.5564C119.099 42.7383 119.14 42.9968 119.14 43.332H118.149C116.905 43.332 115.945 43.5667 115.27 44.0357C114.596 44.5049 114.258 45.1703 114.258 46.0319C114.258 46.7213 114.471 47.2719 114.897 47.6836C115.323 48.0953 115.904 48.3011 116.642 48.3011C117.13 48.3011 117.608 48.21 118.077 48.0283C118.546 47.8466 118.915 47.6023 119.183 47.2957H119.197L119.226 48.1575H121.107V43.4468C121.107 42.7287 121.006 42.1567 120.805 41.7306C120.604 41.3046 120.283 41.0006 119.843 40.8187ZM119.14 45.4719C119.14 45.721 119.061 45.9483 118.903 46.1541C118.745 46.3601 118.532 46.5201 118.264 46.6351C117.996 46.75 117.694 46.8075 117.359 46.8075C116.967 46.8075 116.663 46.7213 116.448 46.549C116.232 46.3767 116.125 46.1375 116.125 45.8309C116.125 45.4194 116.316 45.1152 116.699 44.9189C117.082 44.7228 117.661 44.6245 118.436 44.6245H119.14V45.4719Z" fill="#1C0083"/>
<path d="M125.744 38.2479H123.763V40.6893H122.14V42.2261H123.763V45.9601C123.763 46.793 123.961 47.3915 124.358 47.7554C124.756 48.1194 125.404 48.3011 126.304 48.3011C126.62 48.3011 126.926 48.2795 127.223 48.2364C127.519 48.1934 127.831 48.124 128.156 48.0283L127.998 46.4629C127.807 46.5299 127.598 46.5827 127.373 46.6207C127.149 46.6592 126.936 46.6782 126.735 46.6782C126.361 46.6782 126.103 46.5899 125.959 46.4126C125.816 46.2354 125.744 45.9221 125.744 45.4719V42.2261H128.17V40.6893H125.744V38.2479Z" fill="#1C0083"/>
<path d="M134.847 40.8187C134.406 40.6368 133.803 40.5458 133.037 40.5458C132.434 40.5458 131.829 40.5959 131.221 40.6965C130.613 40.7971 130.06 40.9386 129.563 41.1203L129.807 42.6426C130.267 42.4609 130.755 42.3194 131.271 42.2188C131.788 42.1184 132.286 42.0682 132.765 42.0682C133.128 42.0682 133.408 42.104 133.605 42.1758C133.801 42.2477 133.939 42.3748 134.021 42.5564C134.102 42.7383 134.143 42.9968 134.143 43.332H133.152C131.908 43.332 130.948 43.5667 130.274 44.0357C129.599 44.5049 129.261 45.1703 129.261 46.0319C129.261 46.7213 129.474 47.2719 129.9 47.6836C130.326 48.0953 130.908 48.3011 131.645 48.3011C132.133 48.3011 132.611 48.21 133.081 48.0283C133.549 47.8466 133.918 47.6023 134.186 47.2957H134.2L134.229 48.1575H136.11V43.4468C136.11 42.7287 136.009 42.1567 135.808 41.7306C135.607 41.3046 135.287 41.0006 134.847 40.8187ZM134.143 45.4719C134.143 45.721 134.064 45.9483 133.906 46.1541C133.748 46.3601 133.535 46.5201 133.267 46.6351C132.999 46.75 132.698 46.8075 132.363 46.8075C131.97 46.8075 131.666 46.7213 131.451 46.549C131.236 46.3767 131.128 46.1375 131.128 45.8309C131.128 45.4194 131.319 45.1152 131.702 44.9189C132.085 44.7228 132.664 44.6245 133.439 44.6245H134.143V45.4719Z" fill="#1C0083"/>
<path d="M150.697 37.6735H148.256L143.977 42.2116H143.949V37.6735H141.939V48.1575H143.949V43.1884H143.977L148.399 48.1575H150.84L145.987 42.7001L150.697 37.6735Z" fill="#1C0083"/>
<path d="M154.2 40.7899H152.19V48.1575H154.2V40.7899Z" fill="#1C0083"/>
<path d="M154.2 37.6735H152.19V39.4973H154.2V37.6735Z" fill="#1C0083"/>
<path d="M161.306 41.5655H161.278C160.981 41.2209 160.639 40.9647 160.251 40.7971C159.864 40.6296 159.426 40.5458 158.938 40.5458C157.942 40.5458 157.172 40.8856 156.626 41.5655C156.081 42.2453 155.808 43.198 155.808 44.4234C155.808 45.6492 156.081 46.6017 156.626 47.2815C157.172 47.9614 157.942 48.3011 158.938 48.3011C159.426 48.3011 159.876 48.215 160.287 48.0427C160.699 47.8702 161.053 47.6168 161.35 47.2815H161.378L161.407 48.1575H163.273V37.6735H161.306V41.5655ZM161.306 45.084C161.306 45.3999 161.228 45.68 161.07 45.9243C160.912 46.1683 160.699 46.3623 160.431 46.5059C160.163 46.6496 159.857 46.7213 159.512 46.7213C158.947 46.7213 158.512 46.5227 158.205 46.1252C157.899 45.7282 157.746 45.1609 157.746 44.4234C157.746 43.6862 157.899 43.119 158.205 42.7215C158.512 42.3245 158.947 42.1255 159.512 42.1255C159.857 42.1255 160.163 42.1974 160.431 42.3411C160.699 42.4845 160.912 42.6785 161.07 42.9227C161.228 43.1667 161.306 43.4468 161.306 43.7628V45.084Z" fill="#1C0083"/>
<path d="M170.251 44.4737C169.993 44.2776 169.681 44.1074 169.318 43.9638C168.954 43.8203 168.547 43.6959 168.098 43.5905C167.753 43.5139 167.485 43.4374 167.294 43.3607C167.102 43.2841 166.968 43.198 166.892 43.1022C166.815 43.0067 166.777 42.8917 166.777 42.7574C166.777 42.5276 166.892 42.3579 167.121 42.2477C167.351 42.1377 167.705 42.0824 168.184 42.0824C168.557 42.0824 168.94 42.1161 169.332 42.183C169.725 42.2501 170.131 42.3553 170.553 42.4989L170.797 40.991C170.356 40.8474 169.885 40.7374 169.382 40.6606C168.88 40.5841 168.394 40.5458 167.925 40.5458C166.901 40.5458 166.121 40.7277 165.585 41.0914C165.049 41.4555 164.781 41.9916 164.781 42.7001C164.781 43.1404 164.896 43.5139 165.126 43.8203C165.355 44.1269 165.688 44.3827 166.123 44.5887C166.559 44.7947 167.083 44.9742 167.696 45.1273C168.049 45.204 168.325 45.283 168.521 45.3641C168.717 45.4456 168.853 45.5342 168.93 45.6297C169.007 45.7257 169.045 45.8502 169.045 46.0032C169.045 46.2617 168.935 46.4535 168.715 46.5777C168.495 46.7022 168.145 46.7644 167.667 46.7644C167.245 46.7644 166.822 46.7213 166.396 46.6351C165.97 46.549 165.528 46.4246 165.068 46.2617L164.824 47.7698C165.082 47.8752 165.384 47.9686 165.729 48.0497C166.073 48.1312 166.434 48.1934 166.813 48.2364C167.191 48.2795 167.547 48.3011 167.882 48.3011C168.533 48.3011 169.095 48.21 169.569 48.0283C170.043 47.8466 170.409 47.5854 170.668 47.2454C170.926 46.9059 171.055 46.5059 171.055 46.0463C171.055 45.7113 170.986 45.4144 170.847 45.1559C170.708 44.8974 170.509 44.67 170.251 44.4737Z" fill="#1C0083"/>
<path d="M182.986 44.1363C182.986 44.9884 182.811 45.6011 182.462 45.9746C182.112 46.3478 181.536 46.5346 180.732 46.5346C179.928 46.5346 179.351 46.3478 179.001 45.9746C178.652 45.6011 178.477 44.9884 178.477 44.1363V37.6735H176.468V44.524C176.468 45.759 176.829 46.6975 177.552 47.3388C178.274 47.9803 179.334 48.3011 180.732 48.3011C182.139 48.3011 183.201 47.9803 183.919 47.3388C184.637 46.6975 184.996 45.759 184.996 44.524V37.6735H182.986V44.1363Z" fill="#1C0083"/>
<path d="M191.385 40.5458C190.848 40.5458 190.377 40.6296 189.97 40.7971C189.564 40.9647 189.207 41.2209 188.901 41.5655H188.872L188.858 40.6893H186.977V48.1575H188.958V43.7628C188.958 43.4468 189.032 43.1718 189.181 42.9369C189.329 42.7025 189.537 42.5157 189.805 42.3769C190.073 42.2383 190.38 42.1685 190.724 42.1685C191.184 42.1685 191.518 42.31 191.729 42.5923C191.94 42.8748 192.045 43.3272 192.045 43.9495V48.1575H194.012V43.5617C194.012 42.5182 193.799 41.7546 193.373 41.2709C192.947 40.7877 192.284 40.5458 191.385 40.5458Z" fill="#1C0083"/>
<path d="M197.917 37.6735H195.907V39.4973H197.917V37.6735Z" fill="#1C0083"/>
<path d="M197.917 40.7899H195.907V48.1575H197.917V40.7899Z" fill="#1C0083"/>
<path d="M202.999 46.8361H202.971L201.219 40.6893H199.123L201.593 48.1575H204.363L206.833 40.6893H204.737L202.999 46.8361Z" fill="#1C0083"/>
<path d="M211.154 40.5458C209.996 40.5458 209.087 40.8905 208.426 41.5799C207.766 42.2691 207.436 43.217 207.436 44.4234C207.436 45.6682 207.797 46.6258 208.52 47.2957C209.242 47.9661 210.274 48.3011 211.614 48.3011C212.092 48.3011 212.568 48.2602 213.042 48.1791C213.516 48.0978 213.93 47.9852 214.284 47.8415L214.054 46.3336C213.7 46.4677 213.293 46.573 212.834 46.6496C212.375 46.7264 211.939 46.7644 211.528 46.7644C210.8 46.7644 210.259 46.6065 209.905 46.2905C209.612 46.0293 209.443 45.6449 209.392 45.1415H214.629C214.638 45.0553 214.645 44.9261 214.65 44.7538C214.655 44.5815 214.657 44.4284 214.657 44.2942C214.657 43.0974 214.353 42.1736 213.746 41.5224C213.138 40.8714 212.274 40.5458 211.154 40.5458ZM211.154 41.982C211.719 41.982 212.138 42.1639 212.411 42.5276C212.63 42.82 212.759 43.238 212.802 43.7772H209.396C209.447 43.2556 209.587 42.8452 209.819 42.5492C210.116 42.1711 210.561 41.982 211.154 41.982Z" fill="#1C0083"/>
<path d="M218.972 41.2423C218.632 41.4673 218.337 41.7474 218.089 42.0824H218.045L218.031 40.6893H216.136V48.1575H218.132V44.7107C218.132 44.2511 218.275 43.8324 218.562 43.454C218.849 43.0759 219.237 42.7769 219.725 42.5564C220.214 42.3362 220.754 42.2261 221.348 42.2261V40.5458C220.917 40.5458 220.498 40.6057 220.092 40.7254C219.685 40.8452 219.311 41.0175 218.972 41.2423Z" fill="#1C0083"/>
<path d="M227.593 44.4737C227.335 44.2776 227.023 44.1074 226.66 43.9638C226.296 43.8203 225.889 43.6959 225.439 43.5905C225.095 43.5139 224.827 43.4374 224.635 43.3607C224.444 43.2841 224.31 43.198 224.233 43.1022C224.157 43.0067 224.119 42.8917 224.119 42.7574C224.119 42.5276 224.233 42.3579 224.463 42.2477C224.693 42.1377 225.047 42.0824 225.526 42.0824C225.899 42.0824 226.282 42.1161 226.674 42.183C227.066 42.2501 227.473 42.3553 227.894 42.4989L228.139 40.991C227.698 40.8474 227.227 40.7374 226.724 40.6606C226.222 40.5841 225.736 40.5458 225.267 40.5458C224.243 40.5458 223.463 40.7277 222.927 41.0914C222.391 41.4555 222.123 41.9916 222.123 42.7001C222.123 43.1404 222.238 43.5139 222.467 43.8203C222.697 44.1269 223.03 44.3827 223.465 44.5887C223.901 44.7947 224.425 44.9742 225.037 45.1273C225.391 45.204 225.667 45.283 225.863 45.3641C226.059 45.4456 226.195 45.5342 226.272 45.6297C226.349 45.7257 226.387 45.8502 226.387 46.0032C226.387 46.2617 226.277 46.4535 226.057 46.5777C225.836 46.7022 225.487 46.7644 225.009 46.7644C224.587 46.7644 224.164 46.7213 223.738 46.6351C223.312 46.549 222.869 46.4246 222.41 46.2617L222.166 47.7698C222.424 47.8752 222.726 47.9686 223.071 48.0497C223.415 48.1312 223.776 48.1934 224.155 48.2364C224.532 48.2795 224.889 48.3011 225.224 48.3011C225.875 48.3011 226.437 48.21 226.911 48.0283C227.385 47.8466 227.751 47.5854 228.009 47.2454C228.268 46.9059 228.397 46.5059 228.397 46.0463C228.397 45.7113 228.328 45.4144 228.189 45.1559C228.05 44.8974 227.851 44.67 227.593 44.4737Z" fill="#1C0083"/>
<path d="M232.001 37.6735H229.991V39.4973H232.001V37.6735Z" fill="#1C0083"/>
<path d="M232.001 40.7899H229.991V48.1575H232.001V40.7899Z" fill="#1C0083"/>
<path d="M236.94 38.2479H234.958V40.6893H233.336V42.2261H234.958V45.9601C234.958 46.793 235.157 47.3915 235.554 47.7554C235.951 48.1194 236.6 48.3011 237.499 48.3011C237.815 48.3011 238.122 48.2795 238.418 48.2364C238.715 48.1934 239.026 48.124 239.351 48.0283L239.193 46.4629C239.002 46.5299 238.794 46.5827 238.569 46.6207C238.344 46.6592 238.131 46.6782 237.93 46.6782C237.557 46.6782 237.299 46.5899 237.155 46.4126C237.011 46.2354 236.94 45.9221 236.94 45.4719V42.2261H239.366V40.6893H236.94V38.2479Z" fill="#1C0083"/>
<path d="M245.913 40.6893L244.089 46.2186H244.061L242.252 40.6893L240.141 40.7037L243.084 48.1144L241.85 51.1735H243.932L248.038 40.6893H245.913Z" fill="#1C0083"/>
</svg>
