<svg width="219" height="151" viewBox="0 0 219 151" fill="none" xmlns="http://www.w3.org/2000/svg">
<path d="M101.358 22.5863L88.6433 7.42871L83.7871 11.5054L96.5033 26.6651C97.8444 25.0169 99.4917 23.629 101.358 22.5863Z" fill="#E865A1"/>
<path d="M122.497 26.6651L135.213 11.5054L130.357 7.42871L117.642 22.5863C119.508 23.629 121.156 25.0169 122.497 26.6651Z" fill="#9982BB"/>
<path d="M112.67 20.7715V0.989258H106.33V20.7715C107.357 20.574 108.416 20.4667 109.5 20.4667C110.584 20.4667 111.643 20.574 112.67 20.7715Z" fill="#F1B940"/>
<path d="M109.5 24.9966C105.442 24.9966 101.842 26.9858 99.6172 30.0389L104.219 34.6422C105.178 32.689 107.182 31.3381 109.5 31.3381C111.818 31.3381 113.822 32.689 114.781 34.6422L119.383 30.0389C117.158 26.9858 113.558 24.9966 109.5 24.9966Z" fill="#F1B940"/>
<path d="M142.945 53.4967C146.713 47.4554 148.895 40.3262 148.895 32.6959V13.6719H142.555V32.6959C142.555 37.2921 141.611 41.6712 139.909 45.6523L142.945 53.4967Z" fill="#17A6A9"/>
<path d="M130.272 58.3921C124.592 62.9964 117.364 65.7624 109.5 65.7624C101.636 65.7624 94.4085 62.9965 88.7277 58.3922L86.3428 64.5553C92.8475 69.2996 100.852 72.1039 109.5 72.1039C118.148 72.1039 126.153 69.2995 132.657 64.5552L130.272 58.3921Z" fill="#17A6A9"/>
<path d="M79.0908 45.6521C77.3893 41.6712 76.4448 37.2921 76.4448 32.6959V13.6719H70.1055V32.6959C70.1055 40.3262 72.287 47.4553 76.0554 53.4965L79.0908 45.6521Z" fill="#17A6A9"/>
<path d="M71.1239 93.8466L92.5868 38.3806L107.259 53.0577C108.497 54.2954 110.503 54.2954 111.742 53.0577L126.413 38.3806L147.876 93.8466H154.674L130.569 31.5521C130.182 30.5524 129.316 29.8159 128.267 29.5947C127.219 29.3727 126.129 29.6965 125.371 30.4546L109.5 46.3314L93.6291 30.4546C92.8707 29.6969 91.7825 29.3722 90.7331 29.5947C89.6842 29.8159 88.8184 30.5524 88.4315 31.5521L64.3258 93.8466H71.1239Z" fill="white"/>
<path d="M43.1891 124.974V117.261C43.5422 117.27 43.8918 117.279 44.2347 117.291C45.4241 117.332 46.552 117.394 47.6185 117.475L47.791 114.595C46.5766 114.513 45.3381 114.452 44.0748 114.411C42.8115 114.37 41.4496 114.349 39.9898 114.349V123.177C39.8249 123.115 39.6603 123.054 39.4977 123.002C38.6937 122.748 37.8979 122.621 37.1105 122.621C35.1911 122.621 33.7022 123.052 32.6439 123.913C31.5857 124.775 31.0567 125.977 31.0567 127.52C31.0567 129.046 31.5772 130.244 32.6194 131.114C33.661 131.983 35.1086 132.418 36.9628 132.418C39.0301 132.418 40.5842 131.946 41.6262 131.003C42.3094 130.384 42.7642 129.569 42.9994 128.565C43.7954 129.307 44.7431 130.221 45.8468 131.31L47.8401 129.12C46.7242 127.987 45.6868 127.011 44.7271 126.19C44.199 125.739 43.6873 125.336 43.1891 124.974ZM39.9898 127.15C39.9898 127.971 39.7353 128.599 39.2269 129.033C38.7182 129.468 37.9634 129.686 36.9628 129.686C36.044 129.686 35.351 129.497 34.8835 129.12C34.4159 128.742 34.182 128.176 34.182 127.421C34.182 126.682 34.4159 126.137 34.8835 125.784C35.351 125.431 36.0931 125.255 37.1105 125.255C37.668 125.255 38.189 125.328 38.6731 125.476C39.0675 125.596 39.5081 125.812 39.9898 126.112L39.9898 127.15Z" fill="white"/>
<path d="M32.2947 117.229H37.8488V114.349H32.991C33.2333 113.3 33.4664 112.241 33.6899 111.173L30.5646 110.878C30.3144 112.055 30.0524 113.211 29.7812 114.349H25.3966V117.229H29.0604C28.573 119.093 28.0546 120.932 27.5007 122.744C26.9181 124.648 26.274 126.568 25.5688 128.504L28.5958 129.39C29.3176 127.421 29.9777 125.444 30.5769 123.458C31.1756 121.472 31.7334 119.457 32.2501 117.414C32.2655 117.353 32.2793 117.29 32.2947 117.229Z" fill="white"/>
<path d="M94.4992 129.046C93.7117 129.128 92.9323 129.169 92.1614 129.169C91.3573 129.169 90.6516 129.091 90.0449 128.935C89.4377 128.779 88.9701 128.57 88.6422 128.307C88.3138 128.045 88.1501 127.741 88.1501 127.397C88.1501 127.101 88.2975 126.781 88.5928 126.437C88.8881 126.092 89.3311 125.739 89.9218 125.378L87.2887 123.827C86.4027 124.5 85.7506 125.153 85.3322 125.784C84.9137 126.416 84.7047 127.06 84.7047 127.717C84.7047 128.619 85.008 129.399 85.6152 130.055C86.2219 130.712 87.0833 131.22 88.1992 131.582C89.3146 131.942 90.6356 132.123 92.1614 132.123C93.0471 132.123 93.9042 132.082 94.7328 132C95.5611 131.918 96.4348 131.795 97.3537 131.631L96.9846 128.677C96.1149 128.841 95.2866 128.964 94.4992 129.046Z" fill="white"/>
<path d="M93.8839 114.054H84.1241C84.2562 113.1 84.3785 112.147 84.4833 111.198L81.2101 111.051C81.0823 112.06 80.9415 113.06 80.793 114.054H76.4113V116.934H80.3308C80.2522 117.391 80.1735 117.847 80.0904 118.301C79.6554 120.672 79.1633 122.994 78.614 125.267C78.064 127.54 77.453 129.784 76.7806 132L80.0536 132.591C80.7425 130.293 81.37 127.955 81.9361 125.575C82.5022 123.196 83.0024 120.799 83.4373 118.387C83.5247 117.902 83.606 117.418 83.6864 116.934H93.8839V114.054Z" fill="white"/>
<path d="M85.7137 119.445L85.886 122.35C87.7888 122.153 89.6673 122.009 91.5213 121.919C93.3753 121.829 95.2209 121.783 97.0583 121.783V118.903C95.1881 118.903 93.3136 118.952 91.4353 119.051C89.5565 119.149 87.6494 119.281 85.7137 119.445Z" fill="white"/>
<path d="M139.794 116.639L141.984 115.531C141.558 114.645 141.131 113.824 140.705 113.069C140.278 112.314 139.794 111.592 139.253 110.903L137.112 112.134C137.637 112.839 138.108 113.545 138.527 114.251C138.945 114.957 139.368 115.752 139.794 116.639Z" fill="white"/>
<path d="M143.067 109.918L140.951 111.051C141.443 111.756 141.886 112.47 142.28 113.192C142.674 113.915 143.067 114.727 143.461 115.629L145.651 114.62C145.258 113.734 144.859 112.909 144.458 112.146C144.055 111.383 143.592 110.641 143.067 109.918Z" fill="white"/>
<path d="M185.889 122.116C185.455 121.035 185.155 119.881 184.985 118.657H193.8V115.777H184.818V110.952H181.471V115.777H172.489V118.657H181.304C181.134 119.881 180.834 121.035 180.401 122.116C179.687 123.897 178.629 125.485 177.226 126.88C175.823 128.275 174.096 129.473 172.046 130.474L173.842 133.009C175.417 132.304 176.873 131.368 178.21 130.203C179.547 129.038 180.712 127.713 181.705 126.227C182.316 125.313 182.841 124.356 183.281 123.358C183.707 124.356 184.215 125.313 184.806 126.227C185.765 127.713 186.897 129.038 188.202 130.203C189.506 131.368 190.921 132.304 192.447 133.009L194.243 130.474C192.192 129.473 190.466 128.275 189.063 126.88C187.66 125.485 186.602 123.897 185.889 122.116Z" fill="white"/>
<path d="M210.458 124.171C211.034 123.758 211.586 123.344 212.109 122.928C213.028 122.198 213.914 121.423 214.767 120.602V117.918H200.74V120.602H210.719C210.588 120.704 210.459 120.807 210.325 120.91C209.649 121.43 208.966 121.926 208.277 122.399H206.523V124.171H196.507V126.953H206.523V129.563C206.523 129.842 206.511 130.035 206.486 130.141C206.462 130.248 206.384 130.318 206.252 130.35C206.121 130.383 205.899 130.399 205.588 130.399C205.293 130.399 204.829 130.387 204.198 130.363C203.566 130.338 202.799 130.309 201.897 130.277L202.044 133.034C203.045 133.066 203.865 133.091 204.505 133.107C205.145 133.124 205.662 133.132 206.056 133.132C206.942 133.132 207.643 133.103 208.16 133.046C208.677 132.988 209.058 132.861 209.304 132.664C209.55 132.467 209.71 132.164 209.784 131.753C209.858 131.343 209.895 130.785 209.895 130.079V126.953H219V124.171H210.458Z" fill="white"/>
<path d="M200.396 116.442H215.112V120.134H218.262V113.906H215.113C215.19 113.771 215.271 113.636 215.345 113.5C215.747 112.77 216.112 112.052 216.441 111.346L213.512 110.657C213.184 111.362 212.819 112.076 212.417 112.798C212.21 113.17 211.998 113.539 211.78 113.906H209.639C209.429 113.455 209.213 113.007 208.984 112.564C208.607 111.834 208.221 111.141 207.827 110.484L204.973 111.518C205.366 112.175 205.752 112.868 206.129 113.598C206.182 113.7 206.23 113.804 206.282 113.906H203.768C203.586 113.527 203.397 113.149 203.201 112.774C202.823 112.052 202.438 111.371 202.044 110.73L199.19 111.764C199.583 112.404 199.969 113.086 200.346 113.808C200.364 113.84 200.379 113.873 200.396 113.906H197.246V120.134H200.396V116.442Z" fill="white"/>
<path d="M14.2488 113.734H9.20385V111.1H6.00461V113.734H0.418427V116.515H14.2488V113.734Z" fill="white"/>
<path d="M16.9065 113.241L15.2824 115.801C16.2993 116.278 17.3409 116.86 18.4077 117.549C19.4739 118.238 20.4748 118.961 21.4099 119.716L23.0588 117.205C22.1071 116.433 21.094 115.699 20.0195 115.001C18.945 114.304 17.907 113.717 16.9065 113.241Z" fill="white"/>
<path d="M20.9177 125.796C20.8195 125.238 20.6878 124.574 20.5241 123.802C20.3599 123.031 20.1466 122.103 19.8841 121.02L16.8573 121.636C17.0541 122.522 17.2221 123.281 17.3618 123.913C17.5009 124.545 17.616 125.087 17.7062 125.538C17.7962 125.989 17.8579 126.375 17.891 126.695C17.9236 127.015 17.9401 127.29 17.9401 127.519C17.9401 127.897 17.8579 128.217 17.6939 128.479C17.5297 128.742 17.255 128.943 16.8696 129.083C16.484 129.222 15.9548 129.325 15.2824 129.39C14.6095 129.456 13.7566 129.489 12.723 129.489C11.5086 129.489 10.582 129.464 9.94218 129.415C9.30238 129.366 8.8674 129.267 8.63776 129.12C8.40785 128.972 8.29329 128.767 8.29329 128.504C8.29329 128.356 8.32186 128.164 8.37954 127.925C8.43669 127.688 8.50638 127.421 8.58862 127.125C8.78542 126.502 8.93709 125.87 9.0439 125.23C9.15044 124.59 9.20385 123.819 9.20385 122.916V117.336H6.00461V118.064C5.91444 118.023 5.82442 117.979 5.73385 117.943C5.15948 117.714 4.57736 117.599 3.9867 117.599C2.70711 117.599 1.72258 118.034 1.03366 118.903C0.344463 119.773 0 121.029 0 122.67C0 124.278 0.344464 125.529 1.03366 126.424C1.72258 127.319 2.674 127.765 3.88816 127.765C4.44792 127.765 4.93252 127.67 5.34427 127.483C5.26245 127.817 5.14854 128.18 4.99579 128.578C4.86415 128.939 4.77816 129.235 4.73731 129.464C4.69619 129.694 4.67589 129.924 4.67589 130.154C4.67589 130.597 4.79872 130.97 5.04492 131.274C5.29112 131.577 5.71329 131.811 6.31223 131.975C6.9109 132.139 7.7312 132.258 8.77314 132.332C9.81481 132.406 11.1315 132.443 12.723 132.443C14.3799 132.443 15.758 132.377 16.8573 132.246C17.9562 132.114 18.8219 131.897 19.4536 131.594C20.0849 131.29 20.5364 130.872 20.8069 130.338C21.0777 129.805 21.2131 129.136 21.2131 128.332C21.2131 128.004 21.1885 127.639 21.1394 127.236C21.09 126.834 21.0163 126.354 20.9177 125.796ZM5.85695 124.577C5.59446 124.98 5.17603 125.181 4.60192 125.181C3.97815 125.181 3.51486 124.971 3.21152 124.553C2.90764 124.135 2.75624 123.499 2.75624 122.645C2.75624 121.775 2.90764 121.131 3.21152 120.713C3.51486 120.294 3.97815 120.085 4.60192 120.085C5.17603 120.085 5.59446 120.29 5.85695 120.7C6.11917 121.111 6.25081 121.759 6.25081 122.645C6.25081 123.531 6.11917 124.176 5.85695 124.577Z" fill="white"/>
<path d="M113.509 119.584C114.45 118.963 115.351 118.331 116.203 117.685C117.491 116.709 118.742 115.654 119.956 114.522V111.715H103.296V114.522H115.832C115.377 114.9 114.92 115.271 114.456 115.629C113.382 116.458 112.228 117.261 111.004 118.042H110.137V120.873H100.096V123.729H110.137V128.8C110.137 129.161 110.121 129.424 110.088 129.588C110.055 129.752 109.961 129.85 109.805 129.883C109.649 129.916 109.39 129.932 109.03 129.932C108.701 129.932 108.238 129.924 107.639 129.908C107.04 129.892 106.306 129.867 105.437 129.834L105.584 132.616C106.52 132.648 107.319 132.677 107.984 132.702C108.648 132.726 109.202 132.739 109.645 132.739C110.531 132.739 111.232 132.697 111.749 132.616C112.266 132.533 112.647 132.365 112.893 132.111C113.139 131.856 113.303 131.454 113.386 130.905C113.468 130.355 113.509 129.621 113.509 128.701V123.729H122.737V120.873H113.509V119.584Z" fill="white"/>
<path d="M58.6555 118.444H55.3651C55.286 118.779 55.2059 119.109 55.1246 119.433C54.8127 120.672 54.4725 121.894 54.1032 123.101C53.7342 124.307 53.3158 125.575 52.8482 126.904C52.3806 128.233 51.8431 129.686 51.2364 131.261L54.2632 132.221C54.8864 130.63 55.4445 129.136 55.9366 127.741C56.4287 126.346 56.8717 125 57.2656 123.704C57.6592 122.408 58.0162 121.107 58.3361 119.802C58.4453 119.357 58.5511 118.902 58.6555 118.444Z" fill="white"/>
<path d="M72.9293 119.531C72.642 118.407 72.3344 117.312 72.0065 116.245C71.6781 115.178 71.3336 114.186 70.9728 113.266L67.8721 114.103C68.2166 114.973 68.5525 115.933 68.881 116.983C69.2091 118.034 69.5207 119.125 69.8161 120.257C70.1114 121.39 70.3736 122.51 70.6035 123.618C70.8332 124.725 71.0134 125.764 71.1451 126.732L74.2949 126.067C74.1472 125.066 73.9545 124.008 73.7168 122.892C73.4786 121.776 73.2161 120.656 72.9293 119.531Z" fill="white"/>
<path d="M67.023 116.688C66.7851 116.146 66.4323 115.736 65.9648 115.457C65.4972 115.178 64.8737 114.993 64.0945 114.903C63.3151 114.813 62.3351 114.767 61.1537 114.767H59.4156C59.6307 113.62 59.841 112.407 60.0464 111.124L56.8472 110.755C56.6123 112.205 56.3777 113.538 56.143 114.767H50.9902V117.623H61.4736C62.1134 117.623 62.6219 117.672 62.9994 117.771C63.3767 117.869 63.6595 118.066 63.8486 118.362C64.0368 118.657 64.1642 119.084 64.2299 119.642C64.2953 120.2 64.3284 120.938 64.3284 121.857C64.3284 123.466 64.2545 124.766 64.1068 125.759C63.9591 126.752 63.7292 127.47 63.4179 127.913C63.106 128.356 62.6956 128.578 62.1874 128.578C61.9575 128.578 61.6293 128.537 61.2029 128.455C60.7762 128.373 60.3086 128.262 59.8002 128.123C59.2915 127.983 58.7748 127.831 58.2498 127.667L57.5115 130.449C58.1513 130.662 58.8197 130.859 59.5171 131.039C60.2143 131.22 60.883 131.363 61.5228 131.47C62.1628 131.577 62.6956 131.63 63.1225 131.63C64.1722 131.63 65.0296 131.298 65.6943 130.633C66.3586 129.969 66.8465 128.947 67.1584 127.569C67.4697 126.19 67.6259 124.417 67.6259 122.251C67.6259 120.906 67.5848 119.777 67.5028 118.866C67.4206 117.955 67.2606 117.229 67.023 116.688Z" fill="white"/>
<path d="M139.29 129.316C138.33 129.432 137.477 129.518 136.73 129.575C135.984 129.633 135.266 129.661 134.577 129.661C132.51 129.661 130.96 129.452 129.926 129.033C128.892 128.615 128.376 127.897 128.376 126.879C128.376 126.01 128.868 125.173 129.852 124.368C130.837 123.565 132.35 122.789 134.393 122.042C136.435 121.295 139.039 120.545 142.206 119.789L141.443 116.835C137.604 117.771 134.47 118.752 132.042 119.777C129.614 120.803 127.822 121.927 126.665 123.15C125.508 124.373 124.93 125.722 124.93 127.2C124.93 129.087 125.73 130.461 127.33 131.323C128.929 132.184 131.28 132.615 134.38 132.615C135.66 132.615 137.026 132.545 138.478 132.406C139.93 132.266 141.451 132.065 143.043 131.803L142.649 128.849C141.369 129.046 140.25 129.202 139.29 129.316Z" fill="white"/>
<path d="M129.15 120.275C129.919 119.839 130.778 119.421 131.723 119.021C131.909 118.943 132.101 118.865 132.295 118.787C132.077 117.961 131.877 117.134 131.698 116.306C131.37 114.788 131.107 113.266 130.91 111.74L127.539 112.257C127.736 113.767 127.998 115.301 128.326 116.86C128.562 117.981 128.838 119.12 129.15 120.275Z" fill="white"/>
<path d="M169.117 123.975L165.918 124.689C166 124.951 166.074 125.292 166.14 125.71C166.205 126.129 166.238 126.486 166.238 126.781C166.238 127.389 166.094 127.873 165.807 128.234C165.52 128.595 165.024 128.853 164.319 129.009C163.613 129.165 162.653 129.243 161.439 129.243C160.504 129.243 159.745 129.198 159.163 129.108C158.58 129.018 158.138 128.841 157.834 128.578C157.53 128.316 157.325 127.938 157.219 127.446C157.112 126.954 157.059 126.313 157.059 125.526C157.059 125.066 157.067 124.439 157.084 123.642C157.087 123.488 157.09 123.325 157.094 123.162H167.321V120.381H157.175C157.203 119.524 157.234 118.631 157.268 117.697C157.27 117.659 157.271 117.621 157.273 117.583H154.018C154.011 117.801 154.002 118.021 153.995 118.239C153.969 118.982 153.946 119.694 153.924 120.381H147.708V123.162H153.839C153.828 123.586 153.818 123.982 153.81 124.344C153.794 125.116 153.786 125.69 153.786 126.067C153.786 127.282 153.905 128.283 154.143 129.071C154.38 129.858 154.783 130.482 155.349 130.942C155.915 131.401 156.698 131.725 157.699 131.914C158.699 132.102 159.946 132.197 161.439 132.197C163.293 132.197 164.819 132.012 166.017 131.643C167.214 131.274 168.1 130.695 168.674 129.908C169.249 129.12 169.536 128.102 169.536 126.855C169.536 126.428 169.503 126.002 169.437 125.575C169.372 125.148 169.265 124.615 169.117 123.975Z" fill="white"/>
<path d="M158.646 116.762H166.829V113.98H157.419C157.463 112.993 157.507 112.055 157.551 111.173L154.278 111.1C154.237 112.023 154.197 112.984 154.156 113.98H148.2V116.762H158.646Z" fill="white"/>
<path d="M31.0434 144.181H31.0168L28.5442 138.489H26.2045V148.197H28.0657V141.415H28.0922L30.166 146.136H31.894L33.9678 141.415H33.9945V148.197H35.8556V138.489H33.5158L31.0434 144.181Z" fill="white"/>
<path d="M42.1699 145.351C42.1699 145.635 42.1034 145.887 41.9704 146.109C41.8376 146.331 41.6534 146.506 41.4188 146.634C41.1839 146.763 40.9114 146.827 40.6012 146.827C40.1935 146.827 39.8988 146.696 39.7173 146.435C39.5355 146.173 39.4447 145.755 39.4447 145.178V141.282H37.6235V145.537C37.6235 146.495 37.814 147.199 38.1951 147.651C38.576 148.104 39.1743 148.33 39.9897 148.33C40.4684 148.33 40.8892 148.252 41.2527 148.097C41.616 147.942 41.935 147.705 42.2098 147.386H42.2363L42.2628 148.197H44.0043V141.282H42.1699V145.351Z" fill="white"/>
<path d="M49.9199 141.149C49.4234 141.149 48.9871 141.226 48.6104 141.382C48.2337 141.537 47.9036 141.774 47.6201 142.093H47.5935L47.5802 141.282H45.8388V148.197H47.6733V144.128C47.6733 143.835 47.7417 143.58 47.8793 143.363C48.0166 143.146 48.2093 142.973 48.4576 142.844C48.7055 142.716 48.9893 142.651 49.3083 142.651C49.7337 142.651 50.0438 142.782 50.2389 143.044C50.4338 143.305 50.5313 143.724 50.5313 144.3V148.197H52.3525V143.941C52.3525 142.975 52.1552 142.268 51.7609 141.82C51.3665 141.373 50.7528 141.149 49.9199 141.149Z" fill="white"/>
<path d="M58.6402 141.402C58.2324 141.233 57.674 141.149 56.9652 141.149C56.4068 141.149 55.8461 141.195 55.2835 141.288C54.7206 141.382 54.2087 141.513 53.7481 141.681L53.9741 143.09C54.3996 142.922 54.8515 142.791 55.33 142.698C55.8087 142.605 56.2693 142.559 56.7126 142.559C57.0492 142.559 57.3084 142.592 57.4902 142.658C57.6717 142.725 57.8003 142.842 57.8758 143.011C57.9509 143.179 57.9887 143.418 57.9887 143.729H57.0714C55.9194 143.729 55.0309 143.946 54.4061 144.38C53.7815 144.815 53.469 145.431 53.469 146.229C53.469 146.867 53.6661 147.377 54.0606 147.758C54.4548 148.139 54.9932 148.33 55.6757 148.33C56.1276 148.33 56.5707 148.245 57.005 148.077C57.4392 147.909 57.7804 147.683 58.0286 147.399H58.0419L58.0684 148.197H59.8099V143.835C59.8099 143.17 59.7169 142.641 59.5308 142.246C59.3447 141.851 59.0476 141.57 58.6402 141.402ZM57.9887 145.71C57.9887 145.941 57.9156 146.151 57.7695 146.342C57.6232 146.533 57.4258 146.681 57.1779 146.787C56.9296 146.894 56.6504 146.947 56.3404 146.947C55.9769 146.947 55.6955 146.867 55.4962 146.707C55.2968 146.548 55.197 146.326 55.197 146.043C55.197 145.661 55.3743 145.38 55.7289 145.198C56.0831 145.016 56.6195 144.925 57.3374 144.925H57.9887V145.71Z" fill="white"/>
<path d="M68.1847 141.282H65.9514L63.3326 144.048H63.3061V138.489H61.4716V148.197H63.3061V145.165H63.3326L66.071 148.197H68.3043L64.8747 144.606L68.1847 141.282Z" fill="white"/>
<path d="M74.1003 141.402C73.6925 141.233 73.1341 141.149 72.4253 141.149C71.8669 141.149 71.3062 141.195 70.7435 141.288C70.1807 141.382 69.6688 141.513 69.2082 141.681L69.4342 143.09C69.8597 142.922 70.3116 142.791 70.7901 142.698C71.2688 142.605 71.7294 142.559 72.1727 142.559C72.5093 142.559 72.7685 142.592 72.9503 142.658C73.1318 142.725 73.2604 142.842 73.3358 143.011C73.4109 143.179 73.4488 143.418 73.4488 143.729H72.5315C71.3795 143.729 70.491 143.946 69.8662 144.38C69.2416 144.815 68.929 145.431 68.929 146.229C68.929 146.867 69.1262 147.377 69.5207 147.758C69.9149 148.139 70.4533 148.33 71.1358 148.33C71.5877 148.33 72.0308 148.245 72.4651 148.077C72.8993 147.909 73.2405 147.683 73.4887 147.399H73.502L73.5285 148.197H75.2699V143.835C75.2699 143.17 75.177 142.641 74.9908 142.246C74.8048 141.851 74.5077 141.57 74.1003 141.402ZM73.4488 145.71C73.4488 145.941 73.3757 146.151 73.2296 146.342C73.0833 146.533 72.8859 146.681 72.638 146.787C72.3897 146.894 72.1105 146.947 71.8005 146.947C71.437 146.947 71.1556 146.867 70.9563 146.707C70.7569 146.548 70.6571 146.326 70.6571 146.043C70.6571 145.661 70.8344 145.38 71.189 145.198C71.5432 145.016 72.0796 144.925 72.7975 144.925H73.4488V145.71Z" fill="white"/>
<path d="M79.5638 139.021H77.7293V141.282H76.2271V142.705H77.7293V146.162C77.7293 146.933 77.9131 147.487 78.2808 147.824C78.6486 148.161 79.2491 148.33 80.0821 148.33C80.3746 148.33 80.6582 148.31 80.933 148.27C81.2075 148.23 81.4957 148.166 81.797 148.077L81.6507 146.627C81.4734 146.69 81.2805 146.738 81.0725 146.774C80.8642 146.809 80.6671 146.827 80.4809 146.827C80.1354 146.827 79.8961 146.745 79.7632 146.581C79.6302 146.417 79.5638 146.127 79.5638 145.71V142.705H81.8102V141.282H79.5638L79.5638 139.021Z" fill="white"/>
<path d="M87.9918 141.402C87.584 141.233 87.0256 141.149 86.3168 141.149C85.7583 141.149 85.1977 141.195 84.635 141.288C84.0722 141.382 83.5603 141.513 83.0997 141.681L83.3257 143.09C83.7512 142.922 84.2031 142.791 84.6816 142.698C85.1602 142.605 85.6209 142.559 86.0642 142.559C86.4008 142.559 86.66 142.592 86.8418 142.658C87.0233 142.725 87.1519 142.842 87.2273 143.011C87.3024 143.179 87.3403 143.418 87.3403 143.729H86.423C85.271 143.729 84.3825 143.946 83.7577 144.38C83.133 144.815 82.8206 145.431 82.8206 146.229C82.8206 146.867 83.0177 147.377 83.4121 147.758C83.8064 148.139 84.3448 148.33 85.0273 148.33C85.4792 148.33 85.9223 148.245 86.3566 148.077C86.7908 147.909 87.132 147.683 87.3801 147.399H87.3935L87.42 148.197H89.1615V143.835C89.1615 143.17 89.0685 142.641 88.8823 142.246C88.6963 141.851 88.3992 141.57 87.9918 141.402ZM87.3403 145.71C87.3403 145.941 87.2672 146.151 87.1211 146.342C86.9747 146.533 86.7774 146.681 86.5295 146.787C86.2811 146.894 86.002 146.947 85.692 146.947C85.3285 146.947 85.0471 146.867 84.8478 146.707C84.6484 146.548 84.5486 146.326 84.5486 146.043C84.5486 145.661 84.7259 145.38 85.0805 145.198C85.4347 145.016 85.9711 144.925 86.689 144.925H87.3403V145.71Z" fill="white"/>
<path d="M102.667 138.489H100.408L96.446 142.691H96.4195V138.489H94.5583V148.197H96.4195V143.596H96.446L100.54 148.197H102.8L98.3071 143.144L102.667 138.489Z" fill="white"/>
<path d="M105.911 141.375H104.05V148.197H105.911V141.375Z" fill="white"/>
<path d="M105.911 138.489H104.05V140.178H105.911V138.489Z" fill="white"/>
<path d="M112.491 142.093H112.465C112.19 141.774 111.873 141.537 111.514 141.381C111.155 141.226 110.75 141.149 110.298 141.149C109.376 141.149 108.663 141.463 108.158 142.093C107.652 142.722 107.4 143.605 107.4 144.739C107.4 145.874 107.652 146.756 108.158 147.386C108.663 148.015 109.376 148.33 110.298 148.33C110.75 148.33 111.166 148.25 111.547 148.09C111.928 147.931 112.256 147.696 112.531 147.386H112.558L112.584 148.197H114.312V138.489H112.491V142.093ZM112.491 145.351C112.491 145.643 112.418 145.903 112.272 146.129C112.126 146.355 111.928 146.534 111.68 146.667C111.432 146.8 111.149 146.867 110.829 146.867C110.306 146.867 109.903 146.683 109.62 146.315C109.336 145.947 109.194 145.422 109.194 144.739C109.194 144.057 109.336 143.531 109.62 143.163C109.903 142.796 110.306 142.611 110.829 142.611C111.149 142.611 111.432 142.678 111.68 142.811C111.928 142.944 112.126 143.124 112.272 143.35C112.418 143.576 112.491 143.835 112.491 144.128V145.351Z" fill="white"/>
<path d="M120.773 144.786C120.534 144.604 120.246 144.447 119.909 144.314C119.572 144.181 119.195 144.066 118.779 143.968C118.46 143.897 118.212 143.826 118.035 143.755C117.857 143.684 117.733 143.605 117.662 143.516C117.591 143.428 117.556 143.321 117.556 143.197C117.556 142.984 117.662 142.827 117.875 142.725C118.088 142.623 118.415 142.572 118.859 142.572C119.204 142.572 119.559 142.603 119.922 142.665C120.285 142.727 120.662 142.824 121.052 142.957L121.278 141.561C120.87 141.428 120.434 141.326 119.969 141.255C119.503 141.184 119.054 141.149 118.619 141.149C117.671 141.149 116.949 141.317 116.453 141.654C115.956 141.991 115.708 142.488 115.708 143.144C115.708 143.551 115.814 143.897 116.027 144.181C116.24 144.465 116.548 144.702 116.951 144.892C117.354 145.083 117.839 145.249 118.407 145.391C118.734 145.462 118.989 145.535 119.171 145.61C119.353 145.686 119.479 145.768 119.55 145.856C119.621 145.945 119.656 146.06 119.656 146.202C119.656 146.441 119.554 146.619 119.35 146.734C119.146 146.849 118.823 146.907 118.38 146.907C117.99 146.907 117.598 146.867 117.204 146.787C116.809 146.707 116.399 146.592 115.974 146.441L115.748 147.838C115.987 147.935 116.266 148.022 116.586 148.097C116.905 148.172 117.239 148.23 117.589 148.27C117.939 148.31 118.269 148.33 118.58 148.33C119.182 148.33 119.703 148.245 120.141 148.077C120.58 147.909 120.919 147.667 121.158 147.352C121.398 147.038 121.517 146.668 121.517 146.242C121.517 145.932 121.453 145.657 121.325 145.418C121.196 145.178 121.012 144.968 120.773 144.786Z" fill="white"/>
<path d="M132.564 144.473C132.564 145.262 132.402 145.83 132.079 146.175C131.755 146.521 131.221 146.694 130.477 146.694C129.732 146.694 129.198 146.521 128.875 146.175C128.551 145.83 128.39 145.262 128.39 144.473V138.489H126.529V144.832C126.529 145.976 126.863 146.845 127.532 147.439C128.201 148.033 129.183 148.33 130.477 148.33C131.78 148.33 132.763 148.033 133.428 147.439C134.093 146.845 134.425 145.976 134.425 144.832V138.489H132.564V144.473Z" fill="white"/>
<path d="M140.34 141.149C139.844 141.149 139.408 141.226 139.031 141.382C138.654 141.537 138.324 141.774 138.041 142.093H138.014L138.001 141.282H136.259V148.197H138.094V144.128C138.094 143.835 138.162 143.58 138.3 143.363C138.437 143.146 138.63 142.973 138.878 142.844C139.126 142.716 139.41 142.651 139.729 142.651C140.154 142.651 140.464 142.782 140.659 143.044C140.854 143.305 140.952 143.724 140.952 144.3V148.197H142.773V143.941C142.773 142.975 142.576 142.268 142.181 141.82C141.787 141.373 141.173 141.149 140.34 141.149Z" fill="white"/>
<path d="M146.389 138.489H144.528V140.178H146.389V138.489Z" fill="white"/>
<path d="M146.389 141.375H144.528V148.197H146.389V141.375Z" fill="white"/>
<path d="M151.095 146.973H151.068L149.446 141.282H147.506L149.792 148.197H152.358L154.644 141.282H152.703L151.095 146.973Z" fill="white"/>
<path d="M158.645 141.149C157.573 141.149 156.731 141.468 156.12 142.106C155.508 142.745 155.202 143.622 155.202 144.739C155.202 145.892 155.537 146.779 156.206 147.399C156.875 148.02 157.83 148.33 159.071 148.33C159.514 148.33 159.955 148.292 160.393 148.217C160.832 148.141 161.215 148.037 161.543 147.904L161.33 146.508C161.003 146.632 160.626 146.73 160.2 146.801C159.775 146.872 159.372 146.907 158.991 146.907C158.317 146.907 157.816 146.761 157.489 146.468C157.217 146.226 157.06 145.87 157.013 145.404H161.862C161.871 145.324 161.878 145.205 161.882 145.045C161.887 144.886 161.889 144.744 161.889 144.62C161.889 143.512 161.607 142.656 161.045 142.053C160.482 141.45 159.682 141.149 158.645 141.149ZM158.645 142.479C159.168 142.479 159.556 142.647 159.808 142.984C160.011 143.255 160.131 143.642 160.171 144.141H157.018C157.064 143.658 157.194 143.278 157.409 143.004C157.683 142.654 158.096 142.479 158.645 142.479Z" fill="white"/>
<path d="M165.883 141.794C165.569 142.002 165.296 142.262 165.066 142.572H165.026L165.013 141.282H163.258V148.197H165.106V145.005C165.106 144.58 165.239 144.192 165.505 143.842C165.77 143.492 166.129 143.215 166.581 143.011C167.033 142.807 167.534 142.705 168.083 142.705V141.149C167.685 141.149 167.297 141.204 166.92 141.315C166.543 141.426 166.198 141.586 165.883 141.794Z" fill="white"/>
<path d="M173.866 144.786C173.627 144.604 173.339 144.447 173.002 144.314C172.665 144.181 172.288 144.066 171.872 143.968C171.553 143.897 171.305 143.826 171.127 143.755C170.95 143.684 170.826 143.605 170.755 143.516C170.684 143.428 170.649 143.321 170.649 143.197C170.649 142.984 170.755 142.827 170.968 142.725C171.181 142.623 171.508 142.572 171.952 142.572C172.297 142.572 172.652 142.603 173.015 142.665C173.378 142.727 173.755 142.824 174.145 142.957L174.371 141.561C173.963 141.428 173.527 141.326 173.062 141.255C172.596 141.184 172.147 141.149 171.712 141.149C170.764 141.149 170.042 141.317 169.546 141.654C169.049 141.991 168.801 142.488 168.801 143.144C168.801 143.551 168.907 143.897 169.12 144.181C169.333 144.465 169.641 144.702 170.044 144.892C170.447 145.083 170.932 145.249 171.5 145.391C171.827 145.462 172.082 145.535 172.264 145.61C172.446 145.686 172.572 145.768 172.643 145.856C172.714 145.945 172.749 146.06 172.749 146.202C172.749 146.441 172.647 146.619 172.443 146.734C172.24 146.849 171.916 146.907 171.473 146.907C171.083 146.907 170.691 146.867 170.297 146.787C169.902 146.707 169.492 146.592 169.067 146.441L168.841 147.838C169.08 147.935 169.359 148.022 169.679 148.097C169.998 148.172 170.332 148.23 170.682 148.27C171.032 148.31 171.362 148.33 171.673 148.33C172.275 148.33 172.796 148.245 173.234 148.077C173.673 147.909 174.012 147.667 174.251 147.352C174.491 147.038 174.61 146.668 174.61 146.242C174.61 145.932 174.546 145.657 174.418 145.418C174.289 145.178 174.105 144.968 173.866 144.786Z" fill="white"/>
<path d="M177.947 138.489H176.086V140.178H177.947V138.489Z" fill="white"/>
<path d="M177.947 141.375H176.086V148.197H177.947V141.375Z" fill="white"/>
<path d="M182.52 139.021H180.685V141.282H179.183V142.705H180.685V146.162C180.685 146.933 180.869 147.487 181.237 147.824C181.605 148.161 182.205 148.33 183.038 148.33C183.331 148.33 183.614 148.31 183.889 148.27C184.164 148.23 184.452 148.166 184.753 148.077L184.607 146.627C184.429 146.69 184.237 146.738 184.028 146.774C183.82 146.809 183.623 146.827 183.437 146.827C183.091 146.827 182.852 146.745 182.719 146.581C182.586 146.417 182.52 146.127 182.52 145.71V142.705H184.766V141.282H182.52V139.021Z" fill="white"/>
<path d="M190.828 141.282L189.14 146.401H189.113L187.438 141.282L185.484 141.295L188.209 148.157L187.066 150.989H188.994L192.796 141.282H190.828Z" fill="white"/>
</svg>
