<?xml version="1.0" encoding="UTF-8"?>
<svg id="_レイヤー_2" xmlns="http://www.w3.org/2000/svg" version="1.1" viewBox="0 0 1323.7 1360">
  <!-- Generator: Adobe Illustrator 29.6.1, SVG Export Plug-In . SVG Version: 2.1.1 Build 9)  -->
  <defs>
    <style>
      .st0 {
        fill: #1c0083;
      }

      .st1 {
        fill: #ff66b2;
      }

      .st2 {
        fill: #fbbe3d;
      }

      .st3 {
        fill: #a685e2;
      }

      .st4 {
        fill: #4da3a8;
      }
    </style>
  </defs>
  <g id="mark-del_mku_color1">
    <g>
      <path class="st1" d="M542.6,316.3l-186.3-222-71.1,59.7,186.3,222c19.6-24.1,43.8-44.5,71.1-59.7Z"/>
      <path class="st3" d="M852.3,376l186.3-222-71.1-59.7-186.3,222c27.3,15.3,51.5,35.6,71.1,59.7h0Z"/>
      <g>
        <path class="st2" d="M708.3,289.7V0h-92.9v289.7c15-2.9,30.6-4.5,46.4-4.5s31.4,1.6,46.4,4.5h0Z"/>
        <path class="st2" d="M661.9,351.6c-59.4,0-112.2,29.1-144.8,73.9l67.4,67.4c14.1-28.6,43.4-48.4,77.4-48.4s63.3,19.8,77.4,48.4l67.4-67.4c-32.6-44.7-85.3-73.9-144.8-73.9h0Z"/>
      </g>
      <g>
        <path class="st4" d="M1151.9,769c55.2-88.5,87.2-192.9,87.2-304.7V185.8h-92.9v278.6c0,67.3-13.8,131.5-38.8,189.8l44.5,114.9h0Z"/>
        <path class="st4" d="M966.2,840.7c-83.2,67.4-189.1,107.9-304.3,107.9s-221.1-40.5-304.3-107.9l-34.9,90.3c95.3,69.5,212.6,110.6,339.3,110.6s244-41.1,339.3-110.6l-34.9-90.3h0Z"/>
        <path class="st4" d="M216.3,654.1c-24.9-58.3-38.8-122.4-38.8-189.8V185.8h-92.9v278.6c0,111.8,32,216.2,87.2,304.6l44.5-114.9h0Z"/>
      </g>
      <path class="st0" d="M99.6,1360l314.5-812.4,215,215c18.1,18.1,47.5,18.1,65.7,0l215-215,314.5,812.4h99.6l-353.2-912.4c-5.7-14.6-18.4-25.4-33.7-28.7-15.3-3.3-31.3,1.5-42.4,12.6l-232.5,232.5-232.5-232.5c-11.1-11.1-27.1-15.9-42.4-12.6-15.4,3.2-28.1,14-33.7,28.7L0,1360h99.6Z"/>
    </g>
  </g>
</svg>