<?xml version="1.0" encoding="UTF-8"?>
<svg id="_レイヤー_3" data-name="レイヤー 3" xmlns="http://www.w3.org/2000/svg" width="500" height="500" viewBox="0 0 500 500">
  <path d="M216.92334,249.17236c-15.72754-15.91895-33.93506-22.71338-51.27344-19.12891-15.35107,3.17383-23.30176,11.92334-28.56299,17.71338-1.50293,1.65381-3.7583,4.13574-4.71143,4.55762-1.04443-.00879-4.10547-1.39453-6.14502-2.31787-7.12744-3.22656-17.89746-8.10498-33.2334-4.93359-17.33643,3.58398-31.35889,17.04102-39.48486,37.89209-8.36328,21.46045-10.46484,50.69434-6.0791,84.54297,2.91846,25.33057,16.87598,41.46094,37.34668,43.15186.89111.07373,1.78027.11035,2.66797.11035,18.2998-.00049,35.69092-15.5625,46.94336-42.24756,5.27979-12.52832,12.09863-21.32812,17.37207-22.41846,5.27148-1.08594,15.02148,4.28564,24.83789,13.69385,21.92578,21.00635,45.19775,28.11426,62.25,19.01074,18.12354-9.66846,24.5415-30.01221,17.17529-54.4248-9.39502-32.81348-22.91602-58.81689-39.10303-75.20166ZM230.37695,362.91846c-9.55518,5.09766-25.77441-1.23145-41.32178-16.12646-10.48828-10.05225-26.104-21.39746-40.93652-18.32471-14.83447,3.06641-24.67334,19.66846-30.31396,33.05322-8.3667,19.84082-20.76221,32.0791-31.54199,31.19092-11.43896-.94531-19.07617-10.90527-20.95361-27.32715-.00537-.04541-.01074-.09082-.0166-.13623-4.01025-30.8916-2.28418-57.08789,4.99121-75.75732,5.9209-15.19189,15.03516-24.45947,26.35742-26.80078,2.21387-.45752,4.25684-.65576,6.16602-.65576,6.36914,0,11.24658,2.20801,15.99902,4.35986,5.30371,2.40088,10.78711,4.88428,17.21484,3.55566s10.47412-5.78125,14.38721-10.08789c4.55859-5.01611,9.27246-10.20361,18.88574-12.19141,11.32666-2.33936,23.36572,2.5542,34.82422,14.15234,14.08203,14.25391,26.05371,37.61816,34.62158,67.56787.0127.04443.02539.08838.03857.13232,4.78857,15.82031,1.72656,27.99219-8.40137,33.39551Z" fill="#4b4b4b"/>
  <path d="M177.823,287.34369c-3.38538-2.22546-7.93384-1.28516-10.15942,2.10028-2.22546,3.38544-1.28516,7.93402,2.10034,10.15948s7.93396,1.28516,10.15942-2.10028,1.28516-7.93402-2.10034-10.15948Z" fill="#4b4b4b"/>
  <path d="M192.01208,279.11353c2.22546-3.38544,1.28516-7.93396-2.10022-10.15942-3.3855-2.22552-7.93408-1.28516-10.15942,2.10028-2.22559,3.38544-1.28516,7.93396,2.10022,10.15942s7.93396,1.28516,10.15942-2.10028Z" fill="#4b4b4b"/>
  <path d="M196.21265,299.43243c-3.3855-2.22546-7.93396-1.28516-10.15942,2.10028s-1.28516,7.93396,2.10034,10.15942c3.38538,2.22552,7.93384,1.28516,10.15942-2.10028,2.22546-3.38544,1.28516-7.93396-2.10034-10.15942Z" fill="#4b4b4b"/>
  <path d="M208.30139,281.04279c-3.38538-2.22546-7.93396-1.28516-10.15942,2.10028s-1.28516,7.93402,2.10022,10.15948c3.3855,2.22546,7.93408,1.28516,10.15942-2.10028,2.22559-3.38544,1.28516-7.93402-2.10022-10.15948Z" fill="#4b4b4b"/>
  <polygon points="106.8125 300.83899 105.1792 292.93799 87.55225 296.58154 89.18555 304.48291 81.28467 306.11621 84.92822 323.74316 92.82947 322.1098 94.46289 330.01123 112.08984 326.36768 110.4563 318.46588 118.35742 316.83252 114.71387 299.20557 106.8125 300.83899" fill="#4b4b4b"/>
  <path d="M285.08789,84.21826c-13.58936-18.13477-33.42725-29.8916-55.85938-33.10596-22.4292-3.21143-44.77344,2.50098-62.90771,16.08936-18.13477,13.58936-29.8916,33.42725-33.10596,55.85938-3.21387,22.43213,2.5,44.77295,16.08936,62.90771s33.42725,29.8916,55.85938,33.10596c4.08252.58496,8.15869.87402,12.21045.87402,18.21094,0,35.86328-5.84766,50.69727-16.96338,18.13477-13.58936,29.8916-33.42725,33.10596-55.85938,3.21387-22.43213-2.5-44.77295-16.08936-62.90771ZM151.0332,125.61377c3.04407-21.2464,15.83167-38.72986,33.18091-48.60632,9.22632,37.13416,4.29956,71.52307-14.98206,104.57202-13.87756-14.35071-21.2428-34.71991-18.19885-55.9657ZM207.71631,201.25635c-8.8103-1.26233-16.9668-4.21179-24.21155-8.45392,22.94263-38.25189,28.8385-79.40106,17.55969-122.5564,5.18628-1.29718,10.5769-1.99652,16.0874-1.99652,3.14307,0,6.32422.22266,9.52393.68115,8.8103,1.26233,16.9668,4.21179,24.21155,8.45392-22.94275,38.25201-28.83862,79.40125-17.55969,122.5567-8.14478,2.03729-16.80127,2.57776-25.61133,1.31506ZM283.35889,144.57324c-3.04395,21.24548-15.83289,38.72729-33.1814,48.60413-9.22559-37.13336-4.29858-71.52148,14.98254-104.56982,13.87756,14.35071,21.2428,34.71991,18.19885,55.9657Z" fill="#4b4b4b"/>
  <path d="M447.98584,196.75781l6.15625-16.91406-103.73291-37.75537-6.15625,16.91406,29.63916,10.78766-3.09705,8.50885-14.61877-5.32092c-2.24268-.81738-4.71826-.7085-6.88184.30029-2.16309,1.00879-3.83691,2.83545-4.65332,5.07861l-64.04102,175.95068c-.81641,2.24316-.7085,4.71826.30029,6.88184,1.00879,2.16309,2.83545,3.83691,5.07861,4.65332l7.40259,2.69434-8.04761,22.11279c-1.7002,4.6709.70801,9.83545,5.37891,11.53516l12.52917,4.56012-9.67029,26.56781,16.91406,6.15625,9.67041-26.56799,12.5293,4.56018c.99609.36279,2.03809.54297,3.07812.54297,1.30176,0,2.60107-.28271,3.80371-.84326,2.16309-1.00879,3.8374-2.83545,4.65381-5.07861l8.04761-22.11243,7.40308,2.69446c1.01611.37012,2.05518.54541,3.07764.54541,3.67578,0,7.12744-2.27002,8.45752-5.92432l64.04053-175.9502c1.7002-4.6709-.70801-9.83545-5.37891-11.53516l-14.61914-5.32098,3.09717-8.50916,29.63916,10.78766ZM330.38428,397.46924l-25.05811-9.12061,4.97021-13.65479,25.05811,9.12012-4.97021,13.65527ZM357.37109,372.67236l-56.77832-20.66553,6.89111-18.93298,21.61475,7.86707,6.15625-16.91406-21.61487-7.86713,3.3302-9.14978,21.61475,7.867,6.15625-16.91406-21.61475-7.86707,3.33032-9.14996,21.61499,7.86713,6.15625-16.91406-21.61499-7.86713,3.33032-9.15015,21.61475,7.86737,6.15625-16.91406-21.61475-7.86743,16.37744-44.99683,56.77783,20.66553-57.88379,159.03613ZM398.33557,188.323l-10.62646-3.8678,3.09705-8.50891,10.62646,3.86768-3.09705,8.50903Z" fill="#4b4b4b"/>
</svg>