<?xml version="1.0" encoding="UTF-8"?>
<svg id="_レイヤー_2" xmlns="http://www.w3.org/2000/svg" version="1.1" viewBox="0 0 262.2 522.9">
  <!-- Generator: Adobe Illustrator 29.6.1, SVG Export Plug-In . SVG Version: 2.1.1 Build 9)  -->
  <defs>
    <style>
      .st0 {
        fill: #fff;
      }
    </style>
  </defs>
  <g id="_レイヤー_3">
    <g>
      <path class="st0" d="M34,391.8c0,53.5,43.6,97.1,97.1,97.1,53.5,0,97.1-43.6,97.1-97.1,0-26.8-10.9-51-28.5-68.6-17.6-17.6-41.9-28.5-68.6-28.5-53.5,0-97.1,43.6-97.1,97.1ZM131.1,312.7c43.6,0,79.1,35.5,79.1,79.1s-35.5,79.1-79.1,79.1c-21.8,0-41.6-8.9-55.9-23.2-14.3-14.3-23.2-34.1-23.2-55.9,0-43.6,35.5-79.1,79.1-79.1Z"/>
      <path class="st0" d="M113.8,0h-18s0,191.8,0,191.8c0,2.4.9,4.7,2.6,6.4s3.5,2.4,5.6,2.6v62.7c-27.8,5.8-53.1,20.7-71.9,42.3C11.4,329.6,0,360.2,0,391.8c0,72.3,58.8,131.1,131.1,131.1,72.3,0,131.1-58.8,131.1-131.1,0-31.6-11.4-62.2-32.2-86-18.8-21.6-44.1-36.4-71.9-42.3v-62.7c4.6-.4,8.3-4.2,8.3-9V0h-18s0,182.8,0,182.8h-34.6V0ZM142.7,277.4c1.3,1.3,3.1,2.2,5,2.5,26.6,3.9,50.9,17.3,68.7,37.7,17.9,20.6,27.7,46.9,27.7,74.2,0,30.2-11.8,58.6-33.1,80s-49.8,33.1-80,33.1c-62.4,0-113.1-50.7-113.1-113.1,0-27.3,9.9-53.6,27.7-74.2,17.7-20.4,42.1-33.7,68.7-37.7,4.4-.7,7.7-4.4,7.7-8.9v-70.2s12.8,0,12.8,0h5.2v70.2c0,2.5,1,4.7,2.6,6.4Z"/>
    </g>
  </g>
</svg>