<?xml version="1.0" encoding="UTF-8"?>
<svg id="_レイヤー_3" data-name="レイヤー 3" xmlns="http://www.w3.org/2000/svg" width="500" height="500" viewBox="0 0 500 500">
  <path d="M160,311h-80c-4.9707,0-9,4.0293-9,9v130c0,4.9707,4.0293,9,9,9h80c4.9707,0,9-4.0293,9-9v-130c0-4.9707-4.0293-9-9-9ZM151,441h-62v-112h62v112Z" fill="#4b4b4b"/>
  <path d="M290,221h-80c-4.9707,0-9,4.0293-9,9v220c0,4.9707,4.0293,9,9,9h80c4.9707,0,9-4.0293,9-9v-220c0-4.9707-4.0293-9-9-9ZM281,441h-62v-202h62v202Z" fill="#4b4b4b"/>
  <path d="M463.50879,157.79004l-76.1084-109.97168c-1.68066-2.4292-4.44678-3.87842-7.40039-3.87842s-5.71973,1.44922-7.40039,3.87842l-76.1084,109.97168c-1.90479,2.75244-2.125,6.33447-.57129,9.29932s4.62451,4.82227,7.97168,4.82227h27.1084v278.08838c0,4.9707,4.0293,9,9,9h80c4.9707,0,9-4.0293,9-9V171.91162h27.1084c3.34717,0,6.41797-1.85742,7.97168-4.82227s1.3335-6.54688-.57129-9.29932ZM420,153.91162c-4.9707,0-9,4.0293-9,9v278.08838h-62V162.91162c0-4.9707-4.0293-9-9-9h-18.93457l58.93457-85.15674,58.93457,85.15674h-18.93457Z" fill="#4b4b4b"/>
</svg>