<?xml version="1.0" encoding="UTF-8"?>
<svg id="_レイヤー_3" data-name="レイヤー 3" xmlns="http://www.w3.org/2000/svg" width="500" height="500" viewBox="0 0 500 500">
  <path d="M427.19287,242.87158c7.13428-7.11914,10.75195-16.52637,10.75195-27.96143,0-7.22754-2.64746-13.62207-7.65625-18.49219-14.54492-14.14258-46.39648-13.24756-77.19922-12.38428-14.25977.40039-37.9917,1.06543-42.7334-2.28906-2.05713-4.35889.46289-17.6582,2.31543-27.43457,3.63721-19.19385,7.39795-39.0415-2.91553-51.93115-5.23193-6.53906-13.2168-10.03564-23.73145-10.3916-36.37451-1.229-43.94336,43.37354-50.03809,79.21582-2.85156,16.76758-5.7998,34.10645-10.92236,42.3999-6.13062,9.92517-39.42676,18.09503-56.93848,20.21661v-40.37286c0-4.9707-4.0293-9-9-9h-82.47412c-4.9707,0-9,4.0293-9,9v200.79883c0,4.9707,4.0293,9,9,9h82.47412c4.9707,0,9-4.0293,9-9v-36.46576c3.09473.78778,6.67456,1.63977,10.85449,2.62494,9.76416,2.30127,20.83057,4.90967,30.02148,8.07422,13.03125,4.4873,15.24316,7.76416,15.45264,8.12256,17.05908,29.24512,66.38818,31.43652,98.2583,31.43652,3.00293,0,5.85449-.01953,8.50586-.0376,2.104-.01465,4.05322-.02783,5.81787-.02783,1.81201,0,3.68555.01172,5.60156.02393,20.93555.13428,44.67236.28271,57.43848-12.40283,5.34668-5.31299,8.05762-12.15674,8.05762-20.3418,0-9.12695-3.08057-16.97412-8.92822-22.80566,4.13721-1.92773,7.66943-4.26074,10.57812-6.99121,6.19482-5.81592,9.46924-13.45508,9.46924-22.09229,0-7.5918-2.40283-14.06201-6.93506-19.00537,2.54297-1.34912,4.94189-2.96094,7.10449-4.88281,6.69092-5.94629,10.22754-14.09082,10.22754-23.55273,0-11.68604-3.30469-20.87451-9.82324-27.3208,2.62158-1.58691,5.10986-3.47803,7.36621-5.72949ZM150.12549,385.24561h-64.47412v-182.79883h64.47412v182.79883ZM414.479,230.12988c-5.93213,5.91895-15.87109,7.84619-23.78174,8.46924-2.75391-.02197-5.23291.10547-7.29834.20703-.61621.02979-1.30664.06348-1.91211.08643-.08105-.00049-.16064-.00049-.23828-.00049-.71777-.00293-1.33398-.00293-1.83154.00439-4.84277.06689-8.76465,3.9541-8.87354,8.79639-.10938,4.84229,3.6333,8.90234,8.46875,9.18701.8584.04932,1.76807.04541,2.78516.01318,2.38965,0,5.67871-.01123,9.48975-.28027,5.63135.09961,11.8999.99072,15.7207,4.62939,3.08008,2.93359,4.64209,7.87256,4.64209,14.67969,0,4.35205-1.32959,7.56104-4.18457,10.09814-6.28174,5.58203-18.78223,7.17773-28.51904,7-.49756-.02295-.97949-.04346-1.44336-.06348-.82275-.03564-1.69629-.07324-2.47559-.11621-.90039-.06689-1.76025-.14893-2.56689-.24414-4.85596-.57715-9.271,2.82422-9.96533,7.65674-.69482,4.83301,2.59082,9.33887,7.40479,10.1543,1.88525.31934,4.06641.41357,6.82764.53271,18.56592.80029,24.52539,3.81885,24.52539,12.42285,0,3.68604-1.19971,6.53174-3.77539,8.95605-6.19531,5.83057-18.32373,7.99316-27.82812,8.63135-6.31104-.44629-11.16406.02979-12.2832.15576-4.63428.5249-8.1001,4.50342-7.98438,9.16602.11572,4.66309,3.77441,8.46484,8.4292,8.75879.25928.01611,4.86182.2959,11.354-.04541,5.8999.50537,12.6958,2.02295,16.85352,5.75586,2.80762,2.52051,4.11523,5.86035,4.11523,10.51074,0,4.29492-1.46729,6.30371-2.74512,7.57373-7.45361,7.40674-28.94482,7.26904-44.63721,7.17139-1.95508-.01221-3.86621-.02441-5.71533-.02441-1.80225,0-3.79199.01367-5.94092.02832-25.21387.17334-77.67676.53125-91.09326-22.46924-7.05566-12.09473-28.03076-17.84424-56.89258-24.64697-5.23389-1.2334-10.92188-2.57422-14.98389-3.73926v-87.27441c8.28027-.84668,19.55518-2.82764,30.59717-5.81348,21.86865-5.91309,35.8833-13.6499,41.65576-22.99561,6.96533-11.27783,10.06836-29.52393,13.35303-48.8418,6.46631-38.02637,12.52295-64.85449,31.68311-64.24365,7.57324.25684,9.61523,2.80908,10.28662,3.64795,5.1416,6.42627,1.89453,23.56396-.71484,37.33447-3.09229,16.31836-5.7627,30.41162.02832,40.23975,7.22852,12.26807,28.76807,11.66406,58.57959,10.82812,23.23291-.65186,55.05322-1.54541,64.146,7.29639,1.54541,1.50244,2.20459,3.17334,2.20459,5.58691,0,6.57129-1.78809,11.54932-5.46582,15.21973Z" fill="#fff"/>
</svg>