<?xml version="1.0" encoding="UTF-8"?>
<svg id="_レイヤー_3" data-name="レイヤー 3" xmlns="http://www.w3.org/2000/svg" width="500" height="500" viewBox="0 0 500 500">
  <path d="M250,116.37256c-50.41016,0-91.42188,41.01172-91.42188,91.42188,0,10.96045,1.93652,21.70459,5.75684,31.94238.00342.01123.00684.02197.01025.03271l30.93799,95.56934c1.20215,3.71289,4.65967,6.22803,8.5625,6.22803h92.30859c3.90283,0,7.36035-2.51514,8.5625-6.22803l30.93799-95.56934c.00342-.01074.00684-.02148.01025-.03271,3.82031-10.23779,5.75684-20.98193,5.75684-31.94238,0-50.41016-41.01172-91.42188-91.42188-91.42188ZM318.66455,233.80762c-.10693.28125-.19873.56641-.27588.85449l-28.78076,88.90479h-79.21582l-28.77979-88.90186c-.07715-.28857-.16943-.57471-.27686-.85742-3.15674-8.32764-4.75732-17.07959-4.75732-26.01318,0-40.48486,32.93701-73.42188,73.42188-73.42188s73.42188,32.93701,73.42188,73.42188c0,8.93359-1.60059,17.68555-4.75732,26.01318Z" fill="#4b4b4b"/>
  <rect x="241" y="58.47803" width="18" height="40.66992" fill="#4b4b4b"/>
  <rect x="176.5091" y="75.75851" width="18.00036" height="40.6695" transform="translate(-23.19304 105.62993) rotate(-30.00034)" fill="#4b4b4b"/>
  <rect x="129.29865" y="122.96896" width="18.00036" height="40.6695" transform="translate(-54.95469 191.42435) rotate(-60.00065)" fill="#4b4b4b"/>
  <rect x="294.15597" y="87.09308" width="40.6695" height="18.00036" transform="translate(74.02871 320.40632) rotate(-60.00065)" fill="#4b4b4b"/>
  <rect x="341.36642" y="134.30353" width="40.6695" height="18.00036" transform="translate(-23.19275 200.05193) rotate(-30.00034)" fill="#4b4b4b"/>
  <rect x="204.61865" y="351.01709" width="90.7627" height="18" fill="#4b4b4b"/>
  <rect x="204.61865" y="378.46729" width="90.7627" height="18" fill="#4b4b4b"/>
  <path d="M295.38135,408.52588h-90.7627c-2.85498,0-5.54004,1.35449-7.2373,3.6499-1.69678,2.29541-2.2041,5.26025-1.36719,7.98926,4.12061,13.43213,20.70605,38.83496,53.98584,38.83496s49.86523-25.40283,53.98584-38.83496c.83691-2.729.32959-5.69385-1.36719-7.98926-1.69727-2.29541-4.38232-3.6499-7.2373-3.6499ZM250,441c-15.36328,0-24.82275-7.5-30.29736-14.47412h60.59473c-5.47461,6.97412-14.93408,14.47412-30.29736,14.47412Z" fill="#4b4b4b"/>
</svg>