<?xml version="1.0" encoding="UTF-8"?>
<svg id="_レイヤー_3" data-name="レイヤー 3" xmlns="http://www.w3.org/2000/svg" width="500" height="500" viewBox="0 0 500 500">
  <path d="M420.54395,162.6333h-91.54395v-61.5127c0-15.70801-12.7793-28.4873-28.4873-28.4873h-101.02539c-15.70801,0-28.4873,12.7793-28.4873,28.4873v61.5127h-91.54395c-4.9707,0-9,4.0293-9,9v235.05176c0,4.9707,4.0293,9,9,9h341.08789c4.9707,0,9-4.0293,9-9v-235.05176c0-4.9707-4.0293-9-9-9ZM189,101.12061c0-5.78271,4.7041-10.4873,10.4873-10.4873h101.02539c5.7832,0,10.4873,4.70459,10.4873,10.4873v61.5127h-12v-51c0-4.9707-4.0293-9-9-9h-80c-4.9707,0-9,4.0293-9,9v51h-12v-61.5127ZM219,162.6333v-42h62v42h-62ZM88.45605,180.6333h323.08789v95.13623l-27.59277,3.3465-103.7998,12.58875v-20.59637c0-4.9707-4.0293-9-9-9h-42.30273c-4.9707,0-9,4.0293-9,9v20.59637l-103.7998-12.58875-27.59277-3.3465v-95.13623ZM237.84863,301.8623v-21.75391h24.30273v43.4585h-24.30273v-21.70459ZM88.45605,397.68506v-103.78339l103.7998,12.58875,27.59277,3.3465v22.72998c0,4.9707,4.0293,9,9,9h42.30273c4.9707,0,9-4.0293,9-9v-22.72998l27.59277-3.3465,103.7998-12.58875v103.78339H88.45605Z" fill="#fff"/>
</svg>