<?xml version="1.0" encoding="UTF-8"?>
<svg id="_レイヤー_3" data-name="レイヤー 3" xmlns="http://www.w3.org/2000/svg" width="500" height="500" viewBox="0 0 500 500">
  <path d="M450,205.08789h-113.79199V50c0-4.9707-4.0293-9-9-9h-154.41602c-4.9707,0-9,4.0293-9,9v155.08789H50c-4.9707,0-9,4.0293-9,9v205.23419h18v-196.23419h113.79199c4.9707,0,9-4.0293,9-9V59h136.41602v155.08789c0,4.9707,4.0293,9,9,9h113.79199v196.23419h18v-205.23419c0-4.9707-4.0293-9-9-9Z" fill="#fff"/>
  <path d="M310.14404,127.20801c0-33.16357-26.98047-60.14404-60.14404-60.14404s-60.14404,26.98047-60.14404,60.14404,26.98047,60.14453,60.14404,60.14453,60.14404-26.98047,60.14404-60.14453ZM250,169.35254c-23.23828,0-42.14404-18.90576-42.14404-42.14453,0-20.14911,14.21698-37.03174,33.14404-41.16663v41.16663c0,4.9707,4.0293,9,9,9h31.88525v-18h-22.88525v-32.16663c18.92706,4.13489,33.14404,21.01752,33.14404,41.16663,0,23.23877-18.90576,42.14453-42.14404,42.14453Z" fill="#fff"/>
  <path d="M203.39703,339.63635c7.85406-9.53607,12.57709-21.74286,12.57709-35.03271,0-30.43115-24.75732-55.18848-55.18848-55.18848s-55.18848,24.75732-55.18848,55.18848c0,13.28986,4.72302,25.49664,12.57709,35.03271-12.59473,3.47815-22.40533,10.25806-29.25824,20.32324-18.0954,26.57922-9.20746,68.7149-2.88666,90.04041h18.82452c-6.55231-19.91632-15.15387-59.23718-1.04626-79.92859,6.7038-9.83258,17.9682-14.78668,34.36749-15.14349,6.90601,3.11523,14.5556,4.8642,22.61053,4.8642s15.70453-1.74896,22.61053-4.8642c16.39929.35681,27.6637,5.31091,34.36749,15.14349,14.10718,20.69141,5.50555,60.01227-1.04675,79.92859h18.82458c6.32086-21.3255,15.20905-63.46118-2.88672-90.04041-6.8526-10.06519-16.66309-16.84509-29.25775-20.32324ZM160.78564,341.79211c-20.50586,0-37.18848-16.68262-37.18848-37.18848s16.68262-37.18848,37.18848-37.18848,37.18848,16.68262,37.18848,37.18848-16.68262,37.18848-37.18848,37.18848Z" fill="#fff"/>
  <path d="M381.82574,339.63635c7.85406-9.53607,12.57709-21.74286,12.57709-35.03271,0-30.43115-24.75732-55.18848-55.18848-55.18848s-55.18848,24.75732-55.18848,55.18848c0,13.28986,4.72302,25.49664,12.57709,35.03271-12.59467,3.47815-22.40515,10.25806-29.25775,20.32324-18.09576,26.57922-9.20758,68.7149-2.88672,90.04041h18.82458c-6.55231-19.91632-15.15393-59.23718-1.04675-79.92859,6.7038-9.83258,17.9682-14.78668,34.36749-15.14349,6.90601,3.11523,14.5556,4.8642,22.61053,4.8642s15.70453-1.74896,22.61053-4.8642c16.39929.35681,27.6637,5.31091,34.36749,15.14349,14.1076,20.69141,5.50604,60.01227-1.04626,79.92859h18.82452c6.3208-21.3255,15.20874-63.46118-2.88666-90.04041-6.85291-10.06519-16.66351-16.84509-29.25824-20.32324ZM339.21436,341.79211c-20.50586,0-37.18848-16.68262-37.18848-37.18848s16.68262-37.18848,37.18848-37.18848,37.18848,16.68262,37.18848,37.18848-16.68262,37.18848-37.18848,37.18848Z" fill="#fff"/>
</svg>