<?xml version="1.0" encoding="UTF-8"?>
<svg id="_レイヤー_2" data-name="レイヤー 2" xmlns="http://www.w3.org/2000/svg" width="32" height="32" viewBox="0 0 32 32">
  <g id="favicon">
    <g>
      <rect x="0" y="0" width="32" height="32" rx="8" ry="8" fill="#001e7f"/>
      <g>
        <path d="M13.99915,9.00691l-3.12445-3.72354-1.19336,1.00146,3.12487,3.72406c.32954-.40489.73436-.74582,1.19294-1.00197h0Z" fill="#ff66b2"/>
        <path d="M19.19379,10.00888l3.12487-3.72406-1.19336-1.00146-3.12445,3.72354c.45858.25615.8634.59709,1.19294,1.00197h0Z" fill="#a685e2"/>
        <g>
          <path d="M16.77892,8.56114V3.70153h-1.55782v4.85961c.25237-.04852.51257-.07487.77891-.07487s.52654.02635.77891.07487Z" fill="#fbbe3d"/>
          <path d="M16,9.599c-.99711,0-1.88179.48867-2.42858,1.23867l1.1308,1.13082c.23574-.47981.72811-.81167,1.29779-.81167s1.06205.33186,1.29779.81167l1.1308-1.13082c-.54679-.75001-1.43147-1.23867-2.42858-1.23867h0Z" fill="#fbbe3d"/>
        </g>
        <g>
          <path d="M24.21864,16.60023c.92604-1.48406,1.46211-3.23539,1.46211-5.10981v-4.67336h-1.55782v4.67336c0,1.12908-.23209,2.20481-.65023,3.1828l.74593,1.92701h0Z" fill="#4da3a8"/>
          <path d="M21.1046,17.8028c-1.39599,1.13107-3.17211,1.81055-5.10459,1.81055s-3.70857-.67946-5.10455-1.81052l-.58607,1.514c1.59846,1.16546,3.56546,1.85434,5.69062,1.85434s4.0922-.68891,5.69065-1.85437l-.58606-1.514Z" fill="#4da3a8"/>
          <path d="M8.5273,14.67317c-.41813-.97793-.65022-2.05366-.65022-3.18274v-4.67336h-1.55782v4.67336c0,1.87442.53607,3.62572,1.46212,5.10978l.74593-1.92704h0Z" fill="#4da3a8"/>
        </g>
        <path d="M6.56951,26.51238l5.27427-13.6255,3.6054,3.6055c.30426.30405.79738.30405,1.10165,0l3.6054-3.6055,5.27427,13.6255h1.67055l-5.9237-15.30297c-.09508-.24558-.30785-.42651-.5656-.48084-.25743-.05455-.52529.02499-.71165.21124l-3.9001,3.9002-3.9001-3.9002c-.18636-.18614-.45378-.2659-.71165-.21124-.25775.05433-.47052.23526-.5656.48084l-5.9237,15.30297h1.67055Z" fill="#fff"/>
      </g>
    </g>
  </g>
</svg>