<svg width="37" height="25" viewBox="0 0 37 25" fill="none" xmlns="http://www.w3.org/2000/svg">
<path d="M12.5312 15.9022L3.46339 5.09229L0 7.99964L9.06903 18.811C10.0254 17.6356 11.2003 16.6458 12.5312 15.9022Z" fill="#1C0083"/>
<path d="M27.6072 18.811L36.6762 7.99964L33.2128 5.09229L24.145 15.9022C25.4759 16.6458 26.6508 17.6356 27.6072 18.811Z" fill="#1C0083"/>
<path d="M20.5983 14.608V0.5H16.0771V14.608C16.8096 14.4672 17.5647 14.3907 18.3377 14.3907C19.1107 14.3907 19.8658 14.4672 20.5983 14.608Z" fill="#1C0083"/>
<path d="M18.3383 17.6211C15.4445 17.6211 12.8769 19.0398 11.29 21.2171L14.5719 24.5C15.256 23.1071 16.685 22.1436 18.3383 22.1436C19.9916 22.1436 21.4206 23.1071 22.1048 24.5L25.3866 21.2171C23.7997 19.0398 21.2321 17.6211 18.3383 17.6211Z" fill="#1C0083"/>
</svg>
