<?xml version="1.0" encoding="UTF-8"?>
<svg id="_レイヤー_1" xmlns="http://www.w3.org/2000/svg" version="1.1" viewBox="0 0 226 157">
  <!-- Generator: Adobe Illustrator 29.6.1, SVG Export Plug-In . SVG Version: 2.1.1 Build 9)  -->
  <defs>
    <style>
      .st0 {
        fill: #ff66b2;
      }
    </style>
  </defs>
  <path class="st0" d="M132.8,16.4c-1.1-2.8-3.6-3.7-6.4-5-3.6-1.5-8.2-3.4-10.1-9.9l3.6-1.1c1.5,4.9,4.5,6,8,7.5,3.2,1.3,6.7,2.8,8.4,7.1l-3.4,1.5h-.2,0Z"/>
  <path class="st0" d="M36.4,77.3c-1.1,0-2.2,0-3.6-.4l.9-3.6c4.9,1.1,7.5-.7,10.5-3,2.6-2.1,5.8-4.3,10.3-3.7l-.6,3.7c-3-.4-5.1,1.1-7.7,3-2.4,1.9-5.6,4.1-9.9,4.1v-.2h0Z"/>
  <path class="st0" d="M187.9,32.4l-21.2,4.6.8,3.7,21.2-4.6-.8-3.7Z"/>
  <path class="st0" d="M20.3,49.3h-1.9c-3.7-.7-7.5-3.9-10.9-9.2-1.9-2.8-1.3-5.2-.7-6.7,2.6-6.4,15-9,16.3-9.3l.7,3.7c-4.5.9-12.2,3.7-13.7,7.1-.2.6-.6,1.7.6,3.4,3.4,5.6,6.6,7.1,8.4,7.5,1.5.4,2.8,0,3.9-.9,1.1-.7,1.5-1.9,1.5-3,0-1.9-1.9-3.9-4.7-5.2l1.5-3.4c3.9,1.9,6.6,4.9,6.7,8.2.2,2.6-.9,4.9-3,6.4-1.5,1.1-3.4,1.7-5.1,1.7l.2-.2h.2Z"/>
  <path class="st0" d="M48.4,34.5l-1.1-3.6,13.5-3.9-3-10.3,19.8-6,.9,3.7-16.3,4.7,3.2,10.3-17,5h0Z"/>
  <path class="st0" d="M125.9,63.7l-11.2-6.9,1.9-3.2,8,5,4.1-6.5,12.9,8-1.9,3.2-9.9-6.2-3.9,6.5h0Z"/>
  <path class="st0" d="M78.2,47.6c1.6,0,2.8-1.3,2.8-2.8s-1.3-2.8-2.8-2.8-2.8,1.3-2.8,2.8,1.3,2.8,2.8,2.8Z"/>
  <path class="st0" d="M139.1,38.2c1.6,0,2.8-1.3,2.8-2.8s-1.3-2.8-2.8-2.8-2.8,1.3-2.8,2.8,1.3,2.8,2.8,2.8Z"/>
  <path class="st0" d="M69,139c-1.5-4.9-4.5-6-8-7.5-3.2-1.3-6.7-2.8-8.4-7.1l3.4-1.5c1.1,2.8,3.6,3.7,6.4,5,3.6,1.5,8.2,3.4,10.1,9.9l-3.6,1.1h.2,0Z"/>
  <path class="st0" d="M212.7,23.8h-.2c-2.4,0-4.7-1.1-6.4-3-2.6-3-3.6-7.7-3.2-13.8.4-3.4,2.1-5,3.6-5.8,6-3.4,17.2,1.7,18.5,2.4l-1.7,3.4c-4.1-1.9-12-4.3-15.2-2.4-.6.4-1.5,1.1-1.7,3-.6,6.5.9,9.5,2.2,11,.9,1.1,2.2,1.7,3.7,1.7s2.4-.6,3-1.5c1.1-1.7.7-4.3-.6-6.9l3.4-1.7c2.1,3.9,2.2,7.8.6,10.7-1.3,2.1-3.6,3.4-6,3.4l-.2-.4h.2Z"/>
  <path class="st0" d="M85.9,102.6c-3.4,0-6.2-.4-6.7-.6l.6-3.7c4.5.7,12.7.9,15.2-1.7.6-.6,1.1-1.3.7-3.2-1.3-6.4-3.6-9-5.1-10.1-1.3-.7-2.6-.9-3.9-.6-1.3.4-2.1,1.1-2.4,2.2-.6,1.9.4,4.3,2.4,6.5l-2.6,2.6c-3-3.2-4.3-6.9-3.4-10.1.7-2.4,2.6-4.3,5.1-4.9,2.4-.6,4.9-.2,6.9,1.1,3.4,2.1,5.6,6.4,6.7,12.5.6,3.4-.6,5.4-1.7,6.5-2.6,2.8-7.7,3.4-11.8,3.4v-.2.3Z"/>
  <path class="st0" d="M16.2,157l-2.8-2.6,6.7-6.9-5.4-5.2,10.7-11,2.6,2.6-8,8.2,5.4,5.4-9.2,9.5Z"/>
  <path class="st0" d="M2.6,116l-2.6-2.6,6.6-6.9-5.4-5.2,10.7-11,2.8,2.6-8.2,8.2,5.6,5.4-9.4,9.5h-.1Z"/>
  <path class="st0" d="M55.3,102.9c1.6,0,2.8-1.3,2.8-2.8s-1.3-2.8-2.8-2.8-2.8,1.3-2.8,2.8,1.3,2.8,2.8,2.8Z"/>
</svg>