<svg width="226" height="157" viewBox="0 0 226 157" fill="none" xmlns="http://www.w3.org/2000/svg">
<path d="M132.837 16.4221C131.714 13.6189 129.28 12.6845 126.472 11.3764C122.916 9.88134 118.236 8.01254 116.364 1.47174L119.921 0.350464C121.418 5.20934 124.413 6.33062 127.97 7.82566C131.152 9.13382 134.709 10.6289 136.393 14.9271L133.024 16.4221H132.837Z" fill="#FBBE3D"/>
<path d="M36.4345 77.345C35.3114 77.345 34.1882 77.345 32.8779 76.9712L33.8139 73.4205C38.6807 74.5418 41.3014 72.673 44.2964 70.4304C46.917 68.3747 50.0992 66.1322 54.5917 66.6928L54.0301 70.4304C51.0351 70.0567 48.9761 71.5517 46.3554 73.4205C43.922 75.2893 40.7398 77.5319 36.4345 77.5319V77.345Z" fill="#FBBE3D"/>
<path d="M187.928 32.4409L166.705 37.022L167.496 40.6752L188.72 36.094L187.928 32.4409Z" fill="#FBBE3D"/>
<path d="M20.3374 49.313C19.7758 49.313 19.2142 49.313 18.4655 49.313C14.7217 48.5655 10.978 45.3885 7.6086 40.1559C5.73672 37.3527 6.29828 34.9233 6.85984 33.4282C9.48047 27.0743 21.8349 24.458 23.1452 24.0842L23.8939 27.8218C19.4014 28.7562 11.7267 31.5594 10.2292 34.9233C10.042 35.4839 9.66766 36.6052 10.7908 38.2871C14.1602 43.8935 17.3424 45.3885 19.2142 45.7623C20.7117 46.1361 22.022 45.7623 23.1452 44.8279C24.2683 44.0804 24.6427 42.9591 24.6427 41.8378C24.6427 39.969 22.7708 37.9133 19.963 36.6052L21.4605 33.2413C25.3914 35.1101 28.012 38.1002 28.1992 41.4641C28.3864 44.0804 27.2633 46.3229 25.2042 47.818C23.7067 48.9393 21.8349 49.4999 20.1502 49.4999L20.3374 49.313Z" fill="#FBBE3D"/>
<path d="M48.4141 34.5494L47.291 30.9987L60.7685 27.0742L57.7735 16.7958L77.6154 10.8157L78.5513 14.5533L62.266 19.2253L65.4482 29.5037L48.4141 34.5494Z" fill="#FBBE3D"/>
<path d="M125.911 63.7027L114.68 56.7881L116.552 53.6112L124.601 58.6569L128.719 52.1161L141.635 60.152L139.763 63.3289L129.842 57.1619L125.911 63.7027Z" fill="#FBBE3D"/>
<path d="M78.1779 47.6311C79.7286 47.6311 80.9857 46.376 80.9857 44.8279C80.9857 43.2797 79.7286 42.0247 78.1779 42.0247C76.6272 42.0247 75.3701 43.2797 75.3701 44.8279C75.3701 46.376 76.6272 47.6311 78.1779 47.6311Z" fill="#FBBE3D"/>
<path d="M139.144 38.249C140.694 38.249 141.952 36.994 141.952 35.4458C141.952 33.8977 140.694 32.6426 139.144 32.6426C137.593 32.6426 136.336 33.8977 136.336 35.4458C136.336 36.994 137.593 38.249 139.144 38.249Z" fill="#FBBE3D"/>
<path d="M68.9559 138.962C67.4584 134.103 64.4634 132.981 60.9068 131.486C57.7247 130.178 54.1681 128.683 52.4834 124.385L55.8528 122.89C56.9759 125.693 59.4093 126.627 62.2172 127.936C65.7737 129.431 70.4534 131.299 72.3253 137.84L68.7687 138.962H68.9559Z" fill="#FBBE3D"/>
<path d="M212.709 23.7574C212.709 23.7574 212.709 23.7574 212.522 23.7574C210.089 23.7574 207.843 22.6361 206.158 20.7673C203.537 17.7773 202.601 13.1053 202.976 6.93822C203.35 3.57439 205.035 1.89247 206.532 1.14495C212.522 -2.21889 223.753 2.82687 225.064 3.57439L223.379 6.93822C219.261 5.06943 211.399 2.63999 208.217 4.50879C207.655 4.88255 206.719 5.63006 206.532 7.49886C205.971 14.0397 207.468 17.0297 208.778 18.5248C209.714 19.646 211.025 20.2067 212.522 20.2067C213.833 20.2067 214.956 19.6461 215.517 18.7117C216.64 17.0297 216.266 14.4134 214.956 11.7971L218.325 10.1152C220.384 14.0397 220.571 17.9641 218.887 20.7673C217.576 22.823 215.33 24.1312 212.897 24.1312L212.709 23.7574Z" fill="#FBBE3D"/>
<path d="M85.853 102.574C82.4836 102.574 79.6758 102.2 79.1143 102.013L79.6758 98.2755C84.1683 99.023 92.4046 99.2099 94.838 96.5935C95.3996 96.0329 95.9611 95.2854 95.5868 93.4166C94.2765 87.0627 92.0302 84.4464 90.5327 83.3251C89.2224 82.5776 87.9121 82.3907 86.6018 82.7644C85.2914 83.1382 84.5427 83.8857 84.1683 85.007C83.6068 86.8758 84.5427 89.3052 86.6018 91.5478L83.9811 94.1641C80.9861 90.9871 79.6758 87.2496 80.6118 84.0726C81.3605 81.6432 83.2324 79.7744 85.6658 79.2137C88.0993 78.6531 90.5327 79.0268 92.5918 80.335C95.9611 82.3907 98.2074 86.6889 99.3305 92.8559C99.8921 96.2198 98.769 98.2755 97.6458 99.3967C95.0252 102.2 89.9711 102.761 85.853 102.761V102.574Z" fill="#FBBE3D"/>
<path d="M16.2492 157L13.4414 154.384L20.1802 147.469L14.7517 142.236L25.4214 131.211L28.0421 133.827L19.993 142.05L25.4214 147.469L16.2492 157Z" fill="#FBBE3D"/>
<path d="M2.62063 116.037L0 113.42L6.55157 106.506L1.12313 101.273L11.7928 90.2473L14.6006 92.8636L6.36438 101.086L11.98 106.506L2.62063 116.037Z" fill="#FBBE3D"/>
<path d="M55.2912 102.894C56.8419 102.894 58.099 101.639 58.099 100.091C58.099 98.5429 56.8419 97.2878 55.2912 97.2878C53.7405 97.2878 52.4834 98.5429 52.4834 100.091C52.4834 101.639 53.7405 102.894 55.2912 102.894Z" fill="#FBBE3D"/>
</svg>
