<?xml version="1.0" encoding="UTF-8"?>
<svg id="_レイヤー_1" data-name="レイヤー_1" xmlns="http://www.w3.org/2000/svg" version="1.1" viewBox="0 0 204 64">
  <!-- Generator: Adobe Illustrator 29.6.1, SVG Export Plug-In . SVG Version: 2.1.1 Build 9)  -->
  <defs>
    <style>
      .st0 {
        fill: #4da3a8;
      }
    </style>
  </defs>
  <circle class="st0" cx="2" cy="2" r="2"/>
  <circle class="st0" cx="22" cy="2" r="2"/>
  <circle class="st0" cx="42" cy="2" r="2"/>
  <circle class="st0" cx="62" cy="2" r="2"/>
  <circle class="st0" cx="82" cy="2" r="2"/>
  <circle class="st0" cx="102" cy="2" r="2"/>
  <circle class="st0" cx="122" cy="2" r="2"/>
  <circle class="st0" cx="142" cy="2" r="2"/>
  <circle class="st0" cx="162" cy="2" r="2"/>
  <circle class="st0" cx="182" cy="2" r="2"/>
  <circle class="st0" cx="202" cy="2" r="2"/>
  <circle class="st0" cx="2" cy="22" r="2"/>
  <circle class="st0" cx="22" cy="22" r="2"/>
  <circle class="st0" cx="42" cy="22" r="2"/>
  <circle class="st0" cx="62" cy="22" r="2"/>
  <circle class="st0" cx="82" cy="22" r="2"/>
  <circle class="st0" cx="102" cy="22" r="2"/>
  <circle class="st0" cx="122" cy="22" r="2"/>
  <circle class="st0" cx="142" cy="22" r="2"/>
  <circle class="st0" cx="162" cy="22" r="2"/>
  <circle class="st0" cx="182" cy="22" r="2"/>
  <circle class="st0" cx="202" cy="22" r="2"/>
  <circle class="st0" cx="2" cy="42" r="2"/>
  <circle class="st0" cx="22" cy="42" r="2"/>
  <circle class="st0" cx="42" cy="42" r="2"/>
  <circle class="st0" cx="62" cy="42" r="2"/>
  <circle class="st0" cx="82" cy="42" r="2"/>
  <circle class="st0" cx="102" cy="42" r="2"/>
  <circle class="st0" cx="122" cy="42" r="2"/>
  <circle class="st0" cx="142" cy="42" r="2"/>
  <circle class="st0" cx="162" cy="42" r="2"/>
  <circle class="st0" cx="182" cy="42" r="2"/>
  <circle class="st0" cx="202" cy="42" r="2"/>
  <circle class="st0" cx="2" cy="62" r="2"/>
  <circle class="st0" cx="22" cy="62" r="2"/>
  <circle class="st0" cx="42" cy="62" r="2"/>
  <circle class="st0" cx="62" cy="62" r="2"/>
  <circle class="st0" cx="82" cy="62" r="2"/>
  <circle class="st0" cx="102" cy="62" r="2"/>
  <circle class="st0" cx="122" cy="62" r="2"/>
  <circle class="st0" cx="142" cy="62" r="2"/>
  <circle class="st0" cx="162" cy="62" r="2"/>
  <circle class="st0" cx="182" cy="62" r="2"/>
  <circle class="st0" cx="202" cy="62" r="2"/>
</svg>