<svg width="204" height="64" viewBox="0 0 204 64" fill="none" xmlns="http://www.w3.org/2000/svg">
<circle cx="2" cy="2" r="2" fill="#FBBE3D"/>
<circle cx="22" cy="2" r="2" fill="#FBBE3D"/>
<circle cx="42" cy="2" r="2" fill="#FBBE3D"/>
<circle cx="62" cy="2" r="2" fill="#FBBE3D"/>
<circle cx="82" cy="2" r="2" fill="#FBBE3D"/>
<circle cx="102" cy="2" r="2" fill="#FBBE3D"/>
<circle cx="122" cy="2" r="2" fill="#FBBE3D"/>
<circle cx="142" cy="2" r="2" fill="#FBBE3D"/>
<circle cx="162" cy="2" r="2" fill="#FBBE3D"/>
<circle cx="182" cy="2" r="2" fill="#FBBE3D"/>
<circle cx="202" cy="2" r="2" fill="#FBBE3D"/>
<circle cx="2" cy="22" r="2" fill="#FBBE3D"/>
<circle cx="22" cy="22" r="2" fill="#FBBE3D"/>
<circle cx="42" cy="22" r="2" fill="#FBBE3D"/>
<circle cx="62" cy="22" r="2" fill="#FBBE3D"/>
<circle cx="82" cy="22" r="2" fill="#FBBE3D"/>
<circle cx="102" cy="22" r="2" fill="#FBBE3D"/>
<circle cx="122" cy="22" r="2" fill="#FBBE3D"/>
<circle cx="142" cy="22" r="2" fill="#FBBE3D"/>
<circle cx="162" cy="22" r="2" fill="#FBBE3D"/>
<circle cx="182" cy="22" r="2" fill="#FBBE3D"/>
<circle cx="202" cy="22" r="2" fill="#FBBE3D"/>
<circle cx="2" cy="42" r="2" fill="#FBBE3D"/>
<circle cx="22" cy="42" r="2" fill="#FBBE3D"/>
<circle cx="42" cy="42" r="2" fill="#FBBE3D"/>
<circle cx="62" cy="42" r="2" fill="#FBBE3D"/>
<circle cx="82" cy="42" r="2" fill="#FBBE3D"/>
<circle cx="102" cy="42" r="2" fill="#FBBE3D"/>
<circle cx="122" cy="42" r="2" fill="#FBBE3D"/>
<circle cx="142" cy="42" r="2" fill="#FBBE3D"/>
<circle cx="162" cy="42" r="2" fill="#FBBE3D"/>
<circle cx="182" cy="42" r="2" fill="#FBBE3D"/>
<circle cx="202" cy="42" r="2" fill="#FBBE3D"/>
<circle cx="2" cy="62" r="2" fill="#FBBE3D"/>
<circle cx="22" cy="62" r="2" fill="#FBBE3D"/>
<circle cx="42" cy="62" r="2" fill="#FBBE3D"/>
<circle cx="62" cy="62" r="2" fill="#FBBE3D"/>
<circle cx="82" cy="62" r="2" fill="#FBBE3D"/>
<circle cx="102" cy="62" r="2" fill="#FBBE3D"/>
<circle cx="122" cy="62" r="2" fill="#FBBE3D"/>
<circle cx="142" cy="62" r="2" fill="#FBBE3D"/>
<circle cx="162" cy="62" r="2" fill="#FBBE3D"/>
<circle cx="182" cy="62" r="2" fill="#FBBE3D"/>
<circle cx="202" cy="62" r="2" fill="#FBBE3D"/>
</svg>
