<svg width="30" height="30" viewBox="0 0 30 30" fill="none" xmlns="http://www.w3.org/2000/svg">
<path d="M11.961 6.97763L7.85315 2.08057L6.28418 3.39765L10.3926 8.29539C10.8259 7.7629 11.3581 7.31451 11.961 6.97763Z" fill="white"/>
<path d="M18.794 8.29539L22.9024 3.39765L21.3335 2.08057L17.2256 6.97763C17.8285 7.31451 18.3607 7.7629 18.794 8.29539Z" fill="white"/>
<path d="M15.6243 6.39118V0H13.5762V6.39118C13.908 6.32737 14.2501 6.29271 14.6002 6.29271C14.9504 6.29271 15.2925 6.32737 15.6243 6.39118Z" fill="white"/>
<path d="M14.5992 7.75598C13.2883 7.75598 12.1251 8.39866 11.4062 9.38504L12.893 10.8723C13.2029 10.2412 13.8502 9.80477 14.5992 9.80477C15.3482 9.80477 15.9956 10.2412 16.3055 10.8723L17.7922 9.38504C17.0733 8.39866 15.9102 7.75598 14.5992 7.75598Z" fill="white"/>
<path d="M25.3997 16.9635C26.6172 15.0117 27.322 12.7084 27.322 10.2433V4.09705H25.2738V10.2433C25.2738 11.7282 24.9687 13.143 24.4189 14.4292L25.3997 16.9635Z" fill="white"/>
<path d="M21.3014 18.5459C19.4661 20.0334 17.1309 20.9271 14.5902 20.9271C12.0494 20.9271 9.7143 20.0335 7.87894 18.5459L7.1084 20.5371C9.20998 22.0699 11.7961 22.9759 14.5902 22.9759C17.3842 22.9759 19.9704 22.0698 22.072 20.5371L21.3014 18.5459Z" fill="white"/>
<path d="M4.76436 14.4291C4.21462 13.143 3.90948 11.7282 3.90948 10.2433V4.09705H1.86133V10.2433C1.86133 12.7084 2.56613 15.0117 3.78365 16.9635L4.76436 14.4291Z" fill="white"/>
<path d="M2.19636 29.9999L9.13072 12.0801L13.8709 16.822C14.271 17.2218 14.9193 17.2218 15.3193 16.822L20.0595 12.0801L26.9939 29.9999H29.1902L21.4021 9.87399C21.277 9.55101 20.9973 9.31306 20.6584 9.2416C20.32 9.16986 19.9678 9.27447 19.7228 9.51942L14.5951 14.6488L9.46746 9.51942C9.22244 9.27462 8.87085 9.16972 8.53182 9.2416C8.19294 9.31306 7.91321 9.55101 7.7882 9.87399L0 29.9999H2.19636Z" fill="white"/>
</svg>
