<?xml version="1.0" encoding="UTF-8"?>
<svg id="_レイヤー_2" data-name="レイヤー 2" xmlns="http://www.w3.org/2000/svg" width="411.94083" height="388.09595" viewBox="0 0 411.94083 388.09595">
  <g id="_レイヤー_2-2" data-name="レイヤー 2">
    <g>
      <path d="M278.61133,195.99292c-14.93555-4.14307-28.625-12.12451-39.58496-23.07861-10.96094-10.96826-18.94336-24.65771-23.08203-39.58838-.87695-3.16211-3.4043-5.59619-6.59766-6.35303-3.18945-.7583-6.54395.28467-8.74707,2.71631l-136.25,150.47314c-13.81152,15.26624-15.10889,37.5647-4.21997,54.14069-16.9624,16.31311-37.56909,28.96588-59.79272,36.6601l-.33691.11621,5.86914,17.0166.34668-.11963c24.51855-8.48883,47.25732-22.40332,66.01831-40.33936,8.42358,7.61511,19.07446,11.44922,29.74634,11.44922,10.64453,0,21.31055-3.81689,29.79688-11.50244l150.46973-136.24707c2.43164-2.20215,3.47266-5.55371,2.7168-8.74609-.75684-3.19287-3.19043-5.7207-6.35254-6.59766ZM119.69531,334.24145c-10.44043,9.45654-26.42383,9.05957-36.38672-.90479l-4.71289-4.70508c-9.95508-9.95996-10.34961-25.94629-.90039-36.39062l126.17871-139.35059c5.375,12.1626,12.97656,23.29834,22.42383,32.75146,9.44824,9.44287,20.58398,17.04443,32.74902,22.41992l-139.35156,126.17969Z" fill="#a685e2"/>
      <path d="M411.2041,91.04663c-2.84668-20.84082-13.7041-41.21143-31.39844-58.90918-17.69141-17.6958-38.06348-28.55371-58.91113-31.3999-22.66602-3.09668-44.12402,3.59668-62.0625,19.34961-.20215.17773-.39648.36426-.58203.55957l-20.16992,21.20166c-.25293.26514-.48828.5459-.70703.83984-13.34082,17.979-19.83203,40.2373-18.27734,62.6748,1.57031,22.66748,11.29395,44.01074,27.37793,60.09814,16.08789,16.0874,37.43262,25.81299,60.10352,27.38477,2.18652.15186,4.36914.22705,6.54785.22705,20.1875,0,39.90137-6.46191,56.12305-18.50439.29492-.21875.5752-.45508.84082-.70801l21.20215-20.18408c.19434-.18408.37891-.37695.55566-.57764,15.75879-17.93359,22.45215-39.39111,19.35742-62.05225ZM307.82227,174.8894c-18.33789-1.27197-35.60449-9.14014-48.62012-22.15527-13.0127-13.01562-20.87891-30.28076-22.14941-48.61523-.86621-12.49878,1.3562-24.92108,6.33765-36.19269,21.58887,45.28473,55.33398,79.03143,100.62036,100.62708-11.2666,4.97943-23.68604,7.20044-36.18848,6.33612ZM361.87598,156.82745c-25.06689-10.47388-46.70337-24.71582-64.37598-42.38971-17.67407-17.67499-31.91455-39.31445-42.38428-64.38202l7.75049-8.14709c26.21802,44.97729,62.18799,80.94458,107.16382,107.15637l-8.15405,7.76245ZM382.76904,135.61578c-45.19678-25.49054-80.95703-61.24823-106.45435-106.44702,12.64575-8.99792,27.08545-12.65326,42.14429-10.59674,16.67676,2.27686,33.94336,11.61426,48.61816,26.29199,14.67773,14.68115,24.01562,31.94775,26.29199,48.61865,2.05737,15.05884-1.59937,29.4931-10.6001,42.13312Z" fill="#a685e2"/>
    </g>
  </g>
</svg>