<?xml version="1.0" encoding="UTF-8"?>
<svg id="_レイヤー_2" data-name="レイヤー 2" xmlns="http://www.w3.org/2000/svg" width="418" height="418" viewBox="0 0 418 418">
  <g id="_レイヤー_2-2" data-name="レイヤー 2">
    <path d="M335.7002,418H82.2998c-4.9707,0-9-4.0293-9-9v-197.35059C30.9873,203.02197,0,165.69043,0,121.72217,0,71.09668,41.18701,29.91016,91.8125,29.91016c10.79248,0,21.31006,1.85205,31.3501,5.51416C145.89209,12.83838,176.82666,0,209,0s63.10791,12.83838,85.8374,35.42432c10.04004-3.66211,20.55762-5.51416,31.3501-5.51416,50.62549,0,91.8125,41.18652,91.8125,91.81201,0,43.96826-30.9873,81.2998-73.2998,89.92725v197.35059c0,4.9707-4.0293,9-9,9ZM91.2998,400h235.40039v-196.02588c0-4.57471,3.43164-8.42139,7.97656-8.94141,37.24023-4.26172,65.32324-35.77832,65.32324-73.31055,0-40.7002-33.1123-73.81201-73.8125-73.81201-10.40674,0-20.49316,2.1416-29.979,6.36475-3.55322,1.58301-7.71924.70264-10.32959-2.17822-19.63721-21.66895-47.65869-34.09668-76.87891-34.09668s-57.2417,12.42773-76.87891,34.09668c-2.61035,2.88184-6.77637,3.76172-10.32959,2.17822-9.48584-4.22314-19.57227-6.36475-29.979-6.36475-40.7002,0-73.8125,33.11182-73.8125,73.81201,0,37.53223,28.08301,69.04883,65.32324,73.31055,4.54492.52002,7.97656,4.3667,7.97656,8.94141v196.02588Z" fill="#fbbe3d"/>
  </g>
</svg>