<?xml version="1.0" encoding="UTF-8"?>
<svg id="_レイヤー_2" data-name="レイヤー 2" xmlns="http://www.w3.org/2000/svg" width="418" height="312.29492" viewBox="0 0 418 312.29492">
  <g id="_レイヤー_2-2" data-name="レイヤー 2">
    <g>
      <path d="M415.72656,222.06836l-23.15625-26.05096c-.66431-35.96698-11.68896-70.53015-31.98535-100.16583-20.14282-29.41241-48.07031-52.12988-80.81934-65.81799-1.18677-1.05975-2.41455-2.20294-3.69922-3.40027C264.00781,15.39355,247.49414,0,209,0s-55.00977,15.39404-67.06738,26.63428c-1.28418,1.19659-2.51123,2.33942-3.69727,3.39893-32.74951,13.68811-60.67725,36.40564-80.82129,65.81836-20.29663,29.63599-31.32104,64.20007-31.98535,100.16699l-23.15527,26.0498c-1.46484,1.64746-2.27344,3.77539-2.27344,5.97949,0,24.1167,22.87402,46.00439,64.40918,61.63135,38.76367,14.58398,90.11328,22.61572,144.59082,22.61572s105.82715-8.03174,144.59082-22.61572c41.53516-15.62695,64.40918-37.51465,64.40918-61.63135,0-2.2041-.80859-4.33203-2.27344-5.97949ZM263.47534,39.50403c-4.38696,7.59863-12.2876,21.28241-21.02515,36.41589-6.98047,12.09082-19.48535,19.30957-33.4502,19.30957s-26.46973-7.21875-33.4502-19.30957l-21.0249-36.41608c10.88574-10.14496,23.37085-21.50385,54.4751-21.50385s43.58838,11.35913,54.47534,21.50403ZM72.26562,106.02246c16.96777-24.77539,40.04297-44.30029,67.06738-56.83154l20.62891,35.729c10.2334,17.72656,28.56641,28.30957,49.03809,28.30957s38.80469-10.58301,49.03809-28.30957l20.62891-35.729c27.02441,12.53125,50.09961,32.05615,67.06738,56.83154,17.78906,25.97559,27.67969,56.15674,28.76758,87.62305-55.00195,23.78125-110.65137,35.8335-165.50195,35.8335s-110.50098-12.05225-165.50293-35.8335c1.08789-31.46582,10.97852-61.64746,28.76855-87.62305ZM347.25195,272.83203c-36.78711,13.84033-85.88574,21.46289-138.25195,21.46289s-101.46484-7.62256-138.25195-21.46289c-31.31055-11.78027-50.14941-26.79883-52.49805-41.64307l18.52612-20.84253c57.13281,24.6413,115.04126,37.13257,172.22388,37.13257s115.09155-12.49127,172.22363-37.13281l18.52637,20.84277c-2.34863,14.84424-21.1875,29.86279-52.49805,41.64307Z" fill="#fbbe3d"/>
      <polygon points="218 201.47705 218 178.7915 240.68555 178.7915 240.68555 160.7915 218 160.7915 218 138.10596 200 138.10596 200 160.7915 177.31445 160.7915 177.31445 178.7915 200 178.7915 200 201.47705 218 201.47705" fill="#fbbe3d"/>
    </g>
  </g>
</svg>