<?xml version="1.0" encoding="UTF-8"?>
<svg id="_レイヤー_2" data-name="レイヤー 2" xmlns="http://www.w3.org/2000/svg" width="418.18213" height="427.854" viewBox="0 0 418.18213 427.854">
  <g id="_レイヤー_2-2" data-name="レイヤー 2">
    <g>
      <path d="M409.18213,9.854h-42.41016v18h33.34229c-1.98242,130.41162-47.62646,193.83838-139.36768,193.83838S123.36133,158.26562,121.37891,27.854h33.34229V9.854h-42.41016c-4.9707,0-9,4.0293-9,9,0,59.35596,8.18115,105.32764,25.01123,140.54199,24.22107,50.67938,65.72632,77.57629,123.42432,80.08386v130.88586c0,21.77393-17.71436,39.48828-39.48877,39.48828h-26.19629c-21.77393,0-39.48828-17.71436-39.48828-39.48828v-37.53564c0-31.69922-25.78955-57.48828-57.48877-57.48828s-57.48877,25.78906-57.48877,57.48828v14.85004c-18.06604,4.10687-31.5957,20.28693-31.5957,39.57819,0,22.38477,18.21094,40.5957,40.5957,40.5957s40.59619-18.21094,40.59619-40.5957c0-19.29126-13.53003-35.47131-31.59619-39.57819v-14.85004c0-21.77393,17.71436-39.48828,39.48877-39.48828s39.48877,17.71436,39.48877,39.48828v37.53564c0,31.69922,25.78906,57.48828,57.48828,57.48828h26.19629c31.69922,0,57.48877-25.78906,57.48877-57.48828v-130.88586c57.698-2.50757,99.20325-29.40448,123.42432-80.08386,16.83008-35.21436,25.01123-81.18604,25.01123-140.54199,0-4.9707-4.0293-9-9-9ZM63.19189,387.2583c0,12.45947-10.13672,22.5957-22.59619,22.5957s-22.5957-10.13623-22.5957-22.5957,10.13623-22.59619,22.5957-22.59619,22.59619,10.13672,22.59619,22.59619Z" fill="#ff66b2"/>
      <rect x="167.50928" width="18" height="37.70801" fill="#ff66b2"/>
      <rect x="335.98389" width="18" height="37.70801" fill="#ff66b2"/>
    </g>
  </g>
</svg>