<?xml version="1.0" encoding="UTF-8"?>
<svg id="_レイヤー_2" data-name="レイヤー 2" xmlns="http://www.w3.org/2000/svg" width="400" height="273.35156" viewBox="0 0 400 273.35156">
  <g id="_レイヤー_2-2" data-name="レイヤー 2">
    <g>
      <path d="M36.67578,237.41895h326.64844c4.9707,0,9-4.0293,9-9V9c0-4.9707-4.0293-9-9-9H36.67578c-4.9707,0-9,4.0293-9,9v219.41895c0,4.9707,4.0293,9,9,9ZM45.67578,18h308.64844v201.41895H45.67578V18Z" fill="#ff66b2"/>
      <rect y="255.35156" width="400" height="18" fill="#ff66b2"/>
      <path d="M166.01416,96.67969l-12.72754-12.72852-34.41455,34.41504c-3.51514,3.51465-3.51465,9.21387,0,12.72852l35.90186,35.90137,12.72754-12.72852-29.5376-29.53711,28.05029-28.05078Z" fill="#ff66b2"/>
      <path d="M245.22656,83.95117l-12.72852,12.72852,29.53809,29.53809-28.05029,28.0498,12.72754,12.72852,34.41455-34.41406c1.68799-1.68848,2.63623-3.97754,2.63623-6.36426s-.94824-4.67578-2.63623-6.36426l-35.90137-35.90234Z" fill="#ff66b2"/>
      <rect x="151.95823" y="116.79318" width="96.08354" height="17.99958" transform="translate(13.38898 270.70743) rotate(-69.9999)" fill="#ff66b2"/>
    </g>
  </g>
</svg>