<?xml version="1.0" encoding="UTF-8"?>
<svg id="_レイヤー_2" xmlns="http://www.w3.org/2000/svg" version="1.1" viewBox="0 0 350.5 350.5">
  <!-- Generator: Adobe Illustrator 29.6.1, SVG Export Plug-In . SVG Version: 2.1.1 Build 9)  -->
  <defs>
    <style>
      .st0 {
        fill: #ff66b2;
      }
    </style>
  </defs>
  <g id="_レイヤー_2-2">
    <path class="st0" d="M337.8,122.6l12.7-12.7L240.6,0l-12.7,12.7,34,34-14.2,14.2-18.1-18.1c-3.5-3.5-9.2-3.5-12.7,0L30.5,229.3c-3.5,3.5-3.5,9.2,0,12.7l20.7,20.7-26,26c-3.5,3.5-3.5,9.2,0,12.7l5.6,5.6L0,337.8l12.7,12.7,30.7-30.7,5.6,5.6c3.5,3.5,9.2,3.5,12.7,0l26-26,20.7,20.7c3.5,3.5,9.2,3.5,12.7,0l186.4-186.4c3.5-3.5,3.5-9.2,0-12.7l-18.1-18.1,14.2-14.2,34,34h0ZM274.6,59.5l16.4,16.4-14.2,14.2-16.4-16.4,14.2-14.2ZM55.4,306.3l-11.2-11.2,19.7-19.7,11.2,11.2-19.7,19.7ZM288.6,127.3l-173.7,173.7-65.3-65.3,25.3-25.3,25.5,25.5,12.7-12.7-25.5-25.5,14.9-14.9,25.5,25.5,12.7-12.7-25.5-25.5,14.9-14.9,25.5,25.5,12.7-12.7-25.5-25.5,14.9-14.9,25.5,25.5,12.7-12.7-25.5-25.5,52.9-52.9,65.3,65.3Z"/>
  </g>
</svg>