<?xml version="1.0" encoding="UTF-8"?>
<svg id="_レイヤー_2" data-name="レイヤー 2" xmlns="http://www.w3.org/2000/svg" width="417.99988" height="417.99951" viewBox="0 0 417.99988 417.99951">
  <g id="_レイヤー_2-2" data-name="レイヤー 2">
    <path d="M415.36389,88.1001L329.89905,2.63525c-3.51465-3.51367-9.21289-3.51367-12.72754,0L48.65393,271.15283c-.97333.97351-1.67487,2.14227-2.11395,3.39752l-.01691-.00592L.50549,406.02686c-1.14209,3.2627-.31396,6.8916,2.13086,9.33691,1.71631,1.7168,4.01709,2.63574,6.36523,2.63574.99561,0,2-.16504,2.97168-.50488l131.48242-46.01758-.00366-.0105c1.25494-.43903,2.42126-1.14764,3.39429-2.12036L415.36389,100.82861c3.51465-3.51465,3.51465-9.21387,0-12.72852ZM293.53778,51.72467l30.00446,30.00427-212.68774,212.6886c-10.87451-9.16077-23.76044-16.29755-38.63953-21.3692L293.53778,51.72467ZM42.09229,387.88184l-18.42273,6.44775,6.44763-18.4223c4.79315-.30048,8.30872.39532,9.94446,2.0307,1.63562,1.63599,2.33069,5.15143,2.03064,9.94385ZM59.93933,381.63556c-.68176-6.83875-3.06482-12.33997-7.14966-16.42511-4.08508-4.08539-9.58667-6.46881-16.42615-7.15039l24.41217-69.7511c35.8598,10.41388,58.50165,33.05505,68.91534,68.91418l-69.75171,24.41241ZM144.95178,345.78467c-5.07184-14.87878-12.20856-27.76459-21.36926-38.63904l212.68781-212.68872,30.0047,30.00452-221.32324,221.32324ZM379.00305,111.7334l-72.73724-72.73682,17.26947-17.26953,72.73682,72.7373-17.26904,17.26904Z" fill="#4da3a8"/>
  </g>
</svg>