<?xml version="1.0" encoding="UTF-8"?>
<svg id="_レイヤー_2" data-name="レイヤー 2" xmlns="http://www.w3.org/2000/svg" width="415.36377" height="415.36426" viewBox="0 0 415.36377 415.36426">
  <g id="_レイヤー_2-2" data-name="レイヤー 2">
    <g>
      <path d="M275.4873,0c-77.12793,0-139.87646,62.74902-139.87646,139.87695s62.74854,139.87598,139.87646,139.87598,139.87646-62.74805,139.87646-139.87598S352.61523,0,275.4873,0ZM153.61084,139.87695c0-42.15149,21.51172-79.3703,54.13062-101.26398,14.73706,33.71362,22.2229,67.73212,22.2229,101.263s-7.48584,67.55042-22.2229,101.26422c-32.6189-21.89343-54.13062-59.11182-54.13062-101.26324ZM223.48462,250.08533c32.51636-73.17456,32.51636-147.24304,0-220.4176,15.78149-7.47668,33.41089-11.66772,52.00269-11.66772s36.22119,4.19104,52.00269,11.66772c-32.51636,73.17456-32.51636,147.24304,0,220.4176-15.78149,7.47656-33.41089,11.6676-52.00269,11.6676s-36.22119-4.19104-52.00269-11.6676ZM343.23315,241.1402c-14.73706-33.71381-22.2229-67.73236-22.2229-101.26422s7.48584-67.54938,22.2229-101.263c32.6189,21.89368,54.13062,59.11249,54.13062,101.26398s-21.51172,79.36981-54.13062,101.26324Z" fill="#fbbe3d"/>
      <rect x="-20.69636" y="334.67082" width="184.77895" height="18.00015" transform="translate(-222.01324 151.35301) rotate(-44.99989)" fill="#fbbe3d"/>
      <rect x="-20.69636" y="274.67082" width="184.77895" height="18.00015" transform="translate(-179.58144 133.77033) rotate(-44.9978)" fill="#fbbe3d"/>
      <rect x="39.30364" y="334.67082" width="184.77895" height="18.00015" transform="translate(-204.43425 193.76708) rotate(-44.9978)" fill="#fbbe3d"/>
    </g>
  </g>
</svg>