<?xml version="1.0" encoding="UTF-8"?>
<svg id="_レイヤー_2" data-name="レイヤー 2" xmlns="http://www.w3.org/2000/svg" width="356" height="409" viewBox="0 0 356 409">
  <g id="_レイヤー_2-2" data-name="レイヤー 2">
    <g>
      <path d="M336.76562,230.50195l-33.57812-26.86212v-78.45233C303.1875,56.15918,247.02881,0,178,0S52.8125,56.15918,52.8125,125.1875v78.45233l-33.57812,26.86212C7.01074,240.28125,0,254.86719,0,270.52148v32.50684c0,16.61133,13.51416,30.125,30.125,30.125h295.75c16.61084,0,30.125-13.51367,30.125-30.125v-32.50684c0-15.6543-7.01074-30.24023-19.23438-40.01953ZM70.8125,125.1875c0-59.10352,48.08398-107.1875,107.1875-107.1875s107.1875,48.08398,107.1875,107.1875v189.96582H70.8125V125.1875ZM52.8125,315.15332h-22.6875c-6.68555,0-12.125-5.43945-12.125-12.125v-32.50684c0-10.15625,4.54834-19.61914,12.47852-25.96289l22.33398-17.86719v88.46191ZM338,303.02832c0,6.68555-5.43945,12.125-12.125,12.125h-22.6875v-88.46191l22.33398,17.86719c7.93018,6.34375,12.47852,15.80664,12.47852,25.96289v32.50684Z" fill="#1c0083"/>
      <path d="M178,196.92188c31.42969,0,57-25.57031,57-57.00098s-25.57031-57-57-57-57,25.57031-57,57,25.57031,57.00098,57,57.00098ZM178,100.9209c21.50488,0,39,17.49512,39,39s-17.49512,39.00098-39,39.00098-39-17.49609-39-39.00098,17.49512-39,39-39Z" fill="#1c0083"/>
      <rect x="138.60449" y="347.52832" width="18" height="61.47168" fill="#1c0083"/>
      <rect x="169" y="347.52832" width="18" height="61.47168" fill="#1c0083"/>
      <rect x="199.39551" y="347.52832" width="18" height="61.47168" fill="#1c0083"/>
    </g>
  </g>
</svg>