<?xml version="1.0" encoding="UTF-8"?>
<svg id="_レイヤー_2" data-name="レイヤー 2" xmlns="http://www.w3.org/2000/svg" width="391.75586" height="418" viewBox="0 0 391.75586 418">
  <g id="_レイヤー_2-2" data-name="レイヤー 2">
    <path d="M195.87744,418c-8.45947,0-15.36816-5.57031-19.23779-9.57031h-49.46289c-8.76758,0-16.55566-6.27197-19.38037-15.60693-3.37793-11.16406,1.02002-22.76172,11.20459-29.5459,10.67676-7.12939,26.99365-18.91943,34.23438-24.18506v-76.9585l-135.53076,35.41895c-4.29102,1.33203-8.69385.69092-12.13477-1.78076-3.53955-2.54248-5.56982-6.66846-5.56982-11.31982v-44.29932c0-6.70752,4.16113-14.11328,9.89404-17.6084.28369-.17334.57715-.33057.87891-.47168l133.88037-62.48047V62.85791c0-14.14258,5.07129-29.62988,13.56592-41.42969C168.16699,7.60986,181.54102,0,195.87744,0s27.71045,7.60986,37.65869,21.42822c8.49414,11.7998,13.56543,27.28711,13.56543,41.42969v96.73389l133.88135,62.48047c.29688.13867.58594.29346.86621.46338,5.73828,3.48584,9.90479,10.89404,9.90674,17.61523v44.30127c0,4.64844-2.02832,8.77295-5.56445,11.31543-3.44238,2.4751-7.85107,3.11963-12.14941,1.78564l-135.52148-35.41943v76.95801c7.24072,5.26562,23.56006,17.05713,34.24268,24.19092,10.17627,6.77832,14.57422,18.37598,11.19629,29.54004-2.82471,9.33496-10.61279,15.60693-19.38037,15.60693h-49.46338c-3.87012,3.99951-10.77881,9.57031-19.23828,9.57031ZM162.23486,241.479c1.97021,0,3.90869.64697,5.50146,1.87695,2.20654,1.7041,3.49902,4.33496,3.49902,7.12305v93.18799c0,2.86768-1.36621,5.56348-3.6792,7.25879-.98291.72021-24.23682,17.75635-38.56738,27.32617-5.24805,3.49561-4.36035,8.04639-3.96387,9.35791.54932,1.81543,1.62109,2.81982,2.15186,2.81982h53.56494c2.83545,0,5.50537,1.33643,7.20459,3.60645,2.09473,2.73926,6.03223,5.96387,7.93115,5.96387s5.8374-3.2251,7.9585-5.99902c1.70264-2.22705,4.37451-3.57129,7.17822-3.57129h53.56494c.53076,0,1.60254-1.00439,2.15186-2.81982.39648-1.31152,1.28418-5.8623-3.95557-9.35254-14.33887-9.5752-37.59277-26.61133-38.57568-27.33154-2.31299-1.69531-3.6792-4.39111-3.6792-7.25879v-93.1875c0-2.78809,1.29248-5.41895,3.49902-7.12305,2.20654-1.70459,5.07666-2.29004,7.77686-1.58447l141.95947,37.10205v-38.7207c-.05176-.51758-.64648-1.62305-1.13965-2.12158l-138.3208-64.55273c-3.16846-1.479-5.19385-4.65918-5.19385-8.15576V62.85791c0-25.26318-17.85986-44.85791-33.22412-44.85791s-33.22412,19.59473-33.22412,44.85791v102.46533c0,3.49658-2.02539,6.67676-5.19385,8.15576L19.12305,238.03906c-.45996.47168-1.06934,1.59863-1.125,2.17871l.00146,38.65283,141.96045-37.09912c.75049-.19629,1.51514-.29248,2.2749-.29248Z" fill="#4da3a8"/>
  </g>
</svg>