<?xml version="1.0" encoding="UTF-8"?>
<svg id="_レイヤー_2" data-name="レイヤー 2" xmlns="http://www.w3.org/2000/svg" width="385.89963" height="418" viewBox="0 0 385.89963 418">
  <g id="_レイヤー_2-2" data-name="レイヤー 2">
    <g>
      <path d="M126.8291,120.98291c-1.69434,8.76221-2.55371,17.76807-2.55371,26.76709,0,77.33398,62.91602,140.25,140.25,140.25v-18c-67.40918,0-122.25-54.84131-122.25-122.25,0-7.85498.74902-15.71094,2.22559-23.3501l-17.67188-3.41699Z" fill="#1c0083"/>
      <path d="M299.77539,147.75c0-19.43701-15.81348-35.25-35.25-35.25s-35.25,15.81299-35.25,35.25,15.81348,35.25,35.25,35.25,35.25-15.81299,35.25-35.25ZM247.27539,147.75c0-9.51172,7.73828-17.25,17.25-17.25s17.25,7.73828,17.25,17.25-7.73828,17.25-17.25,17.25-17.25-7.73828-17.25-17.25Z" fill="#1c0083"/>
      <path d="M218.02539,357.23047c-77.70605-4.6709-139.5-69.37109-139.5-148.23047S140.31934,65.44043,218.02539,60.76953v35.73047h18v-45c0-4.9707-4.0293-9-9-9-27.78491,0-53.99609,6.85083-77.0498,18.93707l-31.43555-39.29449C107.28223,8.0708,90.48926,0,72.46875,0h-38.46875C15.25195,0,0,15.25244,0,34v350c0,18.74756,15.25195,34,34,34h38.46875c18.02051,0,34.81348-8.0708,46.07227-22.14307l31.43457-39.29401c23.05347,12.08624,49.26489,18.93707,77.0498,18.93707,4.9707,0,9-4.0293,9-9v-45h-18v35.73047ZM104.48535,384.6123c-7.82422,9.7793-19.49316,15.3877-32.0166,15.3877h-38.46875c-8.82227,0-16-7.17773-16-16V34c0-8.82227,7.17773-16,16-16h38.46875c12.52344,0,24.19238,5.6084,32.01562,15.38721l29.87744,37.34747c-44.49878,29.91968-73.83643,80.72925-73.83643,138.26532s29.33765,108.3457,73.83643,138.26532l-29.87646,37.34698Z" fill="#1c0083"/>
      <path d="M381.39648,253.09277c-.22461-.12939-51.33887-29.64014-76.37109-44.09277l72.51172-41.86426c5.56738-3.21436,8.36133-4.82764,8.36133-10.02393,0-1.16504-.22656-2.31934-.66602-3.39844-10.86523-26.64355-29.2002-49.3501-53.02148-65.66504-24.40527-16.71387-52.99707-25.54834-82.68555-25.54834v18c49.87207,0,94.53809,28.34766,115.87207,72.85986-21.13379,12.20117-82.87207,47.8457-82.87207,47.8457-2.78418,1.60791-4.5,4.5791-4.5,7.79443s1.71582,6.18652,4.5,7.79443c51.15723,29.53564,73.27051,42.30225,82.87305,47.84326-21.33301,44.51221-66.00098,72.8623-115.87305,72.8623v18c29.68848,0,58.28027-8.83447,82.68555-25.54834,23.82129-16.31494,42.15625-39.02148,53.02148-65.66504,1.69824-4.16553.05957-8.94531-3.83594-11.19385Z" fill="#1c0083"/>
    </g>
  </g>
</svg>