<?xml version="1.0" encoding="UTF-8"?>
<svg id="_レイヤー_2" data-name="レイヤー 2" xmlns="http://www.w3.org/2000/svg" width="407.19822" height="418.00386" viewBox="0 0 407.19822 418.00386">
  <g id="_レイヤー_2-2" data-name="レイヤー 2">
    <path d="M88.7702,418.00386c-2.12891,0-3.7002-.14648-4.60059-.26123-4.56152-.25635-8.64551-2.86133-10.79785-6.94385-2.30273-4.36768-1.94824-9.5874.92676-13.61963l3.78906-5.30469,23.06348-32.38721c.81445-1.13818.77051-2.3916.59277-3.24561-.30859-1.47949-1.22363-2.82715-2.5752-3.79443l-37.94043-27.14893c-2.5166-1.79785-5.85742-1.62305-7.29004.38037l-26.50879,37.22412c-2.93066,4.04053-7.74023,6.05127-12.59863,5.30566-4.6543-.75537-8.43359-3.82031-10.11426-8.09619-.70215-1.47021-2.08887-4.79346-3.1084-9.90234-5.86621-29.59766,4.56641-60.31348,27.22363-80.17188,12.54297-10.98291,27.86621-17.96045,44.31641-20.18018.41699-.05713.96094-.12744,1.60352-.20996,28.46777-3.66943,39.13574-9.12158,43.07129-13.0498,5.80176-5.81006,40.75488-40.76025,73.93652-73.93848l42.52441-42.52197c6.01172-9.52588,4.77246-24.09717,4.09961-32.00635-.21191-2.48828-.36523-4.28613-.32422-5.84668.56445-23.58545,11.06152-46.03613,28.7998-61.57617,12.70996-11.13867,28.25586-18.1499,44.95605-20.27441,5.52637-.70459,9.49219-.38867,11.18262-.17725,4.58008.23389,8.67871,2.83252,10.84082,6.93408.01562.0293.03125.05908.0459.08887,2.2373,4.35791,1.85938,9.54346-.98438,13.53223l-3.78906,5.30469-23.0625,32.39746c-1.44238,2.01807-.52246,5.24121,1.99805,7.05225l37.9248,27.13818c2.50684,1.78564,5.85645,1.60742,7.2959-.40186l26.52637-37.2207c2.84668-4.03174,7.70801-6.07617,12.64355-5.27637,4.50684.70215,8.37695,3.83887,10.04883,8.09326.7041,1.47363,2.08594,4.79004,3.10352,9.87793,5.86621,29.59766-4.56055,60.3125-27.20703,80.1748-12.57422,10.99854-27.90137,17.979-44.33203,20.19482-.41211.05518-.92871.12158-1.53809.19971-30.00488,3.83789-39.88379,9.81592-43.10254,13.0376l-116.48438,116.48438c-6.0293,9.53857-4.7793,24.11426-4.10156,32.02539.21191,2.46533.36426,4.24658.32715,5.79443h0c-.56445,23.59229-11.06445,46.04639-28.80762,61.60498-12.71289,11.12842-28.25586,18.13818-44.95215,20.27588-2.56738.32764-4.79883.43506-6.62109.43506ZM57.50848,306.06441c4.87109,0,9.85156,1.49463,14.18652,4.58984l37.94727,27.15381c5.03613,3.60303,8.48926,8.84521,9.72266,14.76025,1.29004,6.19043.02539,12.36182-3.56348,17.37695l-21.03223,29.53516c12.50195-1.91992,24.12793-7.33691,33.71289-15.72656,13.96289-12.24414,22.22949-29.92236,22.6748-48.49658v-.00049c.0127-.56152-.1416-2.37109-.2666-3.8252-.82227-9.59033-2.53418-29.5459,7.5957-44.36133.31445-.46045.67188-.89014,1.06543-1.28467l117.12695-117.12646c11.61816-11.63037,36.12695-15.93896,53.55078-18.16797l1.41406-.18311c12.9209-1.74219,24.98145-7.23926,34.87891-15.89746,17.13965-15.03174,25.38867-37.97754,21.88867-60.43604l-20.49609,28.79102c-7.24609,10.1084-21.77344,12.15771-32.40137,4.58936l-37.95605-27.16016c-10.61719-7.62891-13.37598-22.03857-6.16309-32.13232l21.02734-29.53906c-12.5,1.91211-24.12012,7.32764-33.7002,15.72314-13.96094,12.23145-22.22266,29.9043-22.66797,48.48828-.01465.58057.14062,2.40479.26562,3.87061.40234,4.729,1.00977,11.87646.375,19.59473-.81152,9.85791-3.49219,18.17822-7.96777,24.73047-.31543.46143-.67285.89258-1.06738,1.2876l-43.17285,43.16992c-33.17676,33.17383-68.125,68.11963-73.9375,73.93994-11.63086,11.60791-36.10059,15.92969-53.49512,18.17188-.58984.07617-1.08887.14014-1.4834.19434-12.9502,1.74756-25.00586,7.23926-34.87695,15.88281-17.15234,15.03369-25.40527,37.97852-21.90527,60.43848l20.49707-28.79053c4.28809-5.99805,11.13965-9.16064,18.22363-9.16064ZM394.46063,65.51607l-.04199.05859c.01465-.01904.02832-.03857.04199-.05859Z" fill="#4da3a8"/>
  </g>
</svg>