<?xml version="1.0" encoding="UTF-8"?>
<svg id="_レイヤー_2" data-name="レイヤー 2" xmlns="http://www.w3.org/2000/svg" width="362.5127" height="415.36377" viewBox="0 0 362.5127 415.36377">
  <g id="_レイヤー_2-2" data-name="レイヤー 2">
    <g>
      <path d="M259.23291,238.50977c-17.43164,0-31.61377,14.18604-31.61377,31.62256,0,17.42725,14.18213,31.60498,31.61377,31.60498s31.61279-14.17773,31.61279-31.60498c0-17.43652-14.18164-31.62256-31.61279-31.62256ZM259.23291,283.7373c-7.50684,0-13.61377-6.10303-13.61377-13.60498,0-7.51172,6.10693-13.62256,13.61377-13.62256,7.50635,0,13.61279,6.11084,13.61279,13.62256,0,7.50195-6.10645,13.60498-13.61279,13.60498Z" fill="#a685e2"/>
      <path d="M134.89355,270.13232c0-17.43652-14.18213-31.62256-31.61377-31.62256s-31.61279,14.18604-31.61279,31.62256c0,17.42725,14.18164,31.60498,31.61279,31.60498s31.61377-14.17773,31.61377-31.60498ZM89.66699,270.13232c0-7.51172,6.10645-13.62256,13.61279-13.62256,7.50684,0,13.61377,6.11084,13.61377,13.62256,0,7.50195-6.10693,13.60498-13.61377,13.60498-7.50635,0-13.61279-6.10303-13.61279-13.60498Z" fill="#a685e2"/>
      <path d="M99.99854,215.35596h162.52295c13.74512,0,24.92725-11.18213,24.92725-24.92725v-67.21094c0-13.74902-11.18213-24.93457-24.92725-24.93457H99.99756c-13.7417,0-24.92139,11.18555-24.92139,24.93457l.00098,67.21094c0,13.74512,11.17969,24.92725,24.92139,24.92725ZM99.99756,116.2832h162.52393c3.81982,0,6.92725,3.11084,6.92725,6.93457v67.21094c0,3.81982-3.10742,6.92725-6.92725,6.92725H99.99854c-3.81641,0-6.92139-3.10742-6.92139-6.92725l-.00098-67.21094c.00049-3.82324,3.10498-6.93457,6.92139-6.93457Z" fill="#a685e2"/>
      <path d="M120.58496,83.86475h121.34277c4.9707,0,9-4.0293,9-9v-36.479c0-4.9707-4.0293-9-9-9h-121.34277c-4.9707,0-9,4.0293-9,9v36.479c0,4.9707,4.0293,9,9,9ZM129.58496,47.38574h103.34277v18.479h-103.34277v-18.479Z" fill="#a685e2"/>
      <path d="M290.61755,330.74109c24.59509-10.21606,41.20471-33.586,41.20471-60.3197V75.81299C331.82227,34.00977,296.35352,0,252.75635,0H109.75635C66.15918,0,30.69043,34.00977,30.69043,75.81299v194.6084c0,26.73553,16.60962,50.1037,41.20593,60.31848L0,402.63623l12.72754,12.72754,13.61816-13.61816h309.82129l13.61816,13.61816,12.72754-12.72754-71.89514-71.89514ZM48.69043,270.42139V75.81299c0-31.87842,27.39404-57.81299,61.06592-57.81299h143c33.67188,0,61.06592,25.93457,61.06592,57.81299v194.6084c0,23.0127-17.23438,42.63916-41.08447,46.92383H89.78857c-23.85693-4.27979-41.09814-23.90674-41.09814-46.92383ZM284.9668,350.54541H77.5459l15.2002-15.2002h177.02051l15.2002,15.2002ZM44.3457,383.74561l15.2002-15.2002h243.4209l15.2002,15.2002H44.3457Z" fill="#a685e2"/>
    </g>
  </g>
</svg>