<?xml version="1.0" encoding="UTF-8"?>
<svg id="_レイヤー_2" data-name="レイヤー 2" xmlns="http://www.w3.org/2000/svg" width="417.98592" height="312.07422" viewBox="0 0 417.98592 312.07422">
  <g id="_レイヤー_2-2" data-name="レイヤー 2">
    <g>
      <path d="M417.39604,217.67578c-5.10645-68.05762-20.90479-124.22754-45.68799-162.43164C348.5977,19.61914,317.74857,0,284.84379,0c-28.99414,0-46.33398,12.62598-58.99512,21.84473-6.90186,5.02441-12.35352,8.99414-16.85498,8.99414-4.50586,0-9.96533-3.97266-16.87793-9.00195C179.44975,12.62109,162.10307,0,133.14262,0c-32.90479,0-63.75342,19.61914-86.86377,55.24414C21.49516,93.44824,5.69633,149.61816.58988,217.67578c-4.23584,47.15625,14.52979,81.57617,50.20557,92.07812,5.2876,1.55664,10.71484,2.32129,16.24316,2.32031,29.84082-.00195,62.479-22.28906,90.14209-62.47168,18.26758-26.54688,37.15283-41.77246,51.81299-41.77246,14.65869,0,33.54346,15.22559,51.81348,41.77441,27.6665,40.18652,60.29834,62.47363,90.14111,62.46973,5.52344,0,10.95801-.76465,16.24121-2.32031,35.67676-10.5,54.44238-44.91992,50.20654-92.07812ZM362.106,292.48633c-25.60449,7.53906-58.73779-12.80273-86.47168-53.08789-28.19336-40.96875-51.80078-49.56836-66.64062-49.56836-26.88818,0-51.08105,26.95605-66.64014,49.56738-27.73486,40.28711-60.86914,60.63086-86.47412,53.08887-27.22021-8.0127-40.83594-34.71484-37.35645-73.25977.00439-.0459.0083-.0918.01172-.1377,4.87549-65.08789,19.69092-118.35645,42.84473-154.04785,19.96387-30.77441,44.7793-47.04102,71.76318-47.04102,23.10547,0,36.53467,9.77148,48.3833,18.39258,8.79688,6.40039,17.10645,12.44629,27.46777,12.44629,10.36035,0,18.66162-6.04395,27.4502-12.44336,11.84229-8.62207,25.26465-18.39551,48.3999-18.39551,26.98438,0,51.7998,16.2666,71.76318,47.04102,23.15381,35.69141,37.96924,88.95996,42.84424,154.04785.00342.0459.00732.0918.01172.1377,3.47949,38.54688-10.13574,65.24902-37.35693,73.25977Z" fill="#a685e2"/>
      <circle cx="274.89201" cy="120.98325" r="14.99997" fill="#a685e2"/>
      <circle cx="306.71183" cy="89.16342" r="14.99997" fill="#a685e2"/>
      <path d="M296.10514,142.19641c-5.85779,5.85791-5.85779,15.35535,0,21.21326,5.85791,5.85785,15.35535,5.85785,21.21326,0,5.85791-5.85791,5.85791-15.35535,0-21.21326-5.85791-5.85785-15.35535-5.85785-21.21326,0Z" fill="#a685e2"/>
      <path d="M327.92497,110.37659c-5.85779,5.85791-5.85779,15.35535,0,21.21326,5.85791,5.85785,15.35535,5.85785,21.21326,0,5.85791-5.85791,5.85791-15.35535,0-21.21326-5.85791-5.85785-15.35535-5.85785-21.21326,0Z" fill="#a685e2"/>
      <polygon points="128.31449 91.50586 110.31449 91.50586 110.31449 117.40625 84.41361 117.40625 84.41361 135.40625 110.31449 135.40625 110.31449 161.30762 128.31449 161.30762 128.31449 135.40625 154.21537 135.40625 154.21537 117.40625 128.31449 117.40625 128.31449 91.50586" fill="#a685e2"/>
    </g>
  </g>
</svg>