<?xml version="1.0" encoding="UTF-8"?>
<svg id="_レイヤー_2" data-name="レイヤー 2" xmlns="http://www.w3.org/2000/svg" width="417.99799" height="278.0835" viewBox="0 0 417.99799 278.0835">
  <g id="_レイヤー_2-2" data-name="レイヤー 2">
    <g>
      <path d="M351.4653,213.89453H66.53269c-3.21777,0-6.19092,1.71777-7.79736,4.50586-1.60693,2.7876-1.60303,6.22119.00977,9.00586,13.01562,22.4668,42.63086,37.73145,88.02344,45.37012,30.85059,5.19092,58.16357,4.96094,62.0083,4.90039,1.67383.10889,6.94629.40674,14.64111.40674,31.93555-.00098,105.48193-5.13525,135.53467-50.19531,1.8418-2.76172,2.01416-6.3125.44824-9.23975-1.56592-2.92676-4.61621-4.75391-7.93555-4.75391ZM265.84568,256.8623c-29.85156,4.61084-55.9502,2.8501-56.20557,2.83154-.21338-.01514-.42871-.02295-.64307-.02295-.06494,0-.12988.00098-.19482.00195-26.07178.57227-91.1543-3.87939-122.20459-27.77832h244.46387c-18.25635,14.83594-44.37842,21.75-65.21582,24.96777Z" fill="#1c0083"/>
      <path d="M244.88181,103.70117c2.95654-1.97021,4.50293-5.54443,3.84424-9.12158-.73877-4.01025-4.09717-7.02344-8.1626-7.34277-.16357-.01318-16.521-1.40381-28.01758-11.46729-3.39355-2.9707-8.46191-2.9707-11.85547,0-11.49658,10.06348-27.85254,11.4541-27.98535,11.46484-4.07812.2915-7.44727,3.29492-8.20312,7.3125-.67432,3.58301.88086,7.16992,3.84424,9.14844.34717,1.05762.3418,4.77783-3.30713,11.80811-4.38086,8.44629-5.34668,17.00049-2.79346,24.7373,2.66504,8.07568,8.99316,14.75,18.30127,19.30225,12.03027,5.88135,21.67285,11.12305,21.76855,11.17529,1.3418.73047,2.82275,1.0957,4.30371,1.0957,1.48291,0,2.96582-.36621,4.30859-1.09814.0957-.05225,9.72119-5.29248,21.75977-11.1709l.00879-.00439c9.30811-4.55762,15.63477-11.23828,18.29492-19.31934,2.54736-7.73779,1.5752-16.2876-2.80859-24.7207-3.64893-7.0293-3.6499-10.74512-3.30078-11.79932ZM233.89402,134.59277c-1.40039,4.25244-5.72217,7.11963-9.10498,8.77734-7.57861,3.70117-14.12646,7.1001-18.17188,9.23828-4.04639-2.13672-10.59473-5.53564-18.16309-9.23584-3.38379-1.65479-7.71191-4.52002-9.11523-8.77295-1.01318-3.07031-.44873-6.70703,1.67773-10.80664,4.08936-7.87842,5.88721-14.89648,5.37451-20.93896,5.95117-1.64209,13.2793-4.4043,20.22705-9.02002,6.94482,4.61377,14.26855,7.37549,20.21875,9.01758-.5166,6.04395,1.28027,13.06348,5.37207,20.94678,2.12842,4.09375,2.69482,7.72559,1.68506,10.79443Z" fill="#1c0083"/>
      <path d="M411.04538,104.63623c-3.20605-4.5083-29.13623-40.44531-56.45459-62.59082C332.27439,23.96973,249.27341,0,208.999,0S85.72361,23.96973,63.40427,42.04785c-27.31543,22.14307-53.24561,58.08008-56.45166,62.58838-5.35156,6.16943-7.78906,14.21777-6.69678,22.1748,1.10645,8.06445,5.77002,15.35889,12.7876,20.00732l44.48926,29.54346v13.25146c0,4.9707,4.0293,9,9,9h284.93262c4.9707,0,9-4.0293,9-9v-13.25146l44.48193-29.53857c7.02539-4.65479,11.68896-11.94922,12.79492-20.01123,1.09229-7.95801-1.34521-16.00635-6.69678-22.17578ZM399.90915,124.36475c-.40332,2.93896-2.19043,5.65576-4.91211,7.4585l-48.51025,32.21387c-2.51172,1.66797-4.02148,4.48242-4.02148,7.49756v9.07861H75.53269v-9.07861c0-3.01514-1.50977-5.82959-4.02148-7.49756l-48.51904-32.21924c-2.71289-1.79736-4.5-4.51367-4.90332-7.4541-.40039-2.9165.52637-5.79346,2.60938-8.10059.24316-.26904.47021-.5542.6792-.85059.26465-.37549,26.76953-37.82471,53.35889-59.37988,17.84229-14.45166,95.73047-38.03271,134.2627-38.03271s116.42041,23.58105,134.25977,38.03027c26.59229,21.55762,53.09717,59.00684,53.36182,59.38232.20898.29639.43604.58154.6792.85059,2.08301,2.30713,3.00977,5.18408,2.60938,8.10156Z" fill="#1c0083"/>
    </g>
  </g>
</svg>